<?xml version="1.0" encoding="utf-8"?><svg viewBox="0 0 71 70" xmlns="http://www.w3.org/2000/svg" xmlns:xlink="http://www.w3.org/1999/xlink"><style>:root>svg{display:none}:root>svg:target{display:block}</style><svg viewBox="0 0 22 20" id="arrow" xmlns="http://www.w3.org/2000/svg"><path d="M21.597 10.972a1.375 1.375 0 0 1-.972.403H4.695l5.903 5.901a1.377 1.377 0 1 1-1.947 1.947l-8.25-8.25a1.375 1.375 0 0 1 0-1.947l8.25-8.25a1.377 1.377 0 0 1 1.947 1.947L4.694 8.625h15.931a1.375 1.375 0 0 1 .972 2.347Z"/></svg><svg fill="none" viewBox="0 0 18 14" id="arrow2" xmlns="http://www.w3.org/2000/svg"><path d="M12.788 3H5.372C3.659 3 2.739 5.012 3.859 6.308l3.845 4.45a2 2 0 0 0 3.073-.057l3.57-4.45C15.399 4.944 14.468 3 12.788 3Z" fill="#141C29"/></svg><svg viewBox="0 0 18 14" id="arrow2-fill" xmlns="http://www.w3.org/2000/svg"><path d="M12.788 3H5.372C3.659 3 2.739 5.012 3.859 6.308l3.845 4.45a2 2 0 0 0 3.073-.057l3.57-4.45C15.399 4.944 14.468 3 12.788 3Z"/></svg><svg fill="none" viewBox="0 0 24 24" id="arrow3" xmlns="http://www.w3.org/2000/svg"><path d="m10 17 5-5-5-5" stroke="#141C29" stroke-width="2" stroke-linecap="round" stroke-linejoin="round"/></svg><svg fill="none" viewBox="0 0 22 21" id="mail" xmlns="http://www.w3.org/2000/svg"><path d="M1 5.833a2 2 0 0 1 2-2h16a2 2 0 0 1 2 2V16a2 2 0 0 1-2 2H3a2 2 0 0 1-2-2V5.834Z"/><path d="M2.421 5.136c-.504-.462-.177-1.303.507-1.303h16.144c.684 0 1.01.841.507 1.303l-6.552 6.006a3 3 0 0 1-4.054 0L2.42 5.136Z"/></svg><svg viewBox="0 0 71 70" id="skype" xmlns="http://www.w3.org/2000/svg"><path d="M6.624 34.414c.092-1.095.023-2.236.322-3.263.528-1.87-.368-3.376-.943-4.973C2.326 16.002 9.152 5.255 20.023 4.092c3.125-.342 6.044.296 8.894 1.506.69.296 1.54.456 2.252.365 6.343-.822 12.433 0 18.064 3.057 6.205 3.354 10.71 8.305 13.33 14.899 1.47 3.719 2.068 7.575 2 11.545-.024.935-.024 1.916-.254 2.829-.39 1.483.023 2.715.552 4.084 2.988 7.734-.046 16.382-7.423 20.443-5.217 2.875-10.526 2.829-15.881.32-.69-.32-1.609-.343-2.413-.252-7.148.844-13.766-.684-19.696-4.677-6.182-4.152-10.25-9.902-11.95-17.157-.506-2.168-.69-4.404-1.012-6.594.046-.023.092-.046.138-.046ZM34.8 13.63c-1.333.114-2.666.16-3.999.365-3.539.502-6.733 1.78-9.262 4.449-3.516 3.742-4.045 10.267.644 14.055 3.01 2.44 6.665 3.422 10.273 4.517 2.873.867 5.769 1.688 8.55 2.784 2.55 1.004 3.355 5.087.505 6.981-2.298 1.529-4.826 1.552-7.377 1.324-2.069-.183-3.976-.936-5.355-2.487-1.08-1.21-2.023-2.556-2.919-3.925-1.034-1.551-2.482-1.962-4.183-1.688-1.608.25-2.85 1.255-3.102 2.806-.207 1.278-.046 2.761.413 3.97 1.38 3.56 4.367 5.476 7.814 6.64 6.183 2.076 12.434 1.962 18.501-.297 5.447-2.008 7.837-6.023 7.906-11.476.069-3.765-2.045-6.389-5.194-8.26-3.677-2.19-7.86-3.011-11.928-4.13-2.298-.615-4.711-1.003-6.665-2.555-1.746-1.391-1.746-3.627.023-5.042 2.735-2.19 7.93-2.19 10.55.137 1.332 1.186 2.435 2.6 3.722 3.856 1.563 1.506 4.022 1.688 5.815.525 1.632-1.05 2.091-2.83 1.31-5.043-.758-2.167-2.39-3.582-4.298-4.7-3.585-2.122-7.584-2.692-11.744-2.806Z"/></svg><svg viewBox="0 0 71 70" id="telegram" xmlns="http://www.w3.org/2000/svg"><path fill-rule="evenodd" clip-rule="evenodd" d="M60.37 9.342a5.186 5.186 0 0 1 2.495-.302 5.018 5.018 0 0 1 2.316.898 4.419 4.419 0 0 1 1.496 1.85c.308.728.398 1.519.26 2.29l-7.222 40.06c-.7 3.865-5.337 6.08-9.212 4.156-3.242-1.61-8.057-4.092-12.387-6.68-2.166-1.296-8.798-5.446-7.983-8.399.7-2.525 11.845-12.012 18.214-17.653 2.5-2.216 1.36-3.494-1.592-1.456-7.334 5.061-19.1 12.758-22.99 14.925-3.433 1.91-5.223 2.236-7.363 1.91-3.904-.594-7.524-1.514-10.48-2.636-3.992-1.514-3.798-6.534-.002-7.996L60.37 9.342Z"/></svg><svg viewBox="0 0 20 21" id="whatsapp" xmlns="http://www.w3.org/2000/svg"><g clip-path="url(#ha)"><path d="M.702 20.055c.21-.641.406-1.227.6-1.814.172-.508.328-1.016.515-1.508.102-.258.047-.453-.093-.68C-.452 12.583-.593 9.02 1.42 5.447 3.487 1.782 7.676-.086 11.864.664c4.049.727 7.31 4.064 7.988 8.175 1.053 6.362-4.01 12.013-10.453 11.646a9.434 9.434 0 0 1-4.555-1.446.722.722 0 0 0-.686-.086c-1.061.351-2.122.687-3.19 1.024-.055.03-.133.046-.266.078ZM4.204 7.808c.032.242.047.492.094.734.203 1.079.811 1.954 1.443 2.822 1.708 2.36 3.908 4.01 6.794 4.634.398.086.843.125 1.233.04 1.606-.36 2.246-1.18 2.246-2.502 0-.156-.117-.39-.25-.46-.733-.384-1.49-.735-2.238-1.095-.336-.156-.6-.07-.82.227-.194.265-.381.524-.584.781-.336.422-.507.47-1.006.266-1.654-.672-2.871-1.837-3.791-3.345-.14-.234-.133-.438.046-.64.21-.235.445-.454.609-.712.117-.195.242-.485.18-.664-.305-.844-.672-1.665-1.03-2.486-.055-.117-.188-.258-.297-.273-.64-.102-1.24-.102-1.732.437a3.359 3.359 0 0 0-.897 2.236Z"/></g><defs><clipPath id="ha"><path fill="#fff" transform="translate(0 .5)" d="M0 0h20v20H0z"/></clipPath></defs></svg></svg>