<svg width="98" height="98" viewBox="0 0 98 98" fill="none" xmlns="http://www.w3.org/2000/svg">
<rect width="98" height="98" rx="49" fill="#26C7BC"/>
<path d="M79 33.5529C78.9803 36.0881 78.9803 38.6233 78.9803 41.1585C78.9803 44.1065 79 47.0544 79 50.022C78.9803 50.3561 78.9803 50.6902 78.941 51.0243C78.9017 51.437 78.6069 51.6335 78.2532 51.7514C77.5457 51.6335 77.4867 51.1422 77.4867 50.5526C77.5064 44.0082 77.4867 37.4638 77.4867 30.9194C77.4867 28.9935 76.6613 28.168 74.7746 28.168C57.5784 28.168 40.3626 28.168 23.1664 28.168C21.319 28.168 20.474 29.0131 20.474 30.8801C20.474 40.0383 20.474 49.2162 20.474 58.3744C20.474 60.2218 21.319 61.0472 23.186 61.0472C28.3351 61.0472 33.4841 61.0472 38.6331 61.0472C50.7196 61.0472 62.7864 61.0472 74.8729 61.0472C76.622 61.0472 77.4867 60.1825 77.4867 58.4137C77.4867 57.4114 77.5064 56.4091 77.4867 55.4068C77.4671 54.8369 77.644 54.4635 78.2532 54.3456C78.7838 54.5028 78.9803 54.8565 78.9803 55.3872C78.9607 56.4877 78.9803 57.5883 78.9803 58.6888C78.9607 60.1038 78.3711 61.2437 77.133 61.9905C76.8578 62.1477 76.7596 62.3246 76.7792 62.6194C76.8578 64.2899 76.3272 65.6459 74.8139 66.491C74.5388 66.6482 74.5978 66.9037 74.5978 67.1395C74.5192 69.7927 73.3203 71.0898 70.6476 71.3649C70.4707 71.3452 70.3135 71.3256 70.1366 71.3256C61.0766 71.3256 52.0364 71.3256 42.9764 71.3452C42.7799 71.3452 42.5834 71.3846 42.3868 71.3846C41.8955 71.3649 41.4042 71.3256 40.9129 71.3256C36.6286 71.3256 32.3442 71.2666 28.0599 71.3452C25.9571 71.3846 24.3849 70.7164 23.5398 68.7118C23.5005 68.1615 23.4415 67.5916 23.4219 67.0413C23.4022 66.8055 23.3826 66.6286 23.1467 66.491C21.7121 65.6459 21.1618 64.3292 21.2208 62.7177C21.2404 62.4622 21.2404 62.2067 20.9456 62.0298C19.511 61.1847 19 59.8877 19.0197 58.2565C19.0393 55.0727 19.0197 51.889 19 48.7052C19.0197 48.4104 19.0393 48.1156 19.0393 47.8208C19.0393 43.7134 19.0393 39.6256 19.0393 35.5182C19.0393 33.887 19.0197 32.2558 19 30.605C19.2751 27.8733 20.6115 26.6744 23.3826 26.6744C25.8981 26.6744 28.4137 26.6548 30.9292 26.6351C31.224 26.6548 31.5188 26.6744 31.8136 26.6744C37.8274 26.6744 43.8411 26.6744 49.8352 26.6744C50.1104 26.6744 50.3659 26.6548 50.641 26.6351C54.1785 26.6548 57.716 26.6548 61.2535 26.6548C63.1991 26.6548 65.1644 26.6351 67.1101 26.6155C69.6453 26.6351 72.2001 26.6351 74.7353 26.6548C77.526 26.6548 79 28.1091 79 30.8998C78.9607 31.7842 78.9803 32.6685 79 33.5529ZM48.9902 62.5015C40.5395 62.5015 32.0888 62.5015 23.6184 62.5015C23.4219 62.5015 23.2254 62.5015 23.0288 62.5015C22.793 62.5015 22.7144 62.5998 22.6751 62.8552C22.5768 63.7986 23.0092 64.8598 23.8935 65.1743C24.8172 65.5084 24.9155 66.098 24.8958 66.9234C24.8565 69.0852 25.6426 69.8516 27.8045 69.8516C41.9152 69.8516 56.0455 69.8516 70.1562 69.8516C70.4707 69.8516 70.8048 69.8516 71.0996 69.8123C72.1608 69.6551 72.8683 68.9476 73.0452 67.8864C73.1828 66.9823 73.1435 66.943 72.2198 66.943C57.8143 66.943 43.4088 66.943 28.9836 66.943C28.0403 66.943 27.6079 66.7072 27.6669 66.1766C27.7651 65.3708 28.394 65.4691 28.964 65.4691C41.8562 65.4691 54.7484 65.4691 67.6407 65.4691C69.4094 65.4691 71.1782 65.4887 72.9273 65.4691C74.2244 65.4494 75.0891 64.6436 75.266 63.3859C75.3446 62.757 75.2463 62.5015 74.4995 62.5015C65.9898 62.5211 57.4998 62.5015 48.9902 62.5015Z" fill="#0E141E"/>
<path d="M48.9901 56.8414C43.5462 56.8414 38.1024 56.8414 32.6586 56.8414C31.2829 56.8414 30.9685 56.5663 30.6147 55.2692C29.9072 52.6357 28.276 50.8473 25.7408 49.8843C24.5616 49.4323 24.3062 49.1178 24.3062 47.8797C24.3062 45.6589 24.3062 43.4185 24.3062 41.1978C24.3062 40.1169 24.6009 39.7238 25.6229 39.3504C28.2564 38.3678 29.9269 36.5401 30.6344 33.828C30.9291 32.6684 31.3222 32.354 32.5603 32.354C43.5069 32.354 54.4732 32.354 65.4198 32.354C66.6383 32.354 67.051 32.6684 67.3458 33.828C68.0336 36.5401 69.7238 38.3874 72.3573 39.3504C73.3792 39.7238 73.674 40.1169 73.674 41.1978C73.674 43.4775 73.674 45.7572 73.674 48.0369C73.674 49.0785 73.3595 49.4912 72.3966 49.845C69.7238 50.808 68.0533 52.6553 67.3458 55.4067C67.0706 56.5269 66.6579 56.8414 65.4788 56.8414C59.9563 56.8414 54.4732 56.8414 48.9901 56.8414ZM49.0294 33.828C45.8456 33.828 42.6619 33.828 39.4781 33.828C37.277 33.828 35.0759 33.828 32.8551 33.828C32.521 33.828 32.2066 33.7494 32.069 34.2603C31.2239 37.3655 29.298 39.488 26.3107 40.6671C25.9963 40.7851 25.8587 40.9423 25.8587 41.296C25.8391 43.3989 25.8194 45.5017 25.7605 47.6046C25.7408 48.0959 25.8784 48.3317 26.3697 48.5283C29.2587 49.6681 31.165 51.7513 32.0101 54.7582C32.1476 55.2692 32.3441 55.3478 32.7962 55.3478C35.803 55.3281 38.8296 55.3478 41.8364 55.3478C49.56 55.3478 57.2639 55.3478 64.9874 55.3478C65.3805 55.3478 65.7539 55.446 65.9308 54.8368C66.7759 51.8103 68.6625 49.6878 71.6104 48.5676C71.9642 48.43 72.1018 48.2531 72.1018 47.8797C72.1214 45.8555 72.1411 43.8116 72.2 41.7873C72.2197 41.1585 72.0428 40.844 71.4336 40.6082C68.6625 39.5076 66.8348 37.503 66.0094 34.6534C65.8129 33.9852 65.5181 33.8673 64.8892 33.8673C59.6026 33.8476 54.316 33.828 49.0294 33.828Z" fill="#0E141E"/>
<path d="M73.2615 31.8234C73.2615 31.9413 73.1239 32.1378 72.947 32.3147C72.1609 33.1008 71.3551 33.9066 70.569 34.6927C70.2153 35.0464 69.8026 35.184 69.4292 34.7909C69.0361 34.3979 69.1737 34.0048 69.5471 33.6511C70.3528 32.865 71.139 32.0592 71.9251 31.2731C72.1805 31.0176 72.4753 30.8604 72.8487 31.0569C73.1042 31.1552 73.2418 31.3714 73.2615 31.8234Z" fill="#0E141E"/>
<path d="M75.0892 33.6905C75.0695 34.0049 74.9123 34.2211 74.7158 34.398C73.9493 35.1448 73.2025 35.9112 72.4361 36.6777C72.0627 37.0511 71.6499 37.2476 71.2372 36.7956C70.8638 36.3829 71.0211 35.9898 71.3748 35.6557C72.1806 34.8696 72.9667 34.0639 73.7528 33.2777C74.0083 33.0223 74.3031 32.8847 74.6765 33.0812C74.9516 33.2188 75.0695 33.435 75.0892 33.6905Z" fill="#0E141E"/>
<path d="M23.6579 56.1928C23.3238 56.1732 23.088 56.0356 22.97 55.7801C22.8325 55.5246 22.8521 55.2298 23.0487 55.0333C23.9527 54.1096 24.8567 53.186 25.8 52.3016C26.0752 52.0461 26.4486 52.0854 26.7237 52.3605C26.9989 52.6357 27.0775 53.0091 26.822 53.2842C25.918 54.2276 24.9746 55.1512 24.0313 56.0749C23.9134 56.1535 23.7562 56.1732 23.6579 56.1928Z" fill="#0E141E"/>
<path d="M28.7673 54.8761C28.7673 55.1709 28.6101 55.3871 28.4136 55.564C27.6275 56.3304 26.861 57.1166 26.0749 57.883C25.7211 58.2368 25.3281 58.394 24.935 58.0009C24.542 57.6079 24.6795 57.2148 25.0333 56.8611C25.839 56.0553 26.6448 55.2299 27.4702 54.4241C27.7061 54.1883 27.9812 54.0704 28.335 54.2276C28.6101 54.3652 28.728 54.5813 28.7673 54.8761Z" fill="#0E141E"/>
<path d="M49.0297 33.828C54.3163 33.828 59.6225 33.8477 64.9091 33.8083C65.538 33.8083 65.8328 33.9263 66.0293 34.5945C66.8547 37.4441 68.7021 39.4487 71.4535 40.5493C72.0627 40.8047 72.2396 41.0995 72.22 41.7284C72.1414 43.7527 72.1217 45.7966 72.1217 47.8208C72.1217 48.1942 71.9841 48.3907 71.6304 48.5086C68.6825 49.6289 66.7958 51.7514 65.9507 54.7779C65.7738 55.3871 65.4004 55.2889 65.0074 55.2889C57.2838 55.2889 49.5799 55.2889 41.8564 55.2889C38.8495 55.2889 35.823 55.2889 32.8161 55.2889C32.3641 55.2889 32.1676 55.1906 32.03 54.6993C31.1653 51.7514 29.2589 49.6682 26.37 48.5283C25.8983 48.3514 25.7607 48.0959 25.7607 47.6046C25.8197 45.5018 25.8394 43.3989 25.859 41.2961C25.859 40.9423 25.9966 40.7851 26.311 40.6672C29.2982 39.488 31.2242 37.3655 32.0496 34.2604C32.1872 33.769 32.5017 33.828 32.8358 33.828C35.0369 33.828 37.238 33.828 39.4587 33.828C42.6425 33.828 45.8459 33.828 49.0297 33.828ZM48.3811 54.0114C50.6608 54.0114 52.0955 53.3825 53.2943 52.2623C57.1266 48.6659 57.4804 41.6302 54.0215 37.6603C51.0342 34.2211 46.4748 34.3586 43.7234 37.9551C41.1489 41.3157 40.8344 46.5237 42.9962 50.1595C44.3523 52.4196 46.1997 53.9328 48.3811 54.0114ZM36.3929 53.4022C36.9039 53.4022 37.4149 53.4022 37.9258 53.4022C38.4171 53.4022 38.7119 53.1664 38.7119 52.6554C38.7119 52.1837 38.4368 51.9479 37.9848 51.9282C36.9432 51.9282 35.8819 51.9282 34.8403 51.9282C34.3687 51.9282 34.1328 52.2034 34.1328 52.675C34.1328 53.1467 34.408 53.3825 34.86 53.4022C35.371 53.4022 35.8819 53.4022 36.3929 53.4022ZM61.5288 37.2279C62.0398 37.2279 62.5508 37.2279 63.0618 37.2279C63.5138 37.2279 63.8086 37.0314 63.8479 36.5597C63.8872 36.0684 63.5924 35.7933 63.16 35.7736C62.0791 35.7343 60.9982 35.7343 59.937 35.7736C59.5046 35.7933 59.2295 36.0684 59.2688 36.5597C59.3081 37.0118 59.5636 37.2083 59.9959 37.2279C60.5069 37.2279 61.0179 37.2279 61.5288 37.2279ZM63.1011 44.5191C63.0618 44.0278 62.7277 43.733 62.256 43.7527C61.8236 43.7723 61.4895 44.0475 61.4895 44.5584C61.4895 45.1087 61.8236 45.4035 62.2953 45.4035C62.767 45.4232 63.1011 45.1087 63.1011 44.5191ZM36.4912 44.6567C36.4912 44.0671 36.1571 43.7723 35.6658 43.7723C35.2334 43.7723 34.8796 44.0278 34.86 44.5584C34.8403 45.1087 35.1548 45.4035 35.6264 45.4428C36.1178 45.4232 36.4519 45.1284 36.4912 44.6567ZM33.9953 44.6567C33.9953 44.0671 33.6612 43.7723 33.1895 43.7723C32.6982 43.7723 32.4034 44.1261 32.3837 44.637C32.3641 45.148 32.7375 45.4232 33.1698 45.4232C33.6415 45.4232 33.9756 45.1284 33.9953 44.6567ZM37.3559 44.5977C37.3755 45.1284 37.7096 45.4232 38.1813 45.4232C38.6137 45.4232 38.9674 45.148 38.9674 44.637C38.9674 44.1261 38.6726 43.7723 38.1813 43.7723C37.7096 43.7527 37.3755 44.0475 37.3559 44.5977ZM60.6052 44.4995C60.5855 44.0278 60.2318 43.733 59.7601 43.7527C59.2688 43.7723 58.974 44.1261 58.9936 44.637C58.9936 45.148 59.367 45.4035 59.7994 45.4035C60.2711 45.4035 60.6052 45.1087 60.6052 44.4995ZM63.9658 44.7157C64.0051 45.1284 64.3195 45.4428 64.8109 45.4232C65.2432 45.4035 65.597 45.1284 65.597 44.637C65.597 44.1261 65.2825 43.7723 64.7912 43.7723C64.3195 43.7527 63.9854 44.0475 63.9658 44.7157Z" fill="white"/>
<path d="M36.3929 53.4024C35.8819 53.4024 35.3709 53.4024 34.86 53.4024C34.3883 53.4024 34.1328 53.1665 34.1328 52.6752C34.1328 52.2036 34.3686 51.9284 34.8403 51.9284C35.8819 51.9088 36.9432 51.9284 37.9848 51.9284C38.4564 51.9284 38.7119 52.1642 38.7119 52.6556C38.7119 53.1665 38.4368 53.4024 37.9258 53.4024C37.4148 53.4024 36.9039 53.4024 36.3929 53.4024Z" fill="#0E141E"/>
<path d="M61.5284 37.2279C61.0175 37.2279 60.5065 37.2279 59.9955 37.2279C59.5632 37.2279 59.3077 37.0117 59.2684 36.5597C59.2291 36.0684 59.5042 35.7933 59.9366 35.7736C61.0175 35.7343 62.0984 35.7343 63.1596 35.7736C63.592 35.7933 63.8868 36.0488 63.8475 36.5597C63.8082 37.0511 63.533 37.2476 63.0614 37.2279C62.5504 37.2279 62.0394 37.2279 61.5284 37.2279Z" fill="#0E141E"/>
<path d="M63.1008 44.5191C63.1008 45.1087 62.7667 45.4035 62.295 45.4035C61.8234 45.4035 61.4893 45.1087 61.4893 44.5584C61.4893 44.0474 61.8234 43.7723 62.2557 43.7526C62.747 43.733 63.0811 44.0278 63.1008 44.5191Z" fill="#0E141E"/>
<path d="M36.4911 44.6567C36.4518 45.148 36.1177 45.4428 35.6461 45.4232C35.1744 45.4035 34.8403 45.0891 34.8796 44.5388C34.8993 44.0278 35.253 43.7527 35.6854 43.7527C36.157 43.7527 36.4911 44.0475 36.4911 44.6567Z" fill="#0E141E"/>
<path d="M33.995 44.6568C33.9753 45.1481 33.6412 45.4232 33.1499 45.4232C32.7175 45.4036 32.3638 45.1284 32.3638 44.6371C32.3834 44.1262 32.6782 43.7724 33.1695 43.7724C33.6412 43.7528 33.995 44.0475 33.995 44.6568Z" fill="#0E141E"/>
<path d="M37.356 44.5978C37.3756 44.0475 37.7097 43.7528 38.1814 43.7724C38.6727 43.7724 38.9675 44.1458 38.9675 44.6371C38.9675 45.1481 38.6137 45.4232 38.1814 45.4232C37.7097 45.4232 37.3756 45.1285 37.356 44.5978Z" fill="#0E141E"/>
<path d="M60.6052 44.4994C60.6052 45.1087 60.2711 45.4035 59.7994 45.4035C59.3671 45.4035 58.9937 45.148 58.9937 44.637C58.9937 44.126 59.2688 43.7723 59.7601 43.7526C60.2514 43.733 60.5855 44.0278 60.6052 44.4994Z" fill="#0E141E"/>
<path d="M63.9653 44.7158C63.9653 44.0673 64.3191 43.7725 64.7907 43.7725C65.2821 43.7725 65.5769 44.1262 65.5965 44.6372C65.5965 45.1482 65.2428 45.4233 64.8104 45.4233C64.3387 45.4233 64.0046 45.1285 63.9653 44.7158Z" fill="#0E141E"/>
<path d="M49.0296 49.4128C48.6955 49.3932 48.3417 49.236 48.3417 48.9412C48.3221 48.1944 47.87 48.273 47.3591 48.273C46.7105 48.2533 46.3568 47.6637 46.6909 47.1724C46.8874 46.8776 47.2019 46.8383 47.536 46.8187C47.8504 46.799 48.3614 47.0152 48.2631 46.3666C48.2041 45.9539 48.6169 45.3447 47.6735 45.2857C46.5926 45.2071 45.7869 44.1262 45.8065 43.0846C45.8262 42.0037 46.6516 41.08 47.7521 40.9228C48.0666 40.8835 48.3024 40.8835 48.3024 40.4512C48.3024 40.0384 48.6169 39.783 49.0296 39.783C49.403 39.783 49.7174 40.0384 49.7174 40.4118C49.7174 40.9621 50.0319 40.9228 50.3856 40.9032C50.9359 40.8639 51.4272 40.9621 51.4272 41.6303C51.4272 42.2789 50.9162 42.3771 50.3856 42.3771C50.1105 42.3771 49.6585 42.2396 49.7764 42.7898C49.8746 43.1829 49.3637 43.8118 50.307 43.91C51.4272 44.028 52.2133 45.0303 52.2133 46.0915C52.2133 47.1921 51.3879 48.1354 50.248 48.2926C49.8943 48.3319 49.7567 48.4302 49.7371 48.8036C49.6781 49.1573 49.3833 49.3735 49.0296 49.4128ZM49.6781 46.0522C49.8746 46.2684 49.4226 46.799 50.0319 46.799C50.4642 46.799 50.6804 46.4846 50.6804 46.0719C50.6804 45.6591 50.4249 45.3644 50.0122 45.3447C49.4619 45.325 49.855 45.8164 49.6781 46.0522ZM48.2828 43.1239C48.1059 42.8881 48.5186 42.4164 47.988 42.3771C47.5163 42.3378 47.2805 42.6916 47.2805 43.1239C47.2805 43.517 47.536 43.8314 47.9487 43.8314C48.5186 43.8314 48.1255 43.3598 48.2828 43.1239Z" fill="#0E141E"/>
</svg>
