<svg width="98" height="98" viewBox="0 0 98 98" fill="none" xmlns="http://www.w3.org/2000/svg">
<rect width="98" height="98" rx="49" fill="#26C7BC"/>
<path d="M50.9731 56.858C50.9731 60.1023 50.9731 63.3484 50.9731 66.5926C50.9731 66.7979 50.9768 67.005 50.9603 67.2085C50.9273 67.6081 50.6945 67.861 50.306 67.8702C49.8789 67.8793 49.6406 67.6081 49.6039 67.1828C49.5856 66.9794 49.5948 66.7722 49.593 66.567C49.5875 65.2418 49.6168 63.9147 49.5655 62.5914C49.527 61.5594 48.7315 60.8281 47.7527 60.8079C46.7666 60.7878 45.9454 61.5613 45.8501 62.5969C45.7823 63.352 45.841 63.3758 46.5943 63.3795C47.1515 63.3813 47.0635 63.0349 47.0855 62.6958C47.1167 62.2468 47.344 61.9572 47.826 61.9865C48.2732 62.014 48.4327 62.3054 48.4565 62.7288C48.5299 64.032 47.8755 64.7267 46.5503 64.745C46.3304 64.7487 45.9619 64.6387 45.9179 64.822C45.8171 65.2289 45.7951 65.6872 45.874 66.0996C45.9326 66.4075 46.3047 66.237 46.5301 66.2444C47.0012 66.259 47.3623 66.3983 47.3696 66.9262C47.377 67.4486 47.036 67.6337 46.5558 67.6282C46.4642 67.6264 46.3707 67.6392 46.2827 67.6264C45.9051 67.5677 45.83 67.7492 45.8355 68.0938C45.8538 69.4868 45.8098 70.8835 45.8556 72.2747C45.9949 76.5619 49.4408 80.1746 53.7225 80.389C56.3656 80.521 59.0233 80.5081 61.6719 80.4257C66.6116 80.2699 70.0868 76.604 70.0923 71.6515C70.096 68.4072 70.0795 65.1611 70.1051 61.9168C70.1088 61.3358 70.0245 61.026 69.3482 61.114C68.8771 61.1745 68.45 61.0077 68.4519 60.4303C68.4537 59.8475 68.8844 59.7577 69.3573 59.743C69.5754 59.7357 69.8834 59.8621 69.9897 59.6349C70.1088 59.3783 69.9164 59.107 69.7697 58.8779C69.361 58.24 68.5123 57.9009 67.7993 58.0732C67.0295 58.2602 66.4375 58.8577 66.3862 59.6459C66.3238 60.6008 66.3495 61.5631 66.3367 62.5217C66.3312 62.9671 66.1442 63.3099 65.6768 63.3245C65.1691 63.341 64.962 62.9909 64.9601 62.5144C64.9565 61.9205 64.9198 61.323 64.9693 60.7328C65.0188 60.1206 64.9052 59.7797 64.183 59.8823C63.7266 59.9465 63.3362 59.743 63.3233 59.2261C63.3105 58.6634 63.7119 58.5076 64.205 58.5149C64.3644 58.5168 64.5257 58.5149 64.6852 58.5076C64.8373 58.5021 64.9491 58.438 64.951 58.2657C64.9565 57.6058 65.028 56.935 64.6064 56.3503C64.1518 55.7197 63.3435 55.4228 62.6103 55.6318C61.7599 55.8737 61.221 56.5647 61.2118 57.5178C61.1935 59.162 61.199 60.8079 61.21 62.4539C61.2137 62.9323 61.056 63.3062 60.5575 63.3227C60.0168 63.341 59.8261 62.9561 59.8298 62.4502C59.8371 61.6969 59.8353 60.9417 59.8298 60.1884C59.828 59.8475 59.9141 59.4461 59.7657 59.184C59.6117 58.9127 59.181 59.1106 58.8749 59.0648C58.4569 59.0025 58.182 58.788 58.1948 58.3536C58.2058 57.9577 58.4624 57.7524 58.8565 57.6993C59.1663 57.6571 59.6007 57.8404 59.7565 57.5875C59.9123 57.3327 59.8243 56.9258 59.8298 56.5867C59.8353 56.2678 59.8463 55.9452 59.817 55.6281C59.751 54.8784 59.3496 54.3487 58.6622 54.0628C57.425 53.5441 56.1236 54.4385 56.109 55.8389C56.087 58.0549 56.1016 60.2709 56.1016 62.4887C56.1016 62.9671 55.9037 63.3264 55.4051 63.3264C54.9047 63.3264 54.716 62.9744 54.7233 62.4887C54.7361 61.5979 54.7361 60.7071 54.7233 59.8145C54.7178 59.4534 54.8699 59.0227 54.6463 58.7496C54.4557 58.5149 54.0396 58.7019 53.728 58.6524C53.3449 58.5901 53.0902 58.3976 53.0847 57.9834C53.0792 57.5728 53.3101 57.3529 53.7042 57.3016C53.8618 57.2814 54.0268 57.2649 54.1826 57.2869C54.6646 57.3584 54.749 57.1201 54.7361 56.6985C54.7105 55.7857 54.7325 54.8711 54.7251 53.9565C54.7215 53.5496 54.8113 53.0803 54.6408 52.7541C54.4997 52.4846 54.0066 52.7119 53.6785 52.6368C53.3028 52.5506 53.0627 52.3325 53.0828 51.9201C53.103 51.5499 53.3138 51.3574 53.6804 51.2859C54.0213 51.2181 54.4978 51.4765 54.6793 51.11C54.8259 50.8148 54.7215 50.3933 54.727 50.0285C54.7288 49.8452 54.705 49.6601 54.7325 49.4805C54.8186 48.9196 54.6096 48.7473 54.0323 48.7546C52.6723 48.7711 52.0454 48.0765 52.1095 46.7714C52.1315 46.3095 52.3313 46.0053 52.7914 45.9979C53.2166 45.9906 53.4402 46.2839 53.4824 46.7018C53.4952 46.8374 53.4677 46.9804 53.4971 47.1124C53.5979 47.5633 53.97 47.3561 54.2302 47.3818C54.43 47.4001 54.6756 47.4789 54.7343 47.1069C54.9084 46.0144 54.0433 44.9147 52.9362 44.867C51.7668 44.8175 50.9805 45.6497 50.9768 46.9932C50.9676 50.2778 50.975 53.5679 50.9731 56.858ZM46.1067 23.2826C50.997 23.2826 55.889 23.2679 60.7793 23.2991C61.4611 23.3027 61.6407 23.1084 61.5876 22.4596C61.5289 21.7338 61.5747 20.9988 61.5729 20.2674C61.5692 18.3868 60.6894 17.5125 58.7942 17.5125C52.5769 17.5125 46.3615 17.5125 40.1442 17.5125C37.8128 17.5125 35.4813 17.507 33.1498 17.5144C31.513 17.5199 30.6002 18.4308 30.5892 20.0511C30.5837 20.8961 30.6259 21.7448 30.5746 22.5879C30.5398 23.1671 30.7304 23.2991 31.2949 23.2954C36.2328 23.2716 41.1707 23.2826 46.1067 23.2826ZM27.9242 31.9724C27.9242 34.6668 27.9407 37.3631 27.9114 40.0574C27.9059 40.622 28.1753 40.6055 28.5767 40.6092C28.9854 40.6128 29.242 40.6092 29.2329 40.0519C29.1981 37.7461 29.3484 35.4275 29.1504 33.1382C29.0789 32.3079 29.1339 31.5564 29.1761 30.7499C29.297 28.4954 29.1999 26.2299 29.2311 23.9681C29.2384 23.4384 29.0789 23.3211 28.5785 23.3266C28.1001 23.3321 27.904 23.4072 27.9095 23.9553C27.9407 26.6276 27.9242 29.3 27.9242 31.9724ZM62.9494 27.2398C62.9494 28.3818 62.9659 29.5237 62.9403 30.6656C62.9311 31.056 63.0502 31.2099 63.437 31.1513C63.7578 31.1018 64.216 31.3236 64.2141 30.6931C64.205 28.4092 64.2013 26.1254 64.2178 23.8416C64.2215 23.2313 63.8091 23.387 63.4681 23.3431C63.0246 23.2844 62.9348 23.4805 62.9421 23.8838C62.9659 25.0018 62.9494 26.1218 62.9494 27.2398Z" fill="#0E141E"/>
<path fill-rule="evenodd" clip-rule="evenodd" d="M29.1834 69.5491C29.1926 69.3218 29.2109 69.0946 29.2109 68.8673C29.2127 60.1499 29.2054 51.4325 29.2256 42.7152C29.2274 42.1341 29.1192 41.8629 28.4906 41.9673C28.2248 42.0113 27.9425 41.993 27.6712 41.9673C27.0792 41.9142 26.6833 41.6063 26.61 40.9977C26.555 40.5468 26.5477 40.0886 26.544 39.6322C26.5257 37.3521 26.5128 35.0719 26.5 32.7918C26.5147 30.2587 26.5293 27.7256 26.5458 25.1925C26.5495 24.5528 26.5293 23.9131 26.5678 23.2752C26.6246 22.3331 27.0169 21.9849 27.959 21.9665C29.2073 21.941 29.2073 21.9409 29.2162 20.6873L29.2164 20.6652C29.2219 20.0511 29.1687 19.4371 29.3502 18.8304C29.7901 17.3476 31.031 16.3028 32.5651 16.1598C32.8364 16.1342 33.1132 16.1342 33.3863 16.1342C41.836 16.1324 50.2858 16.1324 58.7337 16.1342C61.4794 16.1342 62.9476 17.6115 62.9494 20.3719V20.7825C62.9494 21.8621 62.9494 21.8621 64.0382 21.9794C64.962 22.0783 65.5595 22.7235 65.5833 23.673C65.6035 24.5161 65.6053 25.3611 65.6163 26.2061C65.6053 27.6871 65.598 29.1699 65.5852 30.6509C65.5742 31.8845 64.9583 32.5553 63.7504 32.5095C63.0887 32.4838 62.9293 32.6616 62.9329 33.3233C62.9623 38.8642 62.9458 44.407 62.9549 49.9497C62.9549 50.4868 62.9128 50.9597 62.3006 51.1411C61.6554 51.0366 61.5674 50.5986 61.5692 50.034C61.5802 41.8317 61.5674 33.6312 61.5912 25.4289C61.5931 24.7911 61.4189 24.6463 60.8013 24.6481C51.0006 24.6683 41.2 24.6683 31.3994 24.6463C30.756 24.6444 30.5727 24.7727 30.5746 25.4509C30.5984 38.8844 30.5911 52.3178 30.5911 65.7495C30.5911 65.8631 30.6039 65.9786 30.5892 66.0922C30.5453 66.4332 30.6516 66.5835 31.0328 66.567C31.8081 66.534 32.5853 66.5468 33.3624 66.5413C35.6591 66.545 37.9557 66.5541 40.2506 66.545C40.7858 66.5431 41.1982 66.6604 41.3301 67.2433C41.2422 67.8188 40.8646 67.9417 40.3422 67.9398C37.2831 67.927 34.2239 67.9416 31.1648 67.9252C30.734 67.9233 30.5599 68.0113 30.5819 68.4842C30.6204 69.3273 30.5911 70.1723 30.5929 71.0173C30.5966 72.8319 31.4635 73.708 33.2708 73.7098C36.5811 73.7135 39.8913 73.7117 43.2016 73.7117C44.6239 73.7117 44.6239 73.7117 44.4516 72.3058C44.4534 71.2519 44.4571 70.198 44.4589 69.144C44.4534 68.5099 44.4479 67.8757 44.4406 67.2415C44.4498 65.7165 44.4498 64.1915 44.4699 62.6665C44.4883 61.2258 45.4451 59.9923 46.8124 59.5579C47.7674 59.2536 48.6417 59.5194 49.5416 59.9263V56.2531C49.6608 55.2578 49.5948 54.2571 49.5893 53.26C49.5783 51.4215 49.6644 49.5813 49.5416 47.7447C49.549 47.6311 49.5691 47.5174 49.5636 47.4038C49.5086 46.1317 49.8129 45.0082 50.8467 44.1632C51.0122 43.9371 51.6817 43.485 53.0352 43.485C54.0799 43.562 54.8919 44.0294 55.5151 44.8689C56.1658 45.745 56.098 46.7586 56.131 47.7594V53.106C57.1006 52.5213 58.0592 52.3747 59.0618 52.7357C60.0772 53.1005 60.7096 53.863 61.1073 54.8528C61.5106 54.5613 61.9102 54.4037 62.3171 54.2571C64.2801 54.0078 65.8106 54.9059 66.2194 56.6435C66.3532 57.2136 66.5108 57.1201 66.9122 56.946C68.6846 56.1725 70.699 57.0779 71.2947 58.887C71.4835 59.4607 71.4725 60.0564 71.4743 60.6503C71.478 62.2028 71.4908 63.7553 71.5 65.3077C71.489 67.0563 71.434 68.8068 71.4762 70.5554C71.5238 72.5313 71.3167 74.4503 70.5084 76.2741C70.4222 76.4042 70.3288 76.5307 70.2499 76.6645C68.4024 79.841 65.6658 81.6427 61.9762 81.7857C59.3331 81.8865 56.6772 81.8993 54.0341 81.7912C49.8184 81.6189 46.8949 79.456 45.1994 75.6289C45.0052 75.189 44.7907 75.0809 44.349 75.0827C40.7418 75.0955 37.1346 75.0515 33.5292 75.101C32.0886 75.1212 30.8862 74.7381 29.9331 73.6457C29.2292 72.6578 29.1559 71.5323 29.2091 70.3776C29.2237 70.0972 29.1944 69.8222 29.1834 69.5491ZM50.9731 66.5926V56.858C50.975 53.5679 50.9676 50.2778 50.9768 46.9932C50.9805 45.6497 51.7668 44.8175 52.9362 44.867C54.0433 44.9147 54.9084 46.0144 54.7343 47.1069C54.6756 47.4789 54.43 47.4001 54.2302 47.3818C53.97 47.3561 53.5979 47.5633 53.4971 47.1124C53.4677 46.9804 53.4952 46.8374 53.4824 46.7018C53.4402 46.2839 53.2166 45.9906 52.7914 45.9979C52.3313 46.0053 52.1315 46.3095 52.1095 46.7714C52.0454 48.0765 52.6723 48.7711 54.0323 48.7546C54.6096 48.7473 54.8186 48.9196 54.7325 49.4805C54.705 49.6601 54.7288 49.8452 54.727 50.0285C54.7215 50.3933 54.8259 50.8148 54.6793 51.11C54.4978 51.4765 54.0213 51.2181 53.6804 51.2859C53.3138 51.3574 53.103 51.5499 53.0828 51.9201C53.0627 52.3325 53.3028 52.5506 53.6785 52.6368C54.0066 52.7119 54.4997 52.4846 54.6408 52.7541C54.8113 53.0803 54.7215 53.5496 54.7251 53.9565C54.7325 54.8711 54.7105 55.7857 54.7361 56.6985C54.749 57.1201 54.6646 57.3584 54.1826 57.2869C54.0268 57.2649 53.8618 57.2814 53.7042 57.3016C53.3101 57.3529 53.0792 57.5728 53.0847 57.9834C53.0902 58.3976 53.3449 58.5901 53.728 58.6524C54.0396 58.7019 54.4557 58.5149 54.6463 58.7496C54.8699 59.0227 54.7178 59.4534 54.7233 59.8145C54.7361 60.7071 54.7361 61.5979 54.7233 62.4887C54.716 62.9744 54.9047 63.3264 55.4051 63.3264C55.9037 63.3264 56.1016 62.9671 56.1016 62.4887C56.1016 60.2709 56.087 58.0549 56.109 55.8389C56.1236 54.4385 57.425 53.5441 58.6622 54.0628C59.3496 54.3487 59.751 54.8784 59.817 55.6281C59.8463 55.9452 59.8353 56.2678 59.8298 56.5867C59.8243 56.9258 59.9123 57.3327 59.7565 57.5875C59.6007 57.8404 59.1663 57.6571 58.8565 57.6993C58.4624 57.7524 58.2058 57.9577 58.1948 58.3536C58.182 58.788 58.4569 59.0025 58.8749 59.0648C59.181 59.1106 59.6117 58.9127 59.7657 59.184C59.9141 59.4461 59.828 59.8475 59.8298 60.1884C59.8353 60.9417 59.8371 61.6969 59.8298 62.4502C59.8261 62.9561 60.0168 63.341 60.5575 63.3227C61.056 63.3062 61.2137 62.9323 61.21 62.4539C61.199 60.8079 61.1935 59.162 61.2118 57.5178C61.221 56.5647 61.7599 55.8737 62.6103 55.6318C63.3435 55.4228 64.1518 55.7197 64.6064 56.3503C65.028 56.935 64.9565 57.6058 64.951 58.2657C64.9491 58.438 64.8373 58.5021 64.6852 58.5076C64.5257 58.5149 64.3644 58.5168 64.205 58.5149C63.7119 58.5076 63.3105 58.6634 63.3233 59.2261C63.3362 59.743 63.7266 59.9465 64.183 59.8823C64.9052 59.7797 65.0188 60.1206 64.9693 60.7328C64.9198 61.323 64.9565 61.9205 64.9601 62.5144C64.962 62.9909 65.1691 63.341 65.6768 63.3245C66.1442 63.3099 66.3312 62.9671 66.3367 62.5217C66.3495 61.5631 66.3238 60.6008 66.3862 59.6459C66.4375 58.8577 67.0295 58.2602 67.7993 58.0732C68.5123 57.9009 69.361 58.24 69.7697 58.8779C69.9164 59.107 70.1088 59.3783 69.9897 59.6349C69.8834 59.8621 69.5754 59.7357 69.3573 59.743C68.8844 59.7577 68.4537 59.8475 68.4519 60.4303C68.45 61.0077 68.8771 61.1745 69.3482 61.114C70.0245 61.026 70.1088 61.3358 70.1051 61.9168C70.0795 65.1611 70.096 68.4072 70.0923 71.6515C70.0868 76.604 66.6116 80.2699 61.6719 80.4257C59.0233 80.5081 56.3656 80.521 53.7225 80.389C49.4408 80.1746 45.9949 76.5619 45.8556 72.2747C45.8098 70.8835 45.8538 69.4868 45.8355 68.0938C45.83 67.7492 45.9051 67.5677 46.2827 67.6264C46.3707 67.6392 46.4642 67.6264 46.5558 67.6282C47.036 67.6337 47.377 67.4486 47.3696 66.9262C47.3623 66.3983 47.0012 66.259 46.5301 66.2444C46.3047 66.237 45.9326 66.4075 45.874 66.0996C45.7951 65.6872 45.8171 65.2289 45.9179 64.822C45.9619 64.6387 46.3304 64.7487 46.5503 64.745C47.8755 64.7267 48.5299 64.032 48.4565 62.7288C48.4327 62.3054 48.2732 62.014 47.826 61.9865C47.344 61.9572 47.1167 62.2468 47.0855 62.6958C47.0635 63.0349 47.1515 63.3813 46.5943 63.3795C45.841 63.3758 45.7823 63.352 45.8501 62.5969C45.9454 61.5613 46.7666 60.7878 47.7527 60.8079C48.7315 60.8281 49.527 61.5594 49.5655 62.5914C49.6168 63.9147 49.5875 65.2418 49.593 66.567C49.5948 66.7722 49.5856 66.9794 49.6039 67.1828C49.6406 67.6081 49.8789 67.8793 50.306 67.8702C50.6945 67.861 50.9273 67.6081 50.9603 67.2085C50.9768 67.005 50.9731 66.7979 50.9731 66.5926ZM60.7793 23.2991C55.889 23.2679 50.997 23.2826 46.1067 23.2826C41.1707 23.2826 36.2328 23.2716 31.2949 23.2954C30.7304 23.2991 30.5398 23.1671 30.5746 22.5879C30.6259 21.7448 30.5837 20.8961 30.5892 20.0511C30.6002 18.4308 31.513 17.5199 33.1498 17.5144C35.4813 17.507 37.8128 17.5125 40.1442 17.5125H58.7942C60.6894 17.5125 61.5692 18.3868 61.5729 20.2674C61.5747 20.9988 61.5289 21.7338 61.5876 22.4596C61.6407 23.1084 61.4611 23.3027 60.7793 23.2991ZM27.9114 40.0574C27.9407 37.3631 27.9242 34.6668 27.9242 31.9724C27.9242 29.3 27.9407 26.6276 27.9095 23.9553C27.904 23.4072 28.1001 23.3321 28.5785 23.3266C29.0789 23.3211 29.2384 23.4384 29.2311 23.9681C29.1999 26.2299 29.297 28.4954 29.1761 30.7499C29.1339 31.5564 29.0789 32.3079 29.1504 33.1382C29.3484 35.4275 29.1981 37.7461 29.2329 40.0519C29.242 40.6092 28.9854 40.6128 28.5767 40.6092C28.1753 40.6055 27.9059 40.622 27.9114 40.0574ZM62.9403 30.6656C62.9659 29.5237 62.9494 28.3818 62.9494 27.2398C62.9494 26.1218 62.9659 25.0018 62.9421 23.8838C62.9348 23.4805 63.0246 23.2844 63.4681 23.3431C63.8091 23.387 64.2215 23.2313 64.2178 23.8416C64.2013 26.1254 64.205 28.4092 64.2141 30.6931C64.216 31.3236 63.7578 31.1018 63.437 31.1513C63.0502 31.2099 62.9311 31.056 62.9403 30.6656Z" fill="#0E141E"/>
<path d="M50.9749 56.858C50.9749 53.568 50.9676 50.276 50.9786 46.9859C50.9823 45.6424 51.7686 44.8103 52.938 44.8598C54.0469 44.9074 54.912 46.0072 54.7361 47.0996C54.6774 47.4717 54.4318 47.3929 54.232 47.3745C53.9718 47.3507 53.5997 47.556 53.4989 47.1051C53.4695 46.9731 53.497 46.8301 53.4842 46.6945C53.442 46.2766 53.2184 45.9833 52.7932 45.9907C52.3331 45.998 52.1333 46.3023 52.1113 46.7642C52.0472 48.0692 52.674 48.7639 54.0341 48.7474C54.6114 48.74 54.8204 48.9123 54.7342 49.4732C54.7068 49.651 54.7324 49.838 54.7287 50.0213C54.7232 50.386 54.8296 50.8076 54.6811 51.1027C54.4978 51.4693 54.0231 51.2108 53.6822 51.2786C53.3174 51.3501 53.1048 51.5426 53.0846 51.9128C53.0626 52.3252 53.3046 52.5434 53.6803 52.6295C54.0084 52.7047 54.5033 52.4774 54.6426 52.7468C54.8131 53.0731 54.7232 53.5423 54.7269 53.9492C54.7342 54.8638 54.7104 55.7785 54.7379 56.6913C54.7507 57.1128 54.6664 57.3529 54.1844 57.2796C54.0286 57.2558 53.8636 57.2723 53.706 57.2943C53.3119 57.3456 53.081 57.5656 53.0865 57.9761C53.092 58.3904 53.3467 58.5828 53.7298 58.6451C54.0414 58.6946 54.4575 58.5095 54.6481 58.7423C54.8717 59.0154 54.7214 59.4461 54.7251 59.8072C54.7379 60.698 54.7379 61.5888 54.7251 62.4814C54.7178 62.9672 54.9065 63.3191 55.4069 63.3191C55.9055 63.3191 56.1034 62.9598 56.1034 62.4814C56.1016 60.2654 56.0888 58.0476 56.1108 55.8316C56.1254 54.4331 57.4268 53.5386 58.664 54.0555C59.3495 54.3433 59.7528 54.8712 59.8188 55.6208C59.8463 55.9379 59.8371 56.2605 59.8316 56.5794C59.8261 56.9204 59.9122 57.3254 59.7583 57.5802C59.6025 57.835 59.1681 57.6499 58.8583 57.692C58.4642 57.7452 58.2076 57.9505 58.1966 58.3464C58.1838 58.7808 58.4587 58.9952 58.8766 59.0576C59.1827 59.1034 59.6116 58.9054 59.7674 59.1767C59.9177 59.4388 59.8298 59.8402 59.8316 60.1811C59.8371 60.9345 59.8389 61.6896 59.8316 62.4429C59.8261 62.9488 60.0185 63.3337 60.5593 63.3154C61.0578 63.2989 61.2154 62.925 61.2118 62.4466C61.1989 60.8007 61.1953 59.1565 61.2136 57.5106C61.2246 56.5556 61.7617 55.8646 62.6121 55.6245C63.3453 55.4174 64.1536 55.7125 64.6082 56.343C65.0297 56.9295 64.9583 57.5985 64.9528 58.2584C64.9509 58.4307 64.8391 58.493 64.687 58.5003C64.5275 58.5077 64.3662 58.5095 64.2068 58.5077C63.7137 58.5022 63.3123 58.658 63.3251 59.2188C63.3361 59.7357 63.7284 59.9392 64.1848 59.875C64.9069 59.7742 65.0206 60.1151 64.9711 60.7255C64.9234 61.3157 64.9601 61.9132 64.9619 62.5071C64.9656 62.9855 65.1709 63.3337 65.6786 63.3173C66.146 63.3026 66.333 62.9598 66.3385 62.5144C66.3513 61.5558 66.3238 60.5935 66.3879 59.6386C66.4393 58.8504 67.0313 58.2529 67.8011 58.0659C68.5141 57.8936 69.3628 58.2327 69.7715 58.8706C69.9181 59.0997 70.1106 59.3728 69.9915 59.6276C69.8852 59.8549 69.5772 59.7302 69.3591 59.7357C68.8844 59.7504 68.4555 59.8402 68.4536 60.4231C68.4518 61.0023 68.877 61.1672 69.3499 61.1068C70.0263 61.0206 70.1124 61.3285 70.1069 61.9096C70.0813 65.1538 70.0978 68.3999 70.0941 71.6442C70.0868 76.5968 66.6134 80.2626 61.6737 80.4184C59.0269 80.5009 56.3692 80.5155 53.7243 80.3817C49.4408 80.1673 45.9967 76.5546 45.8574 72.2674C45.8116 70.8744 45.8574 69.4795 45.8373 68.0865C45.8318 67.7419 45.9069 67.5605 46.2845 67.6191C46.3743 67.6338 46.4678 67.6191 46.5576 67.6209C47.0378 67.6283 47.3787 67.4432 47.3714 66.9189C47.3641 66.3911 47.003 66.2536 46.5319 66.2371C46.3065 66.2298 45.9344 66.4002 45.8757 66.0923C45.7969 65.6799 45.8189 65.2235 45.9197 64.8147C45.9656 64.6315 46.3321 64.7396 46.5521 64.7378C47.8773 64.7194 48.5316 64.0229 48.4583 62.7216C48.4345 62.2982 48.275 62.0049 47.8278 61.9792C47.3457 61.9499 47.1185 62.2413 47.0873 62.6886C47.0635 63.0277 47.1533 63.3741 46.5961 63.3722C45.8409 63.3686 45.7823 63.3447 45.8519 62.5896C45.9454 61.554 46.7684 60.7805 47.7545 60.8007C48.7351 60.8208 49.5288 61.5522 49.5672 62.5841C49.6167 63.9075 49.5892 65.2345 49.5947 66.5597C49.5966 66.765 49.5874 66.9721 49.6057 67.1755C49.6424 67.6008 49.8807 67.8721 50.3077 67.8629C50.6963 67.8537 50.9291 67.6008 50.9621 67.2012C50.9786 66.9959 50.9749 66.7906 50.9749 66.5853C50.9749 63.3484 50.9731 60.1041 50.9749 56.858Z" fill="#26C7BC"/>
<path d="M49.5389 47.739C44.4672 47.7427 39.3955 47.7409 34.3238 47.7555C33.686 47.7574 33.3854 47.4696 33.3854 46.8574C33.3817 43.5673 33.3817 40.2772 33.3835 36.989C33.3835 36.386 33.6456 36.067 34.2982 36.0689C42.1577 36.078 50.0154 36.0762 57.875 36.0707C58.4945 36.0707 58.7328 36.3658 58.731 36.9542C58.7255 40.2662 58.7255 43.5802 58.731 46.8922C58.7328 47.5008 58.4377 47.7647 57.8457 47.7555C57.2756 47.7464 56.7038 47.7592 56.1319 47.761C56.0989 46.7621 56.1667 45.7467 55.516 44.8705C54.8928 44.0292 54.0808 43.5618 53.0361 43.4867C52.8015 43.4702 52.3762 43.626 52.4477 43.1696C52.5137 42.748 52.0738 42.1761 52.84 41.9177C53.9232 41.5511 54.4878 40.2186 54.0808 39.1537C53.9489 38.8091 53.7106 38.6533 53.3422 38.6753C52.9829 38.6973 52.8235 38.9245 52.741 39.2343C52.7172 39.3205 52.719 39.4139 52.7135 39.5056C52.6457 40.5595 52.1966 40.8766 51.1683 40.5998C50.7926 40.499 50.7743 40.2186 50.7669 39.9052C50.7541 39.3791 50.9191 38.6863 50.0759 38.6899C49.2254 38.6936 49.4289 39.3938 49.3941 39.9143C49.3263 40.9389 49.7643 41.6244 50.7468 41.9507C50.8311 41.9782 50.9374 41.9965 50.9924 42.057C51.1573 42.2348 51.0547 43.9944 50.8476 44.1649C49.8138 45.0098 49.5095 46.1334 49.5645 47.4055C49.5664 47.5099 49.5462 47.6254 49.5389 47.739ZM38.0208 41.8975C38.0208 42.6967 38.0171 43.4958 38.0226 44.295C38.0263 44.8412 38.2811 45.151 38.8548 45.1491C39.4028 45.1473 39.9509 45.1436 40.4989 45.1565C41.4465 45.1785 42.1229 44.7496 42.5316 43.9156C42.933 43.0963 42.7974 42.3099 42.2365 41.6153C42.0276 41.3568 41.9744 41.1497 42.0532 40.8179C42.3208 39.698 41.5419 38.7119 40.3853 38.6698C39.8831 38.6514 39.3808 38.6734 38.8786 38.6698C38.2683 38.6643 38.0171 38.9905 38.0208 39.5697C38.0245 40.3451 38.0208 41.1204 38.0208 41.8975ZM43.6405 41.4833C43.6405 41.7802 43.657 42.079 43.6387 42.3741C43.5031 44.5333 44.1354 45.3123 46.4724 45.1638C47.5923 45.0923 48.298 44.6103 48.3676 43.516C48.4556 42.1523 48.4116 40.7776 48.3933 39.4084C48.3878 38.9814 48.166 38.6533 47.6693 38.6734C47.1671 38.6936 47.0296 39.0272 47.0314 39.4689C47.0351 40.4734 47.0314 41.4796 47.0314 42.4841C47.0314 43.8093 47.0314 43.7873 45.7209 43.7873C45.1802 43.7873 44.9969 43.5912 45.0079 43.0614C45.0336 41.8737 45.0116 40.686 45.0171 39.4982C45.0189 39.0235 44.8741 38.6771 44.3352 38.6734C43.7908 38.6698 43.646 39.0382 43.6405 39.4964C43.635 40.1581 43.6405 40.8216 43.6405 41.4833Z" fill="white"/>
<path d="M38.0208 41.8975C38.0208 42.6967 38.0171 43.4958 38.0226 44.295C38.0263 44.8412 38.2811 45.151 38.8548 45.1491C39.4028 45.1473 39.9509 45.1436 40.4989 45.1565C41.4465 45.1785 42.1229 44.7496 42.5316 43.9156C42.933 43.0963 42.7974 42.3099 42.2365 41.6153C42.0276 41.3568 41.9744 41.1497 42.0532 40.8179C42.3208 39.698 41.5419 38.7119 40.3853 38.6698C39.8831 38.6514 39.3808 38.6734 38.8786 38.6698C38.2683 38.6643 38.0171 38.9905 38.0208 39.5697C38.0245 40.3451 38.0208 41.1204 38.0208 41.8975Z" fill="white"/>
<path d="M43.6405 41.4833C43.6405 41.7802 43.657 42.079 43.6387 42.3741C43.5031 44.5333 44.1354 45.3123 46.4724 45.1638C47.5923 45.0923 48.298 44.6103 48.3676 43.516C48.4556 42.1523 48.4116 40.7776 48.3933 39.4084C48.3878 38.9814 48.166 38.6533 47.6693 38.6734C47.1671 38.6936 47.0296 39.0272 47.0314 39.4689C47.0351 40.4734 47.0314 41.4796 47.0314 42.4841C47.0314 43.8093 47.0314 43.7873 45.7209 43.7873C45.1802 43.7873 44.9969 43.5912 45.0079 43.0614C45.0336 41.8737 45.0116 40.686 45.0171 39.4982C45.0189 39.0235 44.8741 38.6771 44.3352 38.6734C43.7908 38.6698 43.646 39.0382 43.6405 39.4964C43.635 40.1581 43.6405 40.8216 43.6405 41.4833Z" fill="white"/>
<path d="M53.0361 43.4867C52.8015 43.4702 52.3762 43.626 52.4477 43.1696C52.5137 42.748 52.0738 42.1761 52.84 41.9177C53.9232 41.5511 54.4878 40.2186 54.0808 39.1537C53.9489 38.8091 53.7106 38.6533 53.3422 38.6753C52.9829 38.6973 52.8235 38.9245 52.741 39.2343C52.7172 39.3205 52.719 39.4139 52.7135 39.5056C52.6457 40.5595 52.1966 40.8766 51.1683 40.5998C50.7926 40.499 50.7743 40.2186 50.7669 39.9052C50.7541 39.3791 50.9191 38.6863 50.0759 38.6899C49.2254 38.6936 49.4289 39.3938 49.3941 39.9143C49.3263 40.9389 49.7643 41.6244 50.7468 41.9507C50.8311 41.9782 50.9374 41.9965 50.9924 42.057C51.1573 42.2348 51.0547 43.9944 50.8476 44.1649L53.0361 43.4867Z" fill="white"/>
<path d="M46.107 23.2825C41.171 23.2825 36.2331 23.2733 31.2971 23.2953C30.7325 23.2972 30.5419 23.167 30.5767 22.5878C30.6262 21.7447 30.5859 20.8979 30.5914 20.0511C30.6024 18.4289 31.5152 17.518 33.152 17.5143C35.4834 17.507 37.8149 17.5125 40.1464 17.5125C46.3637 17.5125 52.5791 17.5125 58.7963 17.5125C60.6934 17.5125 61.5714 18.3849 61.5751 20.2674C61.5769 20.9987 61.5292 21.7337 61.5897 22.4595C61.6429 23.1084 61.4632 23.3027 60.7814 23.299C55.8893 23.2678 50.9973 23.2825 46.107 23.2825ZM46.0356 21.061C46.9245 21.061 47.8117 21.061 48.7006 21.061C49.1735 21.061 49.5254 20.8795 49.5236 20.3645C49.5199 19.8843 49.1754 19.6918 48.7409 19.69C46.9649 19.6808 45.1888 19.6827 43.4127 19.6882C42.9764 19.69 42.6355 19.8769 42.6282 20.359C42.6208 20.8777 42.9654 21.0628 43.442 21.0628C44.3053 21.061 45.1704 21.061 46.0356 21.061Z" fill="#26C7BC"/>
<path d="M33.3589 66.5359C33.3662 63.5262 33.3735 60.5166 33.3809 57.5069C33.3827 56.3778 33.5202 56.2367 34.6236 56.2385C39.5945 56.2422 44.5672 56.2459 49.5381 56.2495C49.5381 57.4538 49.5381 58.6562 49.5381 59.9227C48.6381 59.5158 47.7638 59.2519 46.8088 59.5543C45.4415 59.9887 44.4865 61.2222 44.4664 62.6629C44.4462 64.1879 44.4462 65.7129 44.437 67.2379C43.3996 67.2379 42.364 67.2379 41.3266 67.2397C41.1946 66.655 40.7822 66.5377 40.247 66.5414C37.9522 66.5487 35.6555 66.5395 33.3589 66.5359Z" fill="white"/>
<path d="M27.924 31.9726C27.924 29.3002 27.9405 26.6278 27.9093 23.9554C27.9038 23.4074 28.0981 23.3322 28.5783 23.3267C29.0805 23.3194 29.2382 23.4385 29.2308 23.9682C29.1997 26.2282 29.295 28.4937 29.1758 30.75C29.1319 31.5584 29.0787 32.308 29.1502 33.1383C29.3481 35.4277 29.1978 37.7463 29.2327 40.0521C29.24 40.6093 28.9852 40.613 28.5765 40.6093C28.1751 40.6057 27.9056 40.6222 27.9111 40.0576C27.9405 37.3632 27.924 34.667 27.924 31.9726Z" fill="#26C7BC"/>
<path d="M62.9493 27.2398C62.9493 26.1217 62.9658 25.0018 62.9401 23.8837C62.931 23.4804 63.0208 23.2843 63.4662 23.343C63.8089 23.387 64.2213 23.2312 64.2158 23.8415C64.1994 26.1253 64.203 28.4092 64.2122 30.693C64.214 31.3235 63.7576 31.1035 63.435 31.1512C63.0501 31.2099 62.931 31.0559 62.9383 30.6655C62.9658 29.5236 62.9493 28.3817 62.9493 27.2398Z" fill="#26C7BC"/>
<path d="M44.4478 72.3003C43.4232 72.2783 43.2656 72.1189 43.2601 71.1108C43.2583 70.8835 43.2601 70.6562 43.2601 70.4289C43.2619 69.3695 43.3847 69.2357 44.4552 69.1367C44.4533 70.1925 44.4515 71.2464 44.4478 72.3003Z" fill="white"/>
<path d="M38.6355 54.0572C37.1985 54.0572 35.7633 54.048 34.3263 54.0627C33.8277 54.0682 33.4245 53.9289 33.419 53.3827C33.4135 52.8401 33.8112 52.6788 34.3098 52.6807C37.182 52.688 40.056 52.6843 42.9282 52.6825C43.4231 52.6825 43.808 52.8328 43.7933 53.401C43.7805 53.9307 43.4121 54.0609 42.9429 54.059C41.5077 54.0517 40.0725 54.0572 38.6355 54.0572Z" fill="#0E141E"/>
<path d="M36.5604 49.924C37.3339 49.924 38.1093 49.9295 38.8828 49.9222C39.3318 49.9185 39.6599 50.0762 39.6819 50.56C39.7057 51.0769 39.3795 51.2932 38.9011 51.2951C37.3303 51.3005 35.7595 51.3005 34.1887 51.2969C33.7359 51.295 33.417 51.0733 33.417 50.6132C33.417 50.1147 33.7506 49.913 34.2381 49.9204C35.0135 49.9332 35.787 49.924 36.5604 49.924Z" fill="#0E141E"/>
<path d="M35.9558 28.3287C35.9649 28.7173 35.8494 28.9134 35.6442 29.0344C35.3912 29.1847 35.0943 29.203 34.8798 28.9978C34.6122 28.743 34.4308 28.6312 34.1173 28.9611C33.8516 29.2397 33.4795 29.214 33.2027 28.9281C32.9003 28.6147 32.9443 28.2664 33.2265 27.953C33.4098 27.7495 33.606 27.5607 33.8021 27.3701C34.3391 26.8477 34.6379 26.8404 35.1749 27.3958C35.481 27.7165 35.9209 27.9475 35.9558 28.3287Z" fill="#0E141E"/>
<path d="M46.0358 21.0611C45.1707 21.0611 44.3055 21.0611 43.4404 21.0611C42.9657 21.0611 42.6192 20.876 42.6266 20.3573C42.6339 19.8752 42.9748 19.6883 43.4111 19.6864C45.1872 19.6791 46.9633 19.6791 48.7394 19.6883C49.1738 19.6901 49.5184 19.8826 49.522 20.3628C49.5257 20.8797 49.1719 21.0593 48.699 21.0593C47.8119 21.0611 46.9248 21.0611 46.0358 21.0611Z" fill="#0E141E"/>
<path d="M36.4217 70.077C36.7846 70.077 37.1494 70.066 37.5123 70.0788C37.9137 70.0935 38.1465 70.3135 38.1666 70.7149C38.1886 71.1236 37.9485 71.3986 37.5746 71.4169C36.7608 71.4572 35.9396 71.4572 35.1258 71.4059C34.7501 71.3821 34.5338 71.0833 34.5723 70.6764C34.6071 70.308 34.827 70.0972 35.1955 70.0807C35.6042 70.0642 36.0129 70.077 36.4217 70.077C36.4217 70.0789 36.4217 70.077 36.4217 70.077Z" fill="#0E141E"/>
<path d="M55.2598 29.2616C55.2579 28.7447 55.6447 28.3617 56.1634 28.369C56.6675 28.3763 57.0982 28.7979 57.0524 29.2855C57.0047 29.8042 56.6986 30.1158 56.1707 30.1488C55.663 30.1836 55.2634 29.7767 55.2598 29.2616Z" fill="#0E141E"/>
</svg>
