<svg width="98" height="98" viewBox="0 0 98 98" fill="none" xmlns="http://www.w3.org/2000/svg">
<rect width="98" height="98" rx="49" fill="#26C7BC"/>
<path d="M66.5148 21.5122C66.5148 22.198 66.572 22.8838 66.5148 23.5695C66.4767 24.1981 66.6291 24.5029 67.2958 24.3696C67.4101 24.3505 67.5244 24.3696 67.6577 24.3696C68.5911 24.4648 69.2198 25.0934 69.2579 26.0459C69.2769 26.8269 69.3531 27.6269 69.2579 28.3889C69.0674 29.9319 69.4864 31.2653 70.4579 32.4463C70.9342 33.0178 71.0675 33.6273 71.0485 34.3512C71.0104 35.3037 71.0675 36.2561 71.0104 37.1895C70.8199 39.5135 69.296 41.266 67.0291 41.7612C66.6863 41.8374 66.4958 41.9136 66.4958 42.3327C66.5148 46.2187 66.5148 50.1237 66.5339 54.0097C66.5339 58.8481 66.5339 63.7056 66.5339 68.544C66.5339 70.8108 66.5148 73.0967 66.5148 75.3635C66.5148 75.7255 66.5148 76.0874 66.4386 76.4303C66.0386 78.4495 64.4956 79.6115 62.2669 79.6305C56.3617 79.6305 50.4566 79.6305 44.5514 79.6305C44.2657 79.6305 43.9799 79.6686 43.7132 79.6876C43.3513 79.6686 43.0084 79.6305 42.6465 79.6305C40.4178 79.6305 38.1891 79.5924 35.9603 79.6305C34.4555 79.6686 33.1601 79.2305 32.1696 78.0685C31.5981 77.1541 31.3886 76.1636 31.4267 75.0778C31.4648 73.9349 31.4457 72.7919 31.4267 71.649C31.4267 71.0204 31.7124 70.7346 32.322 70.7156C32.5125 70.7156 32.703 70.7156 32.8935 70.7156C43.3704 70.7156 53.8473 70.7156 64.3242 70.7346C64.9718 70.7346 65.0861 70.5632 65.0861 69.9536C65.0671 60.8102 65.0671 51.6667 65.0861 42.5232C65.0861 42.0089 65.0099 41.7422 64.4385 41.5898C63.2955 41.285 62.4574 40.5231 61.7526 39.4944C60.9144 40.6754 59.8858 41.4946 58.4762 41.7612C56.4379 42.1422 54.7997 41.4755 53.5044 39.8754C53.333 39.6468 53.2187 39.4373 52.952 39.8182C51.3328 42.2565 47.1992 42.9613 44.7228 39.5135C43.6751 40.9612 42.3036 41.8565 40.4749 41.8565C38.6462 41.8565 37.2557 41.0183 36.1889 39.4944C35.3889 40.6183 34.3983 41.3993 33.0649 41.7422C32.6839 41.8374 32.8744 42.1803 32.8744 42.4089C32.8554 46.3711 32.8744 50.3333 32.8744 54.3145C32.8744 58.2957 32.8744 62.296 32.8744 66.2772C32.8744 66.8106 32.7601 67.2106 32.1696 67.3249C31.5219 67.2296 31.4457 66.7915 31.4457 66.2391C31.4457 62.7722 31.4457 59.3243 31.4267 55.8574C31.4267 52.7715 31.4457 49.6856 31.4457 46.6187C31.4457 45.2281 31.4457 45.2281 30.0361 45.171C29.198 45.1329 28.7598 44.7519 28.7217 43.9138C28.6836 43.0566 28.6836 42.1994 28.7027 41.3612C28.7027 40.9421 28.6075 40.6183 28.3027 40.2945C27.5026 39.4754 27.0264 38.4658 26.9883 37.3038C26.9502 36.0085 26.9502 34.6941 26.9502 33.3988C27.0264 33.2464 27.0835 33.094 27.1978 32.9606C28.4932 31.4367 28.9503 29.6842 28.7217 27.7031C28.6455 27.0555 28.7027 26.3697 28.7217 25.722C28.7598 24.8267 29.1789 24.4458 30.0552 24.4077C31.4457 24.3696 31.4457 24.3696 31.4457 22.9409C31.4457 22.2742 31.4267 21.6075 31.6362 20.9789C32.1886 19.3597 33.6173 18.3501 35.4651 18.3501C39.7511 18.3311 44.0561 18.3501 48.3421 18.3501C48.7993 18.3501 49.2374 18.312 49.6946 18.312C51.4852 18.4454 53.2949 18.3692 55.0855 18.3692C56.7237 18.3692 58.3428 18.4454 59.981 18.312C60.6477 18.3311 61.3145 18.3501 61.9621 18.3501C64.5718 18.312 65.6767 19.074 66.5148 21.5122ZM48.9136 25.7411C49.7708 25.7411 50.628 25.7411 51.4852 25.7411C55.8093 25.7411 60.1334 25.722 64.4575 25.7601C64.9909 25.7601 65.1623 25.6458 65.1242 25.0934C65.0671 24.141 65.1242 23.1885 65.1052 22.2361C65.0861 20.7693 64.0956 19.7788 62.6479 19.7407C62.0574 19.7216 61.4668 19.7407 60.8763 19.7407C52.4567 19.7407 44.018 19.7407 35.5984 19.7407C33.865 19.7407 32.9125 20.7122 32.9125 22.4266C32.9125 23.2838 32.9506 24.141 32.8935 24.9982C32.8554 25.5697 33.0078 25.7601 33.6173 25.7411C38.7034 25.722 43.8085 25.7411 48.9136 25.7411ZM49.066 72.1633C47.8469 72.1633 46.6468 72.1633 45.4277 72.1633C41.4655 72.1633 37.5033 72.1824 33.5411 72.1443C33.0078 72.1443 32.8554 72.2776 32.8744 72.811C32.9125 73.7825 32.8744 74.754 32.8935 75.7255C32.9125 76.7351 33.4078 77.478 34.3221 77.9351C34.8364 78.1828 35.3889 78.1637 35.9222 78.1637C44.6276 78.1637 53.352 78.1637 62.0574 78.1637C62.2669 78.1637 62.4764 78.1637 62.705 78.1447C64.1908 78.0304 65.0861 77.0589 65.1052 75.5731C65.1052 74.6778 65.0671 73.7634 65.1242 72.8681C65.1623 72.2776 64.9909 72.1252 64.4004 72.1252C59.2762 72.1633 54.1711 72.1633 49.066 72.1633ZM55.9046 27.1698C55.1616 27.1698 54.4378 27.1888 53.6949 27.1698C53.2758 27.1507 53.1806 27.265 53.2377 27.7031C53.4663 29.2842 53.6568 30.8462 53.8282 32.4273C53.8663 32.7511 53.9997 32.8082 54.2854 32.8082C55.0283 32.7892 55.7522 32.8082 56.4951 32.8082C57.0475 32.8082 57.638 32.8463 57.638 33.5512C57.638 34.2179 57.0665 34.256 56.5332 34.2369C55.8665 34.2179 55.1997 34.256 54.533 34.2179C54.114 34.1988 53.9425 34.2941 53.9616 34.7512C53.9997 35.5132 53.9616 36.2751 53.9806 37.0371C54.0187 38.7325 55.2569 40.104 56.9903 40.4088C58.5143 40.6754 60.2287 39.7801 60.762 38.2562C61.3145 36.6752 61.3145 34.9798 60.9144 33.4178C60.4001 31.4177 59.4667 29.5128 58.7619 27.5507C58.6286 27.2079 58.4381 27.1507 58.1142 27.1507C57.3713 27.1698 56.6284 27.1698 55.9046 27.1698ZM40.494 34.2179C39.4463 34.2179 38.3986 34.2179 37.37 34.2179C37.0652 34.2179 36.8937 34.275 36.8937 34.6369C36.9128 35.437 36.8556 36.2561 36.9128 37.0562C37.0461 39.0563 38.6653 40.5231 40.5892 40.4469C42.5322 40.3707 43.9799 38.8277 43.999 36.7895C43.999 36.1037 43.9799 35.4179 44.018 34.7322C44.0371 34.3131 43.9037 34.1988 43.5037 34.2179C42.4941 34.2369 41.5036 34.2179 40.494 34.2179ZM48.9708 34.2179C47.9421 34.2179 46.9325 34.2369 45.9039 34.2179C45.5419 34.2179 45.4086 34.3131 45.4086 34.6941C45.4277 35.4751 45.3896 36.2561 45.4277 37.0371C45.5038 38.8468 46.9325 40.3135 48.7231 40.4469C50.4566 40.5802 52.0186 39.3801 52.4186 37.6467C52.6281 36.7133 52.4567 35.7608 52.5329 34.8084C52.571 34.3512 52.4377 34.1798 51.9424 34.1988C50.9709 34.2369 49.9803 34.2179 48.9708 34.2179ZM66.0767 34.2179C65.048 34.2179 64.0384 34.2369 63.0098 34.2179C62.6098 34.2179 62.4574 34.3131 62.4764 34.7322C62.5145 35.5132 62.4764 36.2942 62.4955 37.0752C62.5717 38.942 64.0956 40.4278 65.9624 40.4469C67.7911 40.485 69.3721 39.0753 69.5245 37.2466C69.6007 36.3894 69.5436 35.5322 69.5626 34.675C69.5817 34.2941 69.4293 34.1988 69.0674 34.1988C68.0768 34.2369 67.0863 34.2179 66.0767 34.2179ZM31.9791 34.2179C30.9505 34.2179 29.9409 34.2369 28.9122 34.2179C28.5694 34.2179 28.3789 34.275 28.3979 34.675C28.436 35.5322 28.3789 36.3894 28.436 37.2466C28.5884 39.1134 30.1885 40.5231 32.0553 40.4659C33.884 40.4088 35.3889 38.942 35.4651 37.1133C35.5032 36.3323 35.4651 35.5513 35.4841 34.7703C35.5032 34.3703 35.3698 34.2369 34.9698 34.2369C33.9602 34.2369 32.9697 34.2179 31.9791 34.2179ZM48.9327 32.7892C49.9613 32.7892 50.9709 32.7701 51.9995 32.7892C52.3615 32.7892 52.4567 32.6939 52.3996 32.3511C52.19 30.77 51.9805 29.208 51.79 27.6269C51.7519 27.2841 51.6186 27.1507 51.2566 27.1507C49.7708 27.1698 48.2659 27.1698 46.7801 27.1507C46.3991 27.1507 46.2277 27.265 46.1896 27.646C45.9991 29.208 45.8086 30.751 45.5991 32.2939C45.5419 32.6559 45.6372 32.7892 46.0372 32.7892C46.9897 32.7701 47.9612 32.7892 48.9327 32.7892ZM37.2366 32.7892C39.4653 32.7892 41.6179 32.7892 43.7704 32.7892C43.999 32.7892 44.0942 32.713 44.1323 32.4654C44.3228 30.8272 44.5324 29.1699 44.7419 27.5317C44.799 27.1507 44.5895 27.1507 44.3419 27.1507C42.8179 27.1507 41.3131 27.1507 39.7892 27.1507C39.5796 27.1507 39.3701 27.1317 39.2748 27.3983C38.6272 29.1889 37.9414 30.9414 37.2366 32.7892ZM28.9884 32.7892C31.1791 32.7892 33.2173 32.7892 35.2555 32.7892C35.5984 32.7892 35.7508 32.6749 35.8651 32.3701C36.4556 30.7891 37.0461 29.227 37.6557 27.665C37.789 27.3031 37.7509 27.1507 37.3319 27.1698C35.8651 27.1888 34.3793 27.1698 32.9125 27.1698C32.6839 27.1698 32.5125 27.2079 32.3791 27.4174C31.2933 29.1699 30.1695 30.9224 28.9884 32.7892ZM68.9912 32.7892C67.8101 30.9414 66.7243 29.227 65.6386 27.4936C65.5243 27.3031 65.41 27.1507 65.1433 27.1507C63.5051 27.1507 61.8669 27.1507 60.1334 27.1507C60.8382 28.9985 61.5049 30.77 62.1717 32.5416C62.2288 32.713 62.3621 32.7892 62.5526 32.7892C64.648 32.7892 66.7624 32.7892 68.9912 32.7892ZM30.1314 41.6088C30.1314 42.2184 30.1314 42.828 30.1314 43.4375C30.1314 43.8947 30.4933 43.7233 30.7028 43.7042C30.9505 43.6852 31.3314 43.9328 31.4457 43.4566C31.7124 42.1803 31.4838 41.8374 30.1314 41.6088ZM30.1314 28.027C30.1695 28.046 30.2266 28.046 30.2647 28.0651C30.6076 27.5126 30.9505 26.9602 31.3124 26.4269C31.4267 26.2554 31.5219 26.0078 31.3886 25.9125C31.1029 25.6839 30.7028 25.8554 30.36 25.8173C30.1695 25.7982 30.1123 25.9316 30.1123 26.084C30.1314 26.7316 30.1314 27.3793 30.1314 28.027ZM67.6958 28.0651C67.7339 28.046 67.7911 28.027 67.8292 28.0079C67.8292 27.4174 67.8292 26.8269 67.8292 26.2364C67.8292 26.0268 67.7911 25.8173 67.5625 25.8173C67.2196 25.8173 66.8386 25.6458 66.572 25.9125C66.4196 26.0649 66.572 26.3126 66.6862 26.484C67.0101 27.0174 67.353 27.5317 67.6958 28.0651Z" fill="#0E141E"/>
<path d="M48.9893 50.619C48.3797 50.619 47.7511 50.6381 47.1415 50.619C46.3796 50.6 45.8843 50.1428 45.8843 49.3618C45.8653 48.1236 45.8462 46.8854 45.8843 45.6663C45.9033 44.8853 46.3796 44.4472 47.1606 44.4281C48.3988 44.4091 49.6369 44.4091 50.8561 44.4281C51.6371 44.4472 52.0943 44.8853 52.1133 45.6663C52.1514 46.9045 52.1514 48.1426 52.1133 49.3618C52.0943 50.1237 51.599 50.5809 50.837 50.6C50.2084 50.6381 49.5988 50.619 48.9893 50.619Z" fill="white"/>
<path d="M57.4855 60.677C58.095 60.677 58.7237 60.677 59.3332 60.677C60.019 60.677 60.4952 61.0199 60.5524 61.7056C60.6857 63.0772 60.6857 64.4487 60.5524 65.8202C60.4762 66.506 60.019 66.8489 59.3332 66.8679C58.095 66.8679 56.8569 66.887 55.6377 66.8679C54.8377 66.8489 54.3995 66.4298 54.3805 65.6297C54.3614 64.3915 54.3614 63.1724 54.3805 61.9342C54.3995 61.1342 54.8377 60.7341 55.6187 60.677C55.6568 60.677 55.7139 60.677 55.752 60.677C56.3425 60.677 56.914 60.677 57.4855 60.677Z" fill="white"/>
<path d="M40.4359 50.619C39.8454 50.619 39.2549 50.6381 38.6644 50.619C37.9215 50.6 37.4833 50.2571 37.4071 49.5332C37.2738 48.1808 37.2738 46.8283 37.4071 45.4949C37.4643 44.8091 37.9215 44.4472 38.6072 44.4472C39.8644 44.4472 41.1217 44.4281 42.3789 44.4472C43.1218 44.4662 43.5599 44.9044 43.579 45.6663C43.598 46.9045 43.598 48.1236 43.579 49.3618C43.5599 50.1809 43.1218 50.6 42.2837 50.6381C41.6741 50.619 41.0455 50.619 40.4359 50.619Z" fill="white"/>
<path d="M57.5236 44.4089C58.1141 44.4089 58.7046 44.3898 59.3142 44.4089C60.0952 44.447 60.5714 44.847 60.5904 45.647C60.6285 46.9043 60.6285 48.1615 60.5904 49.4187C60.5714 50.1616 60.1142 50.5998 59.3523 50.6188C58.095 50.6569 56.8378 50.6569 55.5806 50.6188C54.8377 50.5998 54.3995 50.1426 54.3805 49.3806C54.3614 48.1234 54.3614 46.8662 54.3805 45.6089C54.3995 44.866 54.8567 44.447 55.5996 44.4089C56.2473 44.3898 56.895 44.4089 57.5236 44.4089ZM57.4855 45.8375C55.8092 45.8375 55.8092 45.8375 55.8092 47.5138C55.8092 49.1901 55.8092 49.1901 57.4855 49.1901C59.1808 49.1901 59.1808 49.1901 59.1808 47.5138C59.1808 45.8375 59.1808 45.8375 57.4855 45.8375Z" fill="#0E141E"/>
<path d="M40.5125 60.6576C41.122 60.6576 41.7506 60.6386 42.3602 60.6576C43.1031 60.6957 43.5603 61.1339 43.5793 61.8768C43.5984 63.134 43.5984 64.3912 43.5793 65.6485C43.5603 66.3914 43.1222 66.8485 42.3602 66.8676C41.103 66.9057 39.8458 66.9057 38.5885 66.8676C37.8456 66.8485 37.3884 66.4104 37.3694 65.6485C37.3313 64.3912 37.3313 63.134 37.3694 61.8768C37.3884 61.0958 37.8647 60.6767 38.6647 60.6576C39.2933 60.6576 39.9029 60.6576 40.5125 60.6576ZM42.1697 63.7817C42.1697 62.0863 42.1697 62.0863 40.4934 62.0863C38.7981 62.0863 38.7981 62.0863 38.7981 63.7626C38.7981 65.458 38.7981 65.458 40.4744 65.458C42.1697 65.458 42.1697 65.458 42.1697 63.7817Z" fill="#0E141E"/>
<path d="M54.3604 55.6478C54.3604 55.0573 54.3413 54.4668 54.3604 53.8572C54.3794 53.0191 54.7985 52.5619 55.6176 52.5429C56.8558 52.5238 58.0939 52.5238 59.3131 52.5429C60.0941 52.5619 60.5513 53 60.5703 53.8001C60.6084 55.0383 60.6084 56.2764 60.5703 57.4956C60.5513 58.3147 60.075 58.7338 59.2369 58.7528C58.0558 58.7718 56.8558 58.7718 55.6747 58.7528C54.7985 58.7338 54.3794 58.2956 54.3413 57.4194C54.3604 56.8289 54.3604 56.2383 54.3604 55.6478ZM57.4844 53.9525C55.789 53.9525 55.789 53.9525 55.789 55.6288C55.789 57.3241 55.789 57.3241 57.4653 57.3241C59.1607 57.3241 59.1607 57.3241 59.1607 55.6478C59.1797 53.9525 59.1797 53.9525 57.4844 53.9525Z" fill="#0E141E"/>
<path d="M43.5989 55.6289C43.5989 56.2385 43.6179 56.8671 43.5989 57.4767C43.5798 58.2577 43.1417 58.7339 42.3607 58.7529C41.1035 58.772 39.8462 58.772 38.589 58.7529C37.8842 58.7339 37.408 58.3148 37.3889 57.591C37.3508 56.3147 37.3508 55.0194 37.3889 53.7431C37.408 53.0002 37.8651 52.562 38.6271 52.543C39.8843 52.5239 41.1416 52.5049 42.3988 52.543C43.1417 52.562 43.5608 53.0192 43.5989 53.7812C43.6179 54.3907 43.5989 55.0003 43.5989 55.6289ZM40.4368 57.3243C42.1702 57.3243 42.1702 57.3243 42.1702 55.6289C42.1702 53.9526 42.1702 53.9526 40.4748 53.9526C38.7985 53.9526 38.7985 53.9526 38.7985 55.648C38.7985 57.3243 38.7985 57.3243 40.4368 57.3243Z" fill="#0E141E"/>
<path d="M49.028 52.5238C49.6185 52.5238 50.209 52.5048 50.7995 52.5238C51.6377 52.5619 52.0948 53.0191 52.1139 53.8763C52.1329 55.0574 52.1329 56.2384 52.1139 57.4385C52.0948 58.2576 51.6377 58.7338 50.8376 58.7528C49.5994 58.7719 48.3803 58.7719 47.1421 58.7528C46.3421 58.7338 45.8849 58.2576 45.8658 57.4385C45.8468 56.2574 45.8468 55.0764 45.8658 53.8763C45.8849 53.0191 46.3421 52.581 47.1802 52.5238C47.2183 52.5238 47.2755 52.5238 47.3136 52.5238C47.885 52.5238 48.4565 52.5238 49.028 52.5238ZM48.9137 57.3432C49.4851 57.3242 50.209 57.4956 50.5709 57.2099C50.9519 56.9051 50.6852 56.1431 50.6852 55.5717C50.7043 53.9335 50.6852 53.9335 49.028 53.9335C47.2945 53.9335 47.2945 53.9335 47.2945 55.6288C47.2755 57.3242 47.2755 57.3242 48.9137 57.3432Z" fill="#0E141E"/>
<path d="M45.8454 63.7438C45.8454 63.1532 45.8263 62.5627 45.8454 61.9722C45.8644 61.1722 46.3407 60.6959 47.1407 60.6769C48.3789 60.6578 49.598 60.6578 50.8362 60.6769C51.5982 60.6959 52.0744 61.1722 52.0934 61.9341C52.1125 63.1723 52.1125 64.3914 52.0934 65.6296C52.0744 66.3916 51.6172 66.8678 50.8362 66.8868C49.579 66.9249 48.3217 66.9249 47.0645 66.8868C46.3026 66.8678 45.8644 66.3725 45.8454 65.5915C45.8454 64.9819 45.8454 64.3533 45.8454 63.7438ZM48.9313 65.4963C49.5028 65.4582 50.2266 65.6487 50.5695 65.3439C50.9314 65.0391 50.6838 64.2771 50.6838 63.7057C50.7029 62.0865 50.6838 62.0675 49.0075 62.0865C48.4551 62.0865 47.7122 61.8198 47.3883 62.2008C47.1217 62.5246 47.2931 63.2294 47.2931 63.7819C47.274 65.4582 47.2741 65.4582 48.9313 65.4963Z" fill="#0E141E"/>
<path d="M48.9133 25.741C43.8082 25.741 38.7031 25.722 33.598 25.7601C32.9884 25.7601 32.836 25.5887 32.8741 25.0172C32.9313 24.16 32.8932 23.3028 32.8932 22.4456C32.8932 20.7121 33.8456 19.7597 35.5791 19.7597C43.9987 19.7597 52.4374 19.7597 60.857 19.7597C61.4475 19.7597 62.038 19.7406 62.6285 19.7597C64.0763 19.7978 65.0668 20.7883 65.0859 22.2551C65.1049 23.2075 65.0478 24.16 65.1049 25.1124C65.124 25.6649 64.9716 25.7791 64.4382 25.7791C60.1141 25.7601 55.79 25.7601 51.4659 25.7601C50.6087 25.741 49.7705 25.741 48.9133 25.741ZM48.9514 23.4361C49.8277 23.4361 50.7039 23.4361 51.5802 23.4361C52.0945 23.4361 52.5707 23.3409 52.5517 22.6932C52.5326 22.0837 52.0945 22.0075 51.5992 22.0075C49.8467 22.0075 48.0942 22.0075 46.3417 22.0075C45.8464 22.0075 45.4083 22.1027 45.3893 22.7123C45.3702 23.3218 45.8083 23.4361 46.3036 23.4552C47.1989 23.4552 48.0752 23.4361 48.9514 23.4361Z" fill="white"/>
<path d="M55.9038 27.1699C56.6467 27.1699 57.3706 27.189 58.1135 27.1699C58.4373 27.1699 58.6278 27.2271 58.7611 27.5699C59.485 29.532 60.3993 31.4178 60.9137 33.437C61.3137 34.999 61.3327 36.6944 60.7613 38.2754C60.2279 39.7994 58.5135 40.6947 56.9896 40.428C55.2561 40.1232 54.037 38.7517 53.9799 37.0563C53.9608 36.2944 53.9989 35.5324 53.9608 34.7704C53.9418 34.3133 54.1132 34.218 54.5323 34.2371C55.199 34.2752 55.8657 34.2371 56.5324 34.2561C57.0658 34.2752 57.6182 34.2371 57.6372 33.5704C57.6372 32.8655 57.0658 32.8275 56.4943 32.8275C55.7514 32.8465 55.0275 32.8275 54.2846 32.8275C53.9989 32.8275 53.8656 32.7703 53.8275 32.4465C53.656 30.8654 53.4655 29.2844 53.2369 27.7223C53.1798 27.3033 53.2941 27.189 53.6941 27.189C54.418 27.189 55.1609 27.1699 55.9038 27.1699Z" fill="white"/>
<path d="M40.4936 34.218C41.4841 34.218 42.4937 34.2371 43.4843 34.218C43.8843 34.199 44.0176 34.3323 43.9986 34.7323C43.9605 35.4181 43.9986 36.1039 43.9796 36.7896C43.9605 38.8279 42.5128 40.3708 40.5698 40.447C38.6649 40.5232 37.0648 39.0564 36.9124 37.0563C36.8553 36.2563 36.9124 35.4372 36.8934 34.6371C36.8743 34.2752 37.0457 34.199 37.3696 34.218C38.4173 34.218 39.465 34.218 40.4936 34.218Z" fill="white"/>
<path d="M48.9702 34.2177C49.9607 34.2177 50.9703 34.2368 51.9608 34.1987C52.4371 34.1796 52.5704 34.3511 52.5514 34.8082C52.4752 35.7607 52.6466 36.7131 52.4371 37.6465C52.0561 39.38 50.475 40.561 48.7416 40.4467C46.951 40.3134 45.5223 38.8657 45.4461 37.037C45.408 36.256 45.4652 35.475 45.4271 34.694C45.408 34.313 45.5414 34.2177 45.9223 34.2177C46.9319 34.2368 47.9606 34.2177 48.9702 34.2177Z" fill="white"/>
<path d="M66.0763 34.218C67.0668 34.218 68.0764 34.2371 69.067 34.218C69.4289 34.218 69.5813 34.3133 69.5622 34.6942C69.5241 35.5514 69.5813 36.4086 69.5241 37.2658C69.3717 39.0945 67.7907 40.4851 65.962 40.4661C64.0952 40.428 62.5713 38.9612 62.4951 37.0944C62.457 36.3134 62.5141 35.5324 62.476 34.7514C62.457 34.3323 62.6284 34.2371 63.0094 34.2371C64.038 34.2371 65.0667 34.218 66.0763 34.218Z" fill="white"/>
<path d="M31.9786 34.2178C32.9692 34.2178 33.9788 34.2368 34.9693 34.2178C35.3884 34.1987 35.5027 34.3511 35.4836 34.7511C35.4455 35.5131 35.4836 36.2941 35.4646 37.0941C35.3884 38.9228 33.8835 40.3896 32.0548 40.4468C30.2071 40.5039 28.5879 39.0943 28.4355 37.2275C28.3593 36.3703 28.4165 35.5131 28.3974 34.6559C28.3784 34.2559 28.5689 34.1797 28.9117 34.1987C29.9213 34.2368 30.95 34.2178 31.9786 34.2178Z" fill="white"/>
<path d="M48.9317 32.7894C47.9602 32.7894 46.9887 32.7704 46.0172 32.7894C45.6171 32.8085 45.5409 32.6561 45.579 32.2941C45.7886 30.7512 45.9791 29.1892 46.1696 27.6462C46.2077 27.2652 46.3791 27.1319 46.7601 27.1509C48.2459 27.17 49.7508 27.17 51.2366 27.1509C51.5985 27.1509 51.7318 27.2843 51.7699 27.6272C51.9604 29.2082 52.1509 30.7702 52.3795 32.3513C52.4176 32.6942 52.3224 32.8085 51.9795 32.7894C50.9699 32.7704 49.9412 32.7894 48.9317 32.7894Z" fill="white"/>
<path d="M37.2363 32.7894C37.9411 30.9417 38.6269 29.1892 39.2746 27.4176C39.3698 27.1509 39.5793 27.17 39.7889 27.17C41.3128 27.17 42.8177 27.17 44.3416 27.17C44.6083 27.17 44.7988 27.17 44.7416 27.551C44.513 29.1892 44.3225 30.8464 44.132 32.4846C44.0939 32.7323 43.9987 32.8085 43.7701 32.8085C41.6366 32.7894 39.4841 32.7894 37.2363 32.7894Z" fill="white"/>
<path d="M28.9878 32.7894C30.1688 30.9226 31.2927 29.1701 32.3976 27.4176C32.5309 27.189 32.7023 27.1699 32.9309 27.1699C34.3977 27.1699 35.8835 27.189 37.3503 27.1699C37.7884 27.1699 37.8265 27.3033 37.6741 27.6652C37.0645 29.2272 36.474 30.8083 35.8835 32.3703C35.7692 32.6941 35.6168 32.8084 35.2739 32.7894C33.2167 32.7894 31.1784 32.7894 28.9878 32.7894Z" fill="white"/>
<path d="M68.9901 32.7891C66.7614 32.7891 64.6469 32.7891 62.5515 32.7891C62.3611 32.7891 62.2468 32.7129 62.1706 32.5415C61.5038 30.7699 60.8371 29.0174 60.1323 27.1506C61.8848 27.1506 63.523 27.1506 65.1422 27.1506C65.4089 27.1506 65.5232 27.303 65.6375 27.4935C66.7233 29.227 67.809 30.9414 68.9901 32.7891Z" fill="white"/>
<path d="M48.9514 23.4362C48.0752 23.4362 47.1989 23.4362 46.3227 23.4362C45.8274 23.4362 45.3893 23.3029 45.4083 22.6933C45.4274 22.0838 45.8655 21.9885 46.3608 21.9885C48.1133 21.9885 49.8658 21.9885 51.6183 21.9885C52.1135 21.9885 52.5517 22.0647 52.5707 22.6743C52.5898 23.3219 52.0945 23.4172 51.5992 23.4172C50.7039 23.4362 49.8277 23.4362 48.9514 23.4362Z" fill="#0E141E"/>
<path d="M48.9511 76.678C48.2653 76.678 47.5796 76.678 46.8938 76.678C46.3795 76.678 46.1128 76.4113 46.0938 75.8779C46.0938 75.3255 46.0938 74.7922 46.0938 74.2397C46.0938 73.7064 46.3795 73.4778 46.8938 73.4778C48.2653 73.4778 49.6369 73.4778 51.0084 73.4778C51.5608 73.4778 51.8465 73.7254 51.8465 74.2969C51.8465 74.8112 51.8465 75.3446 51.8465 75.8589C51.8465 76.4113 51.5608 76.678 51.0084 76.678C50.3417 76.678 49.6368 76.678 48.9511 76.678Z" fill="white"/>
<path d="M38.9503 74.3733C39.3122 74.3733 39.6551 74.3733 40.0171 74.3733C40.4742 74.3733 40.7409 74.6019 40.76 75.04C40.779 75.4972 40.5123 75.7639 40.0742 75.7829C39.2932 75.802 38.5122 75.802 37.7312 75.7829C37.2931 75.7639 37.0073 75.5162 37.0073 75.0591C37.0073 74.6209 37.2931 74.3733 37.7312 74.3542C38.1503 74.3542 38.5503 74.3733 38.9503 74.3733Z" fill="#0E141E"/>
<path d="M59.1038 74.3732C59.4848 74.3732 59.8658 74.3542 60.2468 74.3732C60.6658 74.3923 60.9135 74.6208 60.9516 75.0209C60.9897 75.44 60.723 75.7447 60.342 75.7638C59.4848 75.8209 58.6467 75.8019 57.7895 75.7638C57.3894 75.7447 57.1608 75.4209 57.1989 75.0209C57.218 74.6399 57.4466 74.3923 57.8276 74.3732C58.2657 74.3542 58.6848 74.3732 59.1038 74.3732Z" fill="#0E141E"/>
</svg>
