<svg width="98" height="98" viewBox="0 0 98 98" fill="none" xmlns="http://www.w3.org/2000/svg">
<rect width="98" height="98" rx="49" fill="#26C7BC"/>
<path d="M30.1617 53.5755C30.4965 53.0175 30.353 52.5552 29.9226 52.0929C27.2921 49.2871 24.6936 46.4653 22.0791 43.6595C21.9834 43.5479 21.8718 43.4363 21.7603 43.3088C21.9356 43.1653 22.095 43.2291 22.2385 43.2291C27.6269 43.2291 33.0153 43.2291 38.4038 43.2131C38.8342 43.2131 39.0096 43.3407 39.1371 43.7392C41.7516 52.4755 45.398 63.1958 48.0284 71.932C48.0922 72.1233 48.1878 72.2987 48.1081 72.5059C47.9168 72.49 47.853 72.3306 47.7574 72.219C46.227 70.5769 42.7125 66.919 41.1661 65.2929C40.911 65.0219 40.8313 64.8943 41.2458 64.6871C42.027 64.2726 42.0429 63.332 41.2139 63.0451C39.5559 62.4871 39.7748 61.2914 39.3443 59.7132C39.2646 59.4262 39.1212 59.1552 39.0096 58.8842C38.8661 58.5175 38.5791 58.3103 38.1965 58.2943C37.782 58.2784 37.4951 58.5175 37.3197 58.9001C36.969 59.6813 36.953 59.6813 36.3632 59.0436C35.311 57.9117 34.2429 56.7798 33.2066 55.632C32.7762 55.1537 32.3298 54.9943 31.74 55.2813C31.1342 54.803 30.6081 54.2132 30.1617 53.5755Z" fill="white"/>
<path d="M73.5691 47.1905C72.99 46.8775 72.5518 47.0496 72.1293 47.5191C70.9711 48.7868 69.7523 50.4145 68.5941 51.6821C68.4533 51.8387 68.3281 51.9952 68.1246 52.2299C67.7177 51.2283 67.3578 50.3519 67.0135 49.4754C66.8413 49.0372 66.6065 48.7086 66.1057 48.7086C65.6049 48.7086 65.3702 49.0529 65.198 49.4754C64.9163 50.2423 65.074 50.9153 64.7767 51.6821C64.6202 52.1047 64.4149 52.0421 63.9923 52.2299C63.5228 52.4334 63.0689 52.6681 62.6307 52.9185C61.8951 53.3254 61.8951 54.1236 62.6307 54.5305C63.1628 54.8279 63.7106 55.0626 64.2427 55.36C64.7748 55.6573 64.8061 55.8921 64.4305 56.299C60.2675 60.7907 54.88 66.6641 50.717 71.1558C50.6231 71.2653 50.5448 71.4218 50.3101 71.4218C50.7483 69.982 51.1708 68.5578 51.5934 67.1493C53.8001 59.8249 56.4574 50.738 58.6641 43.4136C58.7893 42.991 58.9458 42.8345 59.3997 42.8345C64.6738 42.8502 71.1058 42.4451 76.38 42.4451C76.5365 42.4451 77.1209 42.0056 76.8965 42.4451C76.5208 43.1807 75.0584 44.0449 75.7626 45.1405C75.3088 45.7352 74.1482 46.674 73.5691 47.1905Z" fill="white"/>
<path d="M60.1767 29.8306C60.3293 30.5933 60.6005 30.8306 61.3802 30.8306C63.1091 30.8306 64.8381 30.8306 66.7026 30.8306C63.9058 34.4241 61.1768 37.9497 58.3969 41.5093C55.6341 37.9497 52.9051 34.441 50.0913 30.8306C51.1931 30.8306 52.1762 30.8306 53.1424 30.8306C54.2272 30.8306 55.295 30.8306 56.3799 30.8306C57.2104 30.8306 57.4477 30.6442 57.6681 29.8306C58.5156 29.8306 59.3462 29.8306 60.1767 29.8306Z" fill="#C0F9F5"/>
<path d="M57.2615 43.3248C54.5383 52.3707 51.7995 61.4167 49.0607 70.4939C48.8259 70.3687 48.8259 70.1339 48.779 69.9461C46.1654 61.3071 43.5518 52.6681 40.9538 44.0291C40.9068 43.9039 40.8755 43.763 40.8286 43.6378C40.7347 43.3718 40.7973 43.2622 41.1103 43.2622C46.4471 43.2779 51.7995 43.2779 57.1363 43.2779C57.1519 43.2935 57.1676 43.3092 57.2615 43.3248Z" fill="#C0F9F5"/>
<path d="M76.6228 41.7752C70.9652 41.7752 65.391 41.7752 59.8002 41.7752C59.7168 41.5917 59.8837 41.5249 59.9504 41.4081C62.4705 38.1537 64.9905 34.8993 67.5105 31.6617C67.6941 31.428 67.7943 31.161 68.128 31.5782C70.8484 34.8827 73.6021 38.1537 76.3557 41.4415C76.4392 41.5249 76.506 41.625 76.6228 41.7752Z" fill="white"/>
<path d="M57.335 41.9581C51.7474 41.9581 46.279 41.9581 40.8106 41.9581C40.7424 41.7537 40.9128 41.6515 41.015 41.5322C43.5533 38.2444 46.1256 34.9736 48.6469 31.6687C48.9535 31.2769 49.0728 31.2428 49.3965 31.6517C51.9347 34.9395 54.4901 38.2274 57.0284 41.4982C57.1135 41.6345 57.1987 41.7537 57.335 41.9581Z" fill="white"/>
<path d="M39.5491 41.4624C38.322 39.8847 37.1475 38.3772 35.973 36.8521C35.0966 35.7127 34.2025 34.5732 33.3261 33.4338C32.8352 32.8027 32.8002 32.2944 33.4663 31.8386C34.5006 31.1374 35.5348 30.3836 36.8846 30.4012C40.373 30.4187 43.8789 30.4012 47.3673 30.4012C47.5777 30.4012 47.788 30.4012 48.1386 30.4012C45.2462 34.135 42.424 37.7461 39.5491 41.4624Z" fill="#C0F9F5"/>
<path d="M29.1535 32.6826C29.6543 33.9033 30.1238 35.0615 30.5777 36.2196C30.7498 36.6578 30.969 36.9865 31.4854 37.0021C31.9862 37.0021 32.2523 36.6891 32.4088 36.2509C32.5183 35.9222 32.6748 35.6249 32.8313 35.2023C34.459 37.2995 36.0553 39.3497 37.6986 41.4625C32.3775 41.4625 27.1346 41.4625 21.8135 41.4625C24.2549 38.5359 26.6807 35.6405 29.1535 32.6826Z" fill="#26C7BC"/>
<path d="M30.2334 53.4349C29.5135 53.8262 29.2787 53.7949 28.7153 53.1845C25.6165 49.851 22.5334 46.5174 19.4346 43.1839C18.8712 42.5736 18.8556 42.2605 19.3877 41.6189C22.0482 38.4262 24.7088 35.2335 27.3694 32.0565C27.6511 31.7278 27.6824 31.5713 27.2442 31.4305C26.9468 31.3209 26.6808 31.1644 26.4147 31.0079C25.6791 30.5854 25.6791 29.8028 26.4147 29.3959C27.0251 29.0516 27.6511 28.7543 28.2928 28.4569C28.7936 28.2221 29.1222 27.8465 29.3257 27.3301C29.7326 26.2659 30.1864 25.2016 30.5934 24.1374C30.7499 23.7148 31.0159 23.4175 31.4854 23.4175C31.9549 23.4175 32.2053 23.7148 32.3775 24.1374C32.7844 25.2016 33.2383 26.2659 33.6452 27.3301C33.8486 27.8465 34.1929 28.1752 34.6781 28.4569C35.8049 29.1455 37.01 29.349 38.3403 29.349C44.4283 29.302 50.5163 29.3333 56.6043 29.3177C57.246 29.3177 57.6685 29.5055 57.8094 30.1628C57.6216 30.914 57.4025 31.0862 56.6199 31.0862C55.6183 31.0862 54.6324 31.0862 53.6307 31.0862C52.723 31.0862 51.8153 31.0862 50.8137 31.0862C53.396 34.4197 55.9157 37.6593 58.4823 40.9459C61.0334 37.6593 63.5687 34.4041 66.151 31.0862C64.4295 31.0862 62.8332 31.0862 61.2368 31.0862C60.5169 31.0862 60.2665 30.8671 60.1256 30.1628C60.2352 29.5681 60.5951 29.3177 61.1899 29.3177C63.3809 29.3333 65.5563 29.3333 67.7474 29.3177C68.1543 29.3177 68.4516 29.4272 68.7177 29.7402C72.0669 33.7467 75.4161 37.7689 78.7652 41.7754C78.8435 41.8849 78.9217 41.9945 79 42.0884C79 42.2762 79 42.4797 79 42.6675C78.1549 43.5908 77.3254 44.5142 76.4803 45.4219C76.0734 45.8601 75.6195 45.7819 75.1657 45.4845C74.4614 44.4046 75.6352 43.9977 76.0264 43.2465C75.8073 43.2465 75.6508 43.2465 75.51 43.2465C70.2358 43.2465 64.9773 43.2465 59.7031 43.2309C59.2336 43.2309 59.0927 43.3874 58.9675 43.8099C56.7765 51.1343 54.5541 58.4587 52.3317 65.7831C51.9092 67.2073 51.4866 68.6158 51.0484 70.0556C51.2988 70.0556 51.3614 69.8991 51.4553 69.7896C55.634 65.2979 59.797 60.8063 63.96 56.3146C64.3356 55.9077 64.3043 55.6729 63.7722 55.3756C63.2401 55.0782 62.6923 54.8435 62.1602 54.5461C61.4246 54.1392 61.4246 53.341 62.1602 52.9341C62.5984 52.6837 63.0523 52.4646 63.5218 52.2455C63.9443 52.0577 64.1947 51.7603 64.3512 51.3221C64.6329 50.5552 64.9616 49.804 65.259 49.0372C65.4311 48.599 65.6659 48.2703 66.1667 48.2703C66.6675 48.2703 66.9022 48.599 67.0744 49.0372C67.4187 49.9136 67.7787 50.79 68.1856 51.7916C68.3734 51.5569 68.5142 51.4004 68.6551 51.2439C69.8132 49.9762 71.0027 48.7398 72.1451 47.4565C72.5677 46.987 73.0059 46.8148 73.585 47.1278C74.0075 47.7851 73.9919 48.0668 73.4598 48.6303C72.2234 49.9605 70.987 51.2908 69.735 52.6524C69.7976 52.6994 69.8445 52.762 69.9071 52.7776C70.3297 52.9811 70.7053 53.2002 70.6896 53.7479C70.674 54.2644 70.2984 54.5304 69.8915 54.6557C68.5925 55.0782 67.8256 55.939 67.497 57.2536C67.3874 57.6762 67.184 58.0831 67.0118 58.5056C66.8553 58.8969 66.6049 59.163 66.1354 59.163C65.6815 59.163 65.4311 58.8969 65.2746 58.5056C65.1807 58.2865 65.0868 58.0518 64.9616 57.7701C63.8348 58.9908 62.7393 60.1489 61.6594 61.3227C57.7468 65.5327 53.8342 69.7583 49.9216 73.9839C49.186 74.782 48.7948 74.782 48.0592 73.9839C45.649 71.4016 43.2545 68.8036 40.86 66.2213C40.6409 65.9865 40.4062 65.7361 40.1244 65.4388C39.7488 66.3621 39.3889 67.2386 39.0446 68.115C38.8724 68.5688 38.6533 68.9445 38.1212 68.9601C37.5891 68.9601 37.3543 68.5845 37.1822 68.1463C36.8848 67.3794 36.5562 66.6282 36.2744 65.8613C36.1179 65.4544 35.8675 65.1727 35.4763 65.0006C35.0381 64.8128 34.6155 64.5623 34.1773 64.3432C33.8173 64.1711 33.5669 63.8894 33.5826 63.4825C33.5826 63.0756 33.833 62.8095 34.2086 62.6373C34.6938 62.4026 35.1946 62.1678 35.6641 61.9018C36.2901 61.5575 36.3214 61.3227 35.8519 60.8219C34.5373 59.4134 33.2226 57.9892 31.908 56.5806C31.3915 56.0172 31.3759 55.7355 31.7984 55.0939C32.3775 54.7965 32.8157 54.953 33.2383 55.4382C34.2555 56.565 35.3041 57.6762 36.337 58.7874C36.9161 59.4134 36.9318 59.4134 37.2761 58.6465C37.4482 58.2709 37.7299 58.0518 38.1368 58.0518C38.5125 58.0518 38.7942 58.2709 38.935 58.6308C39.0446 58.8969 39.1854 59.163 39.2637 59.4447C39.6706 60.9941 40.4531 62.1522 42.0807 62.7156C42.8946 62.9973 42.8789 63.9207 42.112 64.3276C41.7051 64.5467 41.7834 64.6562 42.0338 64.9223C43.5362 66.5343 45.0387 68.1463 46.5411 69.7583C46.635 69.8678 46.7133 70.0243 46.8854 70.04C46.9637 69.8365 46.8541 69.6644 46.8072 69.4766C44.2248 60.9158 41.6425 52.3394 39.0602 43.763C38.935 43.3561 38.7629 43.2309 38.3403 43.2465C33.0505 43.2622 27.7606 43.2622 22.4708 43.2622C22.33 43.2622 22.1735 43.1996 22.0013 43.3404C22.1108 43.4656 22.2048 43.5752 22.3143 43.6847C24.8653 46.4548 27.4163 49.225 29.9986 51.9638C30.4212 52.4333 30.5621 52.8715 30.2334 53.4349ZM57.2616 43.3248C57.1677 43.2935 57.1521 43.2778 57.1364 43.2778C51.7996 43.2778 46.4472 43.2622 41.1104 43.2622C40.7974 43.2622 40.7348 43.3561 40.8287 43.6378C40.8757 43.763 40.907 43.9038 40.9539 44.029C43.5675 52.6681 46.1655 61.3071 48.7791 69.9461C48.8417 70.1339 48.8261 70.353 49.0608 70.4938C51.7996 61.4166 54.5228 52.3707 57.2616 43.3248ZM76.1673 41.4937C76.0577 41.3528 75.9951 41.2589 75.9325 41.1807C73.3659 38.0975 70.7836 35.0144 68.2169 31.9313C67.9039 31.5557 67.7943 31.8061 67.6378 32.0095C65.2746 35.0614 62.9114 38.1132 60.5482 41.1494C60.4699 41.2433 60.3134 41.3215 60.4073 41.4937C65.6346 41.4937 70.8618 41.4937 76.1673 41.4937ZM56.6356 41.5093C56.5104 41.3215 56.4321 41.212 56.3539 41.1024C54.0063 38.0819 51.6588 35.077 49.3425 32.0565C49.0452 31.6652 48.9356 31.7122 48.6539 32.0721C46.322 35.0927 43.9744 38.0975 41.6269 41.1181C41.5486 41.2276 41.3765 41.3215 41.4391 41.5093C46.4785 41.5093 51.5179 41.5093 56.6356 41.5093ZM39.5297 40.9616C42.0964 37.6593 44.6161 34.4197 47.1828 31.1018C46.8698 31.1018 46.682 31.1018 46.4942 31.1018C43.3797 31.1018 40.2496 31.1175 37.1352 31.1018C35.9301 31.0705 35.0068 31.7435 34.099 32.3695C33.5043 32.7764 33.5356 33.2303 33.9738 33.7937C34.7564 34.811 35.5545 35.8282 36.337 36.8455C37.3856 38.1914 38.4342 39.553 39.5297 40.9616ZM29.1535 32.6825C26.6808 35.6561 24.255 38.5514 21.8135 41.478C27.1346 41.478 32.3775 41.478 37.6986 41.478C36.0553 39.3496 34.459 37.2994 32.8157 35.1866C32.6436 35.5935 32.5027 35.9065 32.3932 36.2351C32.2366 36.6734 31.9862 37.002 31.4698 36.9864C30.9533 36.9864 30.7342 36.6421 30.5621 36.2038C30.1238 35.0614 29.6543 33.9032 29.1535 32.6825ZM28.6527 30.1941C29.4978 30.5541 30.1238 30.961 30.5464 31.6026C30.969 32.2443 31.1255 32.9955 31.5167 33.7311C32.0488 32.2443 32.534 30.7888 34.2242 30.2097C32.5184 29.6463 32.0488 28.1752 31.4854 26.6102C30.9377 28.1908 30.4369 29.615 28.6527 30.1941ZM36.4623 63.5764C37.3856 63.9989 37.7769 64.7971 38.1212 65.7987C38.4499 64.7345 38.8881 63.9676 39.8427 63.5294C38.8411 63.0756 38.4655 62.2774 38.1368 61.3853C37.4013 62.8564 37.4013 62.8564 36.4623 63.5764ZM66.1354 51.5099C65.8224 52.5428 65.3842 53.3097 64.4295 53.7792C65.4311 54.2018 65.8067 55.0313 66.151 56.0016C66.4797 55.0156 66.9022 54.2174 67.8569 53.7636C66.8709 53.3097 66.4797 52.5115 66.1354 51.5099Z" fill="#0E141E"/>
</svg>
