<svg width="98" height="98" viewBox="0 0 98 98" fill="none" xmlns="http://www.w3.org/2000/svg">
<rect width="98" height="98" rx="49" fill="#26C7BC"/>
<circle cx="49" cy="49" r="18" fill="white"/>
<path d="M49.3868 16C49.8854 16.3609 50.0401 16.8422 50.0229 17.4437C49.9885 18.6469 50.0057 19.85 50.0057 21.1047C57.2779 21.4828 63.553 24.1469 68.6762 29.2687C73.8166 34.3906 76.4986 40.6641 76.894 47.9859C78.1318 47.9859 79.3524 48.0031 80.5559 47.9688C81.1576 47.9516 81.639 48.1063 82 48.6047C82 48.8625 82 49.1203 82 49.3781C81.639 49.8766 81.1576 50.0312 80.5559 50.0141C79.3524 49.9797 78.149 49.9969 76.894 49.9969C76.5158 57.2672 73.851 63.5406 68.7278 68.6797C63.6046 73.8187 57.3295 76.5 50.0057 76.8953C50.0057 77.7547 50.0057 78.5797 50.0057 79.4047C50.0057 79.9203 50.0229 80.4359 50.0057 80.9516C49.9713 81.5875 49.5587 82 48.9914 82C48.4241 82 48.0115 81.5875 47.9943 80.9516C47.9599 79.9031 47.9771 78.8547 47.9771 77.7891C47.9771 77.5141 47.9771 77.2391 47.9771 76.8953C40.7221 76.5 34.447 73.8531 29.3066 68.7312C24.1834 63.5922 21.5014 57.3359 21.106 50.0141C19.9713 50.0141 18.8711 50.0141 17.7536 50.0141C17.5473 50.0141 17.3238 50.0141 17.1175 50.0141C16.4298 49.9797 16.0172 49.6016 16 49.0172C16 48.4328 16.4298 48.0203 17.1003 48.0203C18.4069 48.0031 19.7135 48.0203 21.0888 48.0203C21.467 40.7672 24.1318 34.4937 29.255 29.3547C34.3782 24.2156 40.6533 21.5344 47.9771 21.1391C47.9771 19.9016 47.9943 18.6984 47.9599 17.4781C47.9427 16.8766 48.0974 16.3953 48.596 16.0344C48.8711 16 49.1289 16 49.3868 16ZM47.9599 74.8156C47.9771 74.6781 47.9943 74.5234 47.9943 74.3859C47.9943 73.2344 47.9771 72.0656 47.9943 70.9141C48.0115 70.2438 48.4241 69.7969 48.9914 69.7969C49.5587 69.7969 49.9885 70.2266 50.0057 70.8969C50.0229 71.4469 50.0057 72.0141 50.0057 72.5641C50.0057 73.3203 50.0057 74.0938 50.0057 74.85C64.4642 74.3 74.6762 62.1312 74.7966 50.0141C73.5072 50.0141 72.235 50.0141 70.9456 50.0141C70.2235 50.0141 69.7765 49.6016 69.7765 49C69.7765 48.4156 70.2407 48.0031 70.9628 48.0031C72.063 47.9859 73.1461 48.0031 74.2464 48.0031C74.4527 48.0031 74.659 47.9859 74.8481 47.9688C74.2636 33.2047 61.7307 23.2188 50.0229 23.2016C50.0229 23.425 50.0229 23.6656 50.0229 23.9062C50.0229 24.9719 50.0401 26.0547 50.0229 27.1203C50.0057 27.7734 49.5587 28.2203 48.9914 28.2203C48.4413 28.2031 48.0458 27.7734 48.0115 27.1547C47.9943 26.8969 48.0115 26.6391 48.0115 26.3813C48.0115 25.3156 48.0115 24.25 48.0115 23.1844C33.8797 23.5281 23.1691 35.8172 23.2206 47.9688C23.3754 47.9859 23.5129 47.9859 23.6676 48.0031C24.8023 48.0031 25.937 48.0031 27.0888 48.0031C27.7765 48.0031 28.2063 48.4156 28.2235 48.9828C28.2407 49.5672 27.7765 49.9969 27.0716 50.0141C26.7106 50.0312 26.3496 50.0141 25.9713 50.0141C25.0258 50.0141 24.0974 50.0141 23.1519 50.0141C23.5817 63.8844 35.2894 74.5922 47.9599 74.8156Z" fill="#0E141E"/>
<path d="M30.6647 48.1407C31.0774 38.6875 38.7966 30.5063 49.1461 30.6438C59.8911 30.7641 67.4556 39.3235 67.3696 49.0688C67.2837 59.8282 58.6877 67.5282 48.8367 67.3735C37.4728 67.1844 30.149 57.7313 30.6647 48.1407ZM57.3639 47.9516C57.3811 47.8313 57.3983 47.7626 57.3983 47.6766C57.3295 45.5282 56.9857 43.4141 56.4355 41.3344C56.3324 40.9563 56.1089 40.9047 55.7822 40.9047C54.3897 40.9219 52.9971 40.9047 51.5874 40.9047C51.0716 40.9047 50.5731 40.9047 50.0573 40.9047C50.0573 43.311 50.0573 45.6141 50.0573 47.9516C52.5157 47.9516 54.9226 47.9516 57.3639 47.9516ZM57.3983 50.0485C54.8882 50.0485 52.4814 50.0485 50.0057 50.0485C50.0057 52.3001 50.0057 54.5 50.0057 56.7172C50.0057 56.8204 50.0401 56.9235 50.0573 57.0782C52.0516 57.0782 54.0286 57.0782 55.9885 57.061C56.1261 57.061 56.3152 56.8719 56.3668 56.7344C57.02 54.5688 57.3467 52.3516 57.3983 50.0485ZM47.9599 40.9047C46.5157 40.9047 45.1404 40.9047 43.765 40.9047C43.0774 40.9047 42.1834 40.6985 41.788 41.0422C41.341 41.4204 41.2894 42.3313 41.1862 43.0188C40.9284 44.6344 40.7221 46.2672 40.4986 47.9172C43.1117 47.9172 45.5358 47.9172 47.9599 47.9172C47.9599 45.5797 47.9599 43.2938 47.9599 40.9047ZM40.6877 50.0485C40.6533 50.1172 40.6189 50.1516 40.6189 50.186C40.6533 52.4032 40.9971 54.586 41.6332 56.7172C41.6848 56.8891 42.0286 57.0782 42.2349 57.0782C43.6103 57.1125 44.9857 57.0954 46.361 57.0954C46.894 57.0954 47.4269 57.0954 47.9599 57.0954C47.9599 54.6891 47.9599 52.386 47.9599 50.0485C45.5014 50.0485 43.0945 50.0485 40.6877 50.0485ZM39.4498 40.9047C38.5043 40.9047 37.4728 40.9047 36.4584 40.9047C34.6705 40.9047 34.6533 40.9047 33.9656 42.5375C33.2435 44.2563 32.7794 46.0438 32.6934 47.9344C34.6877 47.9344 36.6132 47.9344 38.4527 47.9344C38.7966 45.5797 39.1232 43.2766 39.4498 40.9047ZM58.5501 40.9047C58.894 43.2938 59.2206 45.6141 59.5473 47.9172C61.4556 47.9172 63.3811 47.9172 65.3238 47.9172C65.169 45.5282 64.5329 43.3454 63.4327 41.3172C63.3295 41.1282 63.0716 40.9219 62.8653 40.9219C61.4212 40.9047 59.9599 40.9047 58.5501 40.9047ZM32.6762 50.0485C32.7966 52.2313 33.3811 54.2422 34.2751 56.1844C34.5845 56.8547 34.9455 57.1641 35.7192 57.0954C36.6476 57.0094 37.6103 57.0782 38.5387 57.0782C38.8653 57.0782 39.192 57.0782 39.4327 57.0782C39.0888 54.6891 38.7622 52.386 38.4355 50.0313C36.596 50.0485 34.6533 50.0485 32.6762 50.0485ZM58.5501 57.0782C59.9771 57.0782 61.4728 57.0954 62.9685 57.061C63.1232 57.061 63.3295 56.9063 63.3983 56.7516C64.5158 54.6719 65.1862 52.4547 65.3238 50.0313C63.3467 50.0313 61.404 50.0313 59.5473 50.0313C59.2206 52.4032 58.894 54.7235 58.5501 57.0782ZM55.6103 38.911C54.3725 36.2469 53.0487 33.8063 50.0573 32.7579C50.0573 34.8719 50.0573 36.8829 50.0573 38.911C51.8796 38.911 53.6848 38.911 55.6103 38.911ZM47.9599 32.8094C45.8109 33.3079 42.871 36.625 42.5444 38.911C44.3324 38.911 46.1375 38.911 47.9599 38.911C47.9599 36.8657 47.9599 34.8547 47.9599 32.8094ZM47.9427 65.1563C47.9427 63.1282 47.9427 61.1172 47.9427 59.0547C46.1719 59.0547 44.4699 59.0547 42.7507 59.0547C42.6647 59.0547 42.596 59.0719 42.51 59.0891C43.318 61.6672 45.7593 64.8813 47.9427 65.1563ZM50.0573 59.0891C50.0573 61.1688 50.0573 63.1625 50.0573 65.1735C52.1891 64.7266 55.043 61.4954 55.49 59.0891C53.702 59.0891 51.8968 59.0891 50.0573 59.0891ZM61.9026 38.9282C59.9943 36.5563 57.7765 34.8891 55.2493 33.875C56.0229 35.4047 56.8309 36.986 57.6562 38.55C57.7421 38.7219 57.9656 38.911 58.1375 38.911C59.3238 38.9454 60.5272 38.9282 61.9026 38.9282ZM55.2321 64.125C57.7593 63.0938 59.9943 61.4266 61.8854 59.0547C60.5272 59.0547 59.3238 59.0375 58.1203 59.0719C57.9484 59.0719 57.7249 59.2782 57.639 59.4329C56.8137 61.0141 56.0229 62.5954 55.2321 64.125ZM36.0974 38.9282C37.4728 38.9282 38.6934 38.9282 39.914 38.911C40.0516 38.911 40.2579 38.7907 40.2923 38.6704C40.9627 36.9516 41.8223 35.336 42.9054 33.8407C40.2235 34.9063 38.0057 36.5735 36.0974 38.9282ZM36.1146 59.0719C38.0401 61.4438 40.2407 63.111 42.7679 64.125C41.9943 62.5954 41.1862 60.9969 40.361 59.4157C40.2923 59.2782 40.1031 59.0891 39.9828 59.0891C38.7278 59.0547 37.49 59.0719 36.1146 59.0719Z" fill="#0E141E"/>
</svg>
