<svg width="98" height="98" viewBox="0 0 98 98" fill="none" xmlns="http://www.w3.org/2000/svg">
<rect width="98" height="98" rx="49" fill="#26C7BC"/>
<g clip-path="url(#clip0_294_2696)">
<path d="M39.0001 53C37.8001 51.4 37.8334 44.6667 38.0001 41.5L44 41L51 39L55 37L57.5 39.5L59.5 41C59.6667 41.5 60.1 42.9 60.5 44.5C60.9 46.1 59.6667 51.1667 59 53.5C58 55.1667 55.5 58.6 53.5 59C51 59.5 47.5 59.5 45 59C42.5 58.5 40.5001 55 39.0001 53Z" fill="white"/>
<path d="M50.8244 18C52.1968 18.1936 53.5692 18.3711 54.9416 18.5969C55.7328 18.726 56.5239 18.9357 57.2989 19.1455C58.0739 19.3552 58.3968 19.8231 58.2515 20.4361C58.0901 21.0814 57.5572 21.3557 56.7661 21.146C54.0697 20.4039 51.325 20.0489 48.5156 20.0651C35.389 20.2103 23.5218 29.7289 20.8255 42.5709C18.4682 53.7835 21.7458 63.286 30.2708 70.9815C30.4161 71.1106 30.5776 71.2235 30.8036 71.401C30.8843 71.0461 30.9328 70.7395 31.0135 70.4491C31.6755 68.0775 33.1125 66.3836 35.4375 65.5285C37.1166 64.8993 38.8281 64.3669 40.5072 63.7538C42.2026 63.1246 43.252 61.9146 43.7041 60.1561C43.7848 59.8173 43.7203 59.6721 43.4135 59.4947C39.1833 57.1069 36.9875 53.4447 36.8906 48.5886C36.8421 46.217 36.8744 43.8293 36.8744 41.4577C36.8744 40.5059 37.2942 40.1348 38.2468 40.2477C44.1885 40.8931 49.5651 39.4733 54.3765 35.924C55.2 35.311 55.8296 35.5046 56.2333 36.4564C57.0244 38.3117 58.3322 39.5701 60.2697 40.1832C60.8671 40.3768 61.1578 40.7479 61.1578 41.3932C61.1416 43.9261 61.1901 46.4751 61.1416 49.0081C60.964 56.7843 53.6984 62.3341 46.126 60.5272C46.0291 60.5111 45.9322 60.4949 45.8031 60.4627C45.7546 60.6079 45.7062 60.7369 45.6578 60.866C44.9473 63.3021 43.3651 64.9316 40.9755 65.7866C39.4739 66.319 37.9723 66.8192 36.4708 67.3515C34.0973 68.1743 32.7572 70.1265 32.9026 72.6271C32.9187 72.8207 33.064 73.0788 33.2416 73.1918C36.6968 75.4666 40.4588 76.9186 44.5437 77.5478C49.8072 78.3705 54.9093 77.7575 59.8661 75.8054C60.625 75.515 61.1901 75.7086 61.4161 76.3216C61.6421 76.9024 61.3515 77.4348 60.625 77.7091C50.9536 81.3875 41.6052 80.7099 32.7734 75.3214C25.0234 70.5943 20.2604 63.6086 18.5812 54.687C16.1916 42.1998 21.552 29.5514 32.7734 22.6141C37.0036 20.0005 41.6213 18.484 46.6104 18.0968C46.7718 18.0807 46.9171 18.0323 47.0786 18C48.3218 18 49.5651 18 50.8244 18ZM38.9411 42.3934C38.9411 42.7 38.9411 42.9258 38.9411 43.1678C38.9734 45.491 38.8442 47.8142 39.0864 50.1051C39.6192 54.816 43.9625 59.2204 49.888 58.7848C54.8609 58.4299 58.9942 54.0255 59.0588 48.8467C59.0911 46.7333 59.0588 44.6198 59.075 42.4902C59.075 42.0869 58.9619 41.8933 58.5906 41.7158C57.089 41.0544 55.9265 39.9896 55.0385 38.6183C54.9416 38.4731 54.8447 38.3279 54.7317 38.1827C49.9526 41.4254 44.7052 42.7968 38.9411 42.3934Z" fill="#0E141E"/>
<path d="M79.9999 50.6698C79.8384 51.8475 79.7254 53.0252 79.5155 54.203C78.24 61.4468 74.817 67.5129 69.2952 72.369C68.5363 73.0305 67.7452 73.6597 66.9056 74.2243C66.5988 74.434 66.0983 74.4986 65.7431 74.4179C65.2749 74.305 65.1295 73.8371 65.1134 73.3531C65.0811 72.5949 65.1295 71.8043 64.9681 71.0622C64.629 69.3682 63.5957 68.1421 61.9811 67.5129C60.4311 66.8998 58.8165 66.4158 57.2504 65.8512C56.8952 65.7221 56.7983 65.9318 56.653 66.1577C54.7316 68.9487 52.0514 70.3039 48.6931 70.2717C47.2238 70.2555 45.8353 69.8522 44.5436 69.1262C43.8655 68.7551 43.6556 68.1905 43.9462 67.642C44.2368 67.0934 44.8181 66.9644 45.5285 67.3193C48.5962 68.852 51.89 68.3841 54.1019 66.0932C54.4572 65.7221 54.7639 65.2865 55.0868 64.8832C54.6832 64.5121 54.3118 64.1894 53.9889 63.8506C53.553 63.3828 53.553 62.7859 53.9566 62.3825C54.3764 61.9631 54.99 61.9469 55.4582 62.4309C56.2009 63.1892 57.0889 63.6732 58.0738 63.9958C59.4139 64.4314 60.7379 64.8993 62.078 65.3672C64.8551 66.319 66.5504 68.2066 67.1155 71.0945C67.1316 71.1913 67.1478 71.2881 67.1962 71.4978C67.5353 71.2235 67.8259 70.9815 68.1004 70.7395C73.7676 65.6414 77.0129 59.2849 77.804 51.7023C78.1592 48.2175 77.8363 44.7812 76.916 41.4093C76.8676 41.2319 76.8191 41.0544 76.7707 40.8769C76.6415 40.2477 76.916 39.7315 77.4488 39.5701C78.0301 39.4088 78.5952 39.6831 78.7566 40.3284C79.0795 41.6836 79.3863 43.0388 79.6446 44.394C79.8223 45.362 79.903 46.3461 80.016 47.3141C79.9999 48.4111 79.9999 49.5405 79.9999 50.6698Z" fill="#0E141E"/>
<path d="M80.0001 29.132C79.5965 29.8096 79.1606 30.4711 78.7892 31.181C78.6277 31.5036 78.5147 31.907 78.5309 32.2619C78.6762 34.4883 77.7559 35.7305 75.5762 36.2952C75.1887 36.392 74.7689 36.7147 74.559 37.0373C73.3965 38.8765 71.8626 39.4089 69.8767 38.5538C69.3923 38.3441 68.9564 38.3602 68.4882 38.57C66.583 39.4089 64.9361 38.8765 63.9027 37.0857C63.6283 36.6179 63.2731 36.3597 62.7241 36.2307C60.7059 35.7951 59.721 34.4721 59.8986 32.3909C59.947 31.7779 59.7856 31.31 59.3658 30.8583C58.0902 29.4708 58.0902 27.6316 59.3819 26.2281C59.8017 25.7763 59.947 25.2923 59.8986 24.6954C59.7371 22.6303 60.7059 21.3236 62.7564 20.8718C63.2892 20.7589 63.6444 20.4846 63.9189 20.0006C64.9361 18.226 66.5991 17.6774 68.4559 18.5164C69.0048 18.7584 69.4731 18.7422 70.0059 18.5002C71.7819 17.6936 73.4934 18.2421 74.4621 19.9361C74.7689 20.4685 75.1564 20.775 75.7699 20.888C77.5944 21.259 78.6923 22.6303 78.547 24.4857C78.4824 25.2601 78.6762 25.8086 79.1767 26.4055C79.5642 26.8573 79.7418 27.4864 80.0163 28.0511C80.0001 28.406 80.0001 28.7771 80.0001 29.132ZM61.9814 32.2296C61.9007 33.6816 62.0783 33.9236 63.4184 34.2463C64.3871 34.4883 65.1137 35.0368 65.6142 35.908C66.2116 36.9244 66.6798 37.0857 67.7455 36.6179C68.7303 36.1823 69.683 36.1823 70.6679 36.6179C71.7012 37.0857 72.2017 36.9244 72.7668 35.9564C73.3158 35.0045 74.1069 34.4237 75.1887 34.214C76.2382 34.0043 76.5934 33.5364 76.4642 32.4716C76.3189 31.3584 76.6418 30.4066 77.4007 29.5999C78.0949 28.8416 78.1111 28.2608 77.4007 27.4864C76.6418 26.6637 76.3189 25.7279 76.4642 24.5986C76.5934 23.5499 76.2382 23.0659 75.1887 22.8562C74.0908 22.6303 73.2835 22.0334 72.7507 21.0654C72.2501 20.162 71.7012 19.9845 70.7486 20.4362C69.7314 20.9041 68.7303 20.9041 67.7132 20.4362C66.7283 19.9845 66.2277 20.162 65.6788 21.1138C65.1621 22.0173 64.4194 22.6142 63.3861 22.8401C62.1428 23.1143 61.9007 23.437 61.9975 24.7277C62.0783 25.7925 61.7715 26.7121 61.0449 27.4864C60.3345 28.2608 60.3345 28.8094 61.0449 29.5999C61.7231 30.3743 62.0783 31.2455 61.9814 32.2296Z" fill="#0E141E"/>
<path d="M61.9814 32.2296C61.9007 33.6816 62.0783 33.9236 63.4184 34.2463C64.3871 34.4883 65.1137 35.0368 65.6142 35.908C66.2116 36.9244 66.6798 37.0857 67.7455 36.6179C68.7303 36.1823 69.683 36.1823 70.6679 36.6179C71.7012 37.0857 72.2017 36.9244 72.7668 35.9564C73.3158 35.0045 74.1069 34.4237 75.1887 34.214C76.2382 34.0043 76.5934 33.5364 76.4642 32.4716C76.3189 31.3584 76.6418 30.4066 77.4007 29.5999C78.0949 28.8416 78.1111 28.2608 77.4007 27.4864C76.6418 26.6637 76.3189 25.7279 76.4642 24.5986C76.5934 23.5499 76.2382 23.0659 75.1887 22.8562C74.0908 22.6303 73.2835 22.0334 72.7507 21.0654C72.2501 20.162 71.7012 19.9845 70.7486 20.4362C69.7314 20.9041 68.7303 20.9041 67.7132 20.4362C66.7283 19.9845 66.2277 20.162 65.6788 21.1138C65.1621 22.0173 64.4194 22.6142 63.3861 22.8401C62.1428 23.1143 61.9007 23.437 61.9975 24.7277C62.0783 25.7925 61.7715 26.7121 61.0449 27.4864C60.3345 28.2608 60.3345 28.8094 61.0449 29.5999C61.7231 30.3743 62.0783 31.2455 61.9814 32.2296Z" fill="white"/>
<path d="M34.0167 45.5394C34.0167 42.7806 34.0005 40.0219 34.0167 37.2469C34.0651 31.2615 38.0854 26.3731 43.9141 25.1954C44.5115 25.0825 45.1089 25.0018 45.7063 25.0018C47.8859 24.9857 50.0656 24.9373 52.2453 25.018C53.3432 25.0664 54.425 25.3245 55.5068 25.5665C56.2818 25.7439 56.5724 26.2763 56.3948 26.8894C56.2172 27.5025 55.6844 27.6799 54.9255 27.5509C53.7146 27.3411 52.5036 27.1314 51.2927 27.0669C49.6458 26.9862 47.9828 27.0346 46.3359 27.0507C40.588 27.083 36.1479 31.4067 36.0833 37.1501C36.0188 42.829 36.0672 48.5241 36.0672 54.203C36.0672 55.2516 36.4547 55.7518 37.4396 56.0744C38.1016 56.2842 38.4245 56.7681 38.2792 57.3328C38.1177 57.9297 37.601 58.204 36.8906 58.0588C35.1953 57.72 34.0005 56.2035 33.9844 54.3159C34.0005 51.3958 34.0167 48.4757 34.0167 45.5394Z" fill="#0E141E"/>
<path d="M63.9835 47.653C63.9835 49.8632 63.9996 52.0896 63.9835 54.2998C63.9673 56.2197 62.8371 57.6878 61.0772 58.1073C60.3345 58.2848 59.8017 58.0266 59.6241 57.4136C59.4626 56.8005 59.7855 56.3165 60.5444 56.1068C61.497 55.8486 61.9168 55.2678 61.9168 54.1708C61.9168 51.3152 61.9168 48.4435 61.9168 45.5879C61.9168 43.91 61.9007 42.2483 61.9168 40.5705C61.9329 39.667 62.7241 39.183 63.4507 39.6025C63.9189 39.8767 63.9835 40.3285 63.9835 40.8125C63.9835 43.0872 63.9835 45.3782 63.9835 47.653Z" fill="#0E141E"/>
<path d="M67.9875 30.2452C69.3276 28.7287 70.5708 27.3251 71.8141 25.9215C72.0078 25.7117 72.1854 25.4859 72.3792 25.2923C72.799 24.8889 73.3964 24.8728 73.8 25.2277C74.2198 25.5988 74.2682 26.1635 73.913 26.6475C73.7031 26.9379 73.4448 27.196 73.2026 27.4703C71.8141 29.0352 70.4255 30.6162 69.037 32.1812C68.375 32.9233 67.8583 32.9233 67.1479 32.2296C66.6151 31.6972 66.0823 31.1809 65.5656 30.6485C65.0974 30.1645 65.0651 29.5676 65.4849 29.1481C65.9208 28.6964 66.5182 28.7125 67.0349 29.2126C67.3578 29.503 67.6323 29.858 67.9875 30.2452Z" fill="#0E141E"/>
</g>
<defs>
<clipPath id="clip0_294_2696">
<rect width="62" height="62" fill="white" transform="translate(18 18)"/>
</clipPath>
</defs>
</svg>
