<svg width="1920" height="849" viewBox="0 0 1920 849" fill="none" xmlns="http://www.w3.org/2000/svg">
<g opacity="0.5" clip-path="url(#clip0_294_2913)">
<path fill-rule="evenodd" clip-rule="evenodd" d="M5.85981 65.4951L38.2995 112.155L28.9676 127.264L-13.6929 65.4951H5.85981Z" fill="#141C29" fill-opacity="0.04"/>
<path d="M76.0684 86.8254L44.9618 141.04H26.2979L57.4044 86.8254H76.0684Z" fill="#141C29" fill-opacity="0.04"/>
<path d="M103.116 97.1201C103.116 79.654 88.9568 65.495 71.4907 65.495H23.543L35.2749 81.8176H71.4907C79.9421 81.8176 86.7932 88.6688 86.7932 97.1201C86.7932 105.571 79.9421 112.423 71.4907 112.423H66.3899L57.4635 128.745H71.4907C88.9568 128.745 103.116 114.586 103.116 97.1201Z" fill="#26C7BC" fill-opacity="0.1"/>
<path fill-rule="evenodd" clip-rule="evenodd" d="M136.444 65.495L168.884 112.155L159.552 127.264L116.891 65.495H136.444Z" fill="#141C29" fill-opacity="0.04"/>
<path d="M206.652 86.8254L175.546 141.04H156.882L187.988 86.8254H206.652Z" fill="#141C29" fill-opacity="0.04"/>
<path d="M233.7 97.1201C233.7 79.654 219.541 65.4949 202.075 65.4949H154.127L165.859 81.8176H202.075C210.526 81.8176 217.377 88.6687 217.377 97.1201C217.377 105.571 210.526 112.423 202.075 112.423H196.974L188.047 128.745H202.075C219.541 128.745 233.7 114.586 233.7 97.1201Z" fill="#26C7BC" fill-opacity="0.1"/>
<path fill-rule="evenodd" clip-rule="evenodd" d="M267.028 65.495L299.468 112.155L290.136 127.264L247.476 65.495H267.028Z" fill="#141C29" fill-opacity="0.04"/>
<path d="M337.237 86.8254L306.13 141.04H287.466L318.573 86.8254H337.237Z" fill="#141C29" fill-opacity="0.04"/>
<path d="M364.284 97.1201C364.284 79.654 350.125 65.4949 332.659 65.4949H284.711L296.443 81.8176H332.659C341.111 81.8176 347.962 88.6687 347.962 97.1201C347.962 105.571 341.111 112.423 332.659 112.423H327.558L318.632 128.745H332.659C350.125 128.745 364.284 114.586 364.284 97.1201Z" fill="#26C7BC" fill-opacity="0.1"/>
<path fill-rule="evenodd" clip-rule="evenodd" d="M397.612 65.495L430.052 112.155L420.72 127.264L378.06 65.495H397.612Z" fill="#141C29" fill-opacity="0.04"/>
<path d="M467.821 86.8254L436.714 141.04H418.05L449.157 86.8254H467.821Z" fill="#141C29" fill-opacity="0.04"/>
<path d="M494.868 97.1201C494.868 79.654 480.709 65.4949 463.243 65.4949H415.295L427.027 81.8176H463.243C471.694 81.8176 478.546 88.6687 478.546 97.1201C478.546 105.571 471.694 112.423 463.243 112.423H458.142L449.216 128.745H463.243C480.709 128.745 494.868 114.586 494.868 97.1201Z" fill="#26C7BC" fill-opacity="0.1"/>
<path fill-rule="evenodd" clip-rule="evenodd" d="M528.196 65.495L560.636 112.155L551.304 127.264L508.644 65.495H528.196Z" fill="#141C29" fill-opacity="0.04"/>
<path d="M598.405 86.8254L567.298 141.04H548.634L579.741 86.8254H598.405Z" fill="#141C29" fill-opacity="0.04"/>
<path d="M625.452 97.1201C625.452 79.654 611.293 65.4949 593.827 65.4949H545.879L557.611 81.8176H593.827C602.278 81.8176 609.13 88.6687 609.13 97.1201C609.13 105.571 602.278 112.423 593.827 112.423H588.726L579.8 128.745H593.827C611.293 128.745 625.452 114.586 625.452 97.1201Z" fill="#26C7BC" fill-opacity="0.1"/>
<path fill-rule="evenodd" clip-rule="evenodd" d="M658.781 65.495L691.22 112.155L681.889 127.264L639.228 65.495H658.781Z" fill="#141C29" fill-opacity="0.04"/>
<path d="M728.989 86.8254L697.883 141.04H679.219L710.325 86.8254H728.989Z" fill="#141C29" fill-opacity="0.04"/>
<path d="M756.037 97.1201C756.037 79.654 741.878 65.4949 724.412 65.4949H676.464L688.196 81.8176H724.412C732.863 81.8176 739.714 88.6687 739.714 97.1201C739.714 105.571 732.863 112.423 724.412 112.423H719.311L710.384 128.745H724.412C741.878 128.745 756.037 114.586 756.037 97.1201Z" fill="#26C7BC" fill-opacity="0.1"/>
<path fill-rule="evenodd" clip-rule="evenodd" d="M789.365 65.495L821.804 112.155L812.472 127.264L769.812 65.495H789.365Z" fill="#141C29" fill-opacity="0.04"/>
<path d="M859.573 86.8254L828.467 141.04H809.803L840.909 86.8254H859.573Z" fill="#141C29" fill-opacity="0.04"/>
<path d="M886.621 97.1201C886.621 79.654 872.462 65.4949 854.996 65.4949H807.048L818.78 81.8176H854.996C863.447 81.8176 870.298 88.6687 870.298 97.1201C870.298 105.571 863.447 112.423 854.996 112.423H849.895L840.968 128.745H854.996C872.462 128.745 886.621 114.586 886.621 97.1201Z" fill="#26C7BC" fill-opacity="0.1"/>
<path fill-rule="evenodd" clip-rule="evenodd" d="M919.949 65.495L952.389 112.155L943.057 127.264L900.396 65.495H919.949Z" fill="#141C29" fill-opacity="0.04"/>
<path d="M990.158 86.8254L959.051 141.04H940.387L971.494 86.8254H990.158Z" fill="#141C29" fill-opacity="0.04"/>
<path d="M1017.21 97.1201C1017.21 79.654 1003.05 65.4949 985.58 65.4949H937.632L949.364 81.8176H985.58C994.031 81.8176 1000.88 88.6687 1000.88 97.1201C1000.88 105.571 994.031 112.423 985.58 112.423H980.479L971.553 128.745H985.58C1003.05 128.745 1017.21 114.586 1017.21 97.1201Z" fill="#26C7BC" fill-opacity="0.1"/>
<path fill-rule="evenodd" clip-rule="evenodd" d="M1050.53 65.495L1082.97 112.155L1073.64 127.264L1030.98 65.495H1050.53Z" fill="#141C29" fill-opacity="0.04"/>
<path d="M1120.74 86.8254L1089.64 141.04H1070.97L1102.08 86.8254H1120.74Z" fill="#141C29" fill-opacity="0.04"/>
<path d="M1147.79 97.1201C1147.79 79.654 1133.63 65.4949 1116.16 65.4949H1068.22L1079.95 81.8176H1116.16C1124.62 81.8176 1131.47 88.6687 1131.47 97.1201C1131.47 105.571 1124.62 112.423 1116.16 112.423H1111.06L1102.14 128.745H1116.16C1133.63 128.745 1147.79 114.586 1147.79 97.1201Z" fill="#26C7BC" fill-opacity="0.1"/>
<path fill-rule="evenodd" clip-rule="evenodd" d="M1181.12 65.495L1213.56 112.155L1204.22 127.264L1161.56 65.495H1181.12Z" fill="#141C29" fill-opacity="0.04"/>
<path d="M1251.33 86.8254L1220.22 141.04H1201.56L1232.66 86.8254H1251.33Z" fill="#141C29" fill-opacity="0.04"/>
<path d="M1278.37 97.1201C1278.37 79.654 1264.21 65.4949 1246.75 65.4949H1198.8L1210.53 81.8176H1246.75C1255.2 81.8176 1262.05 88.6687 1262.05 97.1201C1262.05 105.571 1255.2 112.423 1246.75 112.423H1241.65L1232.72 128.745H1246.75C1264.21 128.745 1278.37 114.586 1278.37 97.1201Z" fill="#26C7BC" fill-opacity="0.1"/>
<path fill-rule="evenodd" clip-rule="evenodd" d="M1311.7 65.495L1344.14 112.155L1334.81 127.264L1292.15 65.495H1311.7Z" fill="#141C29" fill-opacity="0.04"/>
<path d="M1381.91 86.8254L1350.8 141.04H1332.14L1363.25 86.8254H1381.91Z" fill="#141C29" fill-opacity="0.04"/>
<path d="M1408.96 97.1201C1408.96 79.654 1394.8 65.4949 1377.33 65.4949H1329.38L1341.12 81.8176H1377.33C1385.78 81.8176 1392.64 88.6687 1392.64 97.1201C1392.64 105.571 1385.78 112.423 1377.33 112.423H1372.23L1363.31 128.745H1377.33C1394.8 128.745 1408.96 114.586 1408.96 97.1201Z" fill="#26C7BC" fill-opacity="0.1"/>
<path fill-rule="evenodd" clip-rule="evenodd" d="M1442.29 65.495L1474.73 112.155L1465.39 127.264L1422.73 65.495H1442.29Z" fill="#141C29" fill-opacity="0.04"/>
<path d="M1512.49 86.8254L1481.39 141.04H1462.72L1493.83 86.8254H1512.49Z" fill="#141C29" fill-opacity="0.04"/>
<path d="M1539.54 97.1201C1539.54 79.654 1525.38 65.4949 1507.92 65.4949H1459.97L1471.7 81.8176H1507.92C1516.37 81.8176 1523.22 88.6687 1523.22 97.1201C1523.22 105.571 1516.37 112.423 1507.92 112.423H1502.82L1493.89 128.745H1507.92C1525.38 128.745 1539.54 114.586 1539.54 97.1201Z" fill="#26C7BC" fill-opacity="0.1"/>
<path fill-rule="evenodd" clip-rule="evenodd" d="M1572.87 65.495L1605.31 112.155L1595.98 127.264L1553.32 65.495H1572.87Z" fill="#141C29" fill-opacity="0.04"/>
<path d="M1643.08 86.8254L1611.97 141.04H1593.31L1624.41 86.8254H1643.08Z" fill="#141C29" fill-opacity="0.04"/>
<path d="M1670.13 97.1201C1670.13 79.654 1655.97 65.4949 1638.5 65.4949H1590.55L1602.28 81.8176H1638.5C1646.95 81.8176 1653.8 88.6687 1653.8 97.1201C1653.8 105.571 1646.95 112.423 1638.5 112.423H1633.4L1624.47 128.745H1638.5C1655.97 128.745 1670.13 114.586 1670.13 97.1201Z" fill="#26C7BC" fill-opacity="0.1"/>
<path fill-rule="evenodd" clip-rule="evenodd" d="M1703.45 65.495L1735.89 112.155L1726.56 127.264L1683.9 65.495H1703.45Z" fill="#141C29" fill-opacity="0.04"/>
<path d="M1773.66 86.8254L1742.56 141.04H1723.89L1755 86.8254H1773.66Z" fill="#141C29" fill-opacity="0.04"/>
<path d="M1800.71 97.1201C1800.71 79.654 1786.55 65.4949 1769.09 65.4949H1721.14L1732.87 81.8176H1769.09C1777.54 81.8176 1784.39 88.6687 1784.39 97.1201C1784.39 105.571 1777.54 112.423 1769.09 112.423H1763.98L1755.06 128.745H1769.09C1786.55 128.745 1800.71 114.586 1800.71 97.1201Z" fill="#26C7BC" fill-opacity="0.1"/>
<path fill-rule="evenodd" clip-rule="evenodd" d="M1834.04 65.495L1866.48 112.155L1857.15 127.264L1814.49 65.495H1834.04Z" fill="#141C29" fill-opacity="0.04"/>
<path d="M1904.25 86.8254L1873.14 141.04H1854.48L1885.58 86.8254H1904.25Z" fill="#141C29" fill-opacity="0.04"/>
<path d="M1931.29 97.1201C1931.29 79.654 1917.14 65.4949 1899.67 65.4949H1851.72L1863.45 81.8176H1899.67C1908.12 81.8176 1914.97 88.6687 1914.97 97.1201C1914.97 105.571 1908.12 112.423 1899.67 112.423H1894.57L1885.64 128.745H1899.67C1917.14 128.745 1931.29 114.586 1931.29 97.1201Z" fill="#26C7BC" fill-opacity="0.1"/>
<path fill-rule="evenodd" clip-rule="evenodd" d="M5.85981 242.485L38.2995 289.145L28.9676 304.254L-13.6929 242.485H5.85981Z" fill="#141C29" fill-opacity="0.04"/>
<path d="M76.0684 263.816L44.9618 318.03H26.2979L57.4044 263.816H76.0684Z" fill="#141C29" fill-opacity="0.04"/>
<path d="M103.116 274.11C103.116 256.644 88.9568 242.485 71.4907 242.485H23.543L35.2749 258.808H71.4907C79.9421 258.808 86.7932 265.659 86.7932 274.11C86.7932 282.562 79.9421 289.413 71.4907 289.413H66.3899L57.4635 305.735H71.4907C88.9568 305.735 103.116 291.576 103.116 274.11Z" fill="#26C7BC" fill-opacity="0.1"/>
<path fill-rule="evenodd" clip-rule="evenodd" d="M136.444 242.485L168.884 289.145L159.552 304.254L116.891 242.485H136.444Z" fill="#141C29" fill-opacity="0.04"/>
<path d="M206.652 263.816L175.546 318.03H156.882L187.988 263.816H206.652Z" fill="#141C29" fill-opacity="0.04"/>
<path d="M233.7 274.11C233.7 256.644 219.541 242.485 202.075 242.485H154.127L165.859 258.808H202.075C210.526 258.808 217.377 265.659 217.377 274.11C217.377 282.562 210.526 289.413 202.075 289.413H196.974L188.047 305.735H202.075C219.541 305.735 233.7 291.576 233.7 274.11Z" fill="#26C7BC" fill-opacity="0.1"/>
<path fill-rule="evenodd" clip-rule="evenodd" d="M267.028 242.485L299.468 289.145L290.136 304.254L247.476 242.485H267.028Z" fill="#141C29" fill-opacity="0.04"/>
<path d="M337.237 263.816L306.13 318.03H287.466L318.573 263.816H337.237Z" fill="#141C29" fill-opacity="0.04"/>
<path d="M364.284 274.11C364.284 256.644 350.125 242.485 332.659 242.485H284.711L296.443 258.808H332.659C341.111 258.808 347.962 265.659 347.962 274.11C347.962 282.562 341.111 289.413 332.659 289.413H327.558L318.632 305.735H332.659C350.125 305.735 364.284 291.576 364.284 274.11Z" fill="#26C7BC" fill-opacity="0.1"/>
<path fill-rule="evenodd" clip-rule="evenodd" d="M397.612 242.485L430.052 289.145L420.72 304.254L378.06 242.485H397.612Z" fill="#141C29" fill-opacity="0.04"/>
<path d="M467.821 263.816L436.714 318.03H418.05L449.157 263.816H467.821Z" fill="#141C29" fill-opacity="0.04"/>
<path d="M494.868 274.11C494.868 256.644 480.709 242.485 463.243 242.485H415.295L427.027 258.808H463.243C471.694 258.808 478.546 265.659 478.546 274.11C478.546 282.562 471.694 289.413 463.243 289.413H458.142L449.216 305.735H463.243C480.709 305.735 494.868 291.576 494.868 274.11Z" fill="#26C7BC" fill-opacity="0.1"/>
<path fill-rule="evenodd" clip-rule="evenodd" d="M528.196 242.485L560.636 289.145L551.304 304.254L508.644 242.485H528.196Z" fill="#141C29" fill-opacity="0.04"/>
<path d="M598.405 263.816L567.298 318.03H548.634L579.741 263.816H598.405Z" fill="#141C29" fill-opacity="0.04"/>
<path d="M625.452 274.11C625.452 256.644 611.293 242.485 593.827 242.485H545.879L557.611 258.808H593.827C602.278 258.808 609.13 265.659 609.13 274.11C609.13 282.562 602.278 289.413 593.827 289.413H588.726L579.8 305.735H593.827C611.293 305.735 625.452 291.576 625.452 274.11Z" fill="#26C7BC" fill-opacity="0.1"/>
<path fill-rule="evenodd" clip-rule="evenodd" d="M658.781 242.485L691.22 289.145L681.889 304.254L639.228 242.485H658.781Z" fill="#141C29" fill-opacity="0.04"/>
<path d="M728.989 263.816L697.883 318.03H679.219L710.325 263.816H728.989Z" fill="#141C29" fill-opacity="0.04"/>
<path d="M756.037 274.11C756.037 256.644 741.878 242.485 724.412 242.485H676.464L688.196 258.808H724.412C732.863 258.808 739.714 265.659 739.714 274.11C739.714 282.562 732.863 289.413 724.412 289.413H719.311L710.384 305.735H724.412C741.878 305.735 756.037 291.576 756.037 274.11Z" fill="#26C7BC" fill-opacity="0.1"/>
<path fill-rule="evenodd" clip-rule="evenodd" d="M789.365 242.485L821.804 289.145L812.472 304.254L769.812 242.485H789.365Z" fill="#141C29" fill-opacity="0.04"/>
<path d="M859.573 263.816L828.467 318.03H809.803L840.909 263.816H859.573Z" fill="#141C29" fill-opacity="0.04"/>
<path d="M886.621 274.11C886.621 256.644 872.462 242.485 854.996 242.485H807.048L818.78 258.808H854.996C863.447 258.808 870.298 265.659 870.298 274.11C870.298 282.562 863.447 289.413 854.996 289.413H849.895L840.968 305.735H854.996C872.462 305.735 886.621 291.576 886.621 274.11Z" fill="#26C7BC" fill-opacity="0.1"/>
<path fill-rule="evenodd" clip-rule="evenodd" d="M919.949 242.485L952.389 289.145L943.057 304.254L900.396 242.485H919.949Z" fill="#141C29" fill-opacity="0.04"/>
<path d="M990.158 263.816L959.051 318.03H940.387L971.494 263.816H990.158Z" fill="#141C29" fill-opacity="0.04"/>
<path d="M1017.21 274.11C1017.21 256.644 1003.05 242.485 985.58 242.485H937.632L949.364 258.808H985.58C994.031 258.808 1000.88 265.659 1000.88 274.11C1000.88 282.562 994.031 289.413 985.58 289.413H980.479L971.553 305.735H985.58C1003.05 305.735 1017.21 291.576 1017.21 274.11Z" fill="#26C7BC" fill-opacity="0.1"/>
<path fill-rule="evenodd" clip-rule="evenodd" d="M1050.53 242.485L1082.97 289.145L1073.64 304.254L1030.98 242.485H1050.53Z" fill="#141C29" fill-opacity="0.04"/>
<path d="M1120.74 263.816L1089.64 318.03H1070.97L1102.08 263.816H1120.74Z" fill="#141C29" fill-opacity="0.04"/>
<path d="M1147.79 274.11C1147.79 256.644 1133.63 242.485 1116.16 242.485H1068.22L1079.95 258.808H1116.16C1124.62 258.808 1131.47 265.659 1131.47 274.11C1131.47 282.562 1124.62 289.413 1116.16 289.413H1111.06L1102.14 305.735H1116.16C1133.63 305.735 1147.79 291.576 1147.79 274.11Z" fill="#26C7BC" fill-opacity="0.1"/>
<path fill-rule="evenodd" clip-rule="evenodd" d="M1181.12 242.485L1213.56 289.145L1204.22 304.254L1161.56 242.485H1181.12Z" fill="#141C29" fill-opacity="0.04"/>
<path d="M1251.33 263.816L1220.22 318.03H1201.56L1232.66 263.816H1251.33Z" fill="#141C29" fill-opacity="0.04"/>
<path d="M1278.37 274.11C1278.37 256.644 1264.21 242.485 1246.75 242.485H1198.8L1210.53 258.808H1246.75C1255.2 258.808 1262.05 265.659 1262.05 274.11C1262.05 282.562 1255.2 289.413 1246.75 289.413H1241.65L1232.72 305.735H1246.75C1264.21 305.735 1278.37 291.576 1278.37 274.11Z" fill="#26C7BC" fill-opacity="0.1"/>
<path fill-rule="evenodd" clip-rule="evenodd" d="M1311.7 242.485L1344.14 289.145L1334.81 304.254L1292.15 242.485H1311.7Z" fill="#141C29" fill-opacity="0.04"/>
<path d="M1381.91 263.816L1350.8 318.03H1332.14L1363.25 263.816H1381.91Z" fill="#141C29" fill-opacity="0.04"/>
<path d="M1408.96 274.11C1408.96 256.644 1394.8 242.485 1377.33 242.485H1329.38L1341.12 258.808H1377.33C1385.78 258.808 1392.64 265.659 1392.64 274.11C1392.64 282.562 1385.78 289.413 1377.33 289.413H1372.23L1363.31 305.735H1377.33C1394.8 305.735 1408.96 291.576 1408.96 274.11Z" fill="#26C7BC" fill-opacity="0.1"/>
<path fill-rule="evenodd" clip-rule="evenodd" d="M1442.29 242.485L1474.73 289.145L1465.39 304.254L1422.73 242.485H1442.29Z" fill="#141C29" fill-opacity="0.04"/>
<path d="M1512.49 263.816L1481.39 318.03H1462.72L1493.83 263.816H1512.49Z" fill="#141C29" fill-opacity="0.04"/>
<path d="M1539.54 274.11C1539.54 256.644 1525.38 242.485 1507.92 242.485H1459.97L1471.7 258.808H1507.92C1516.37 258.808 1523.22 265.659 1523.22 274.11C1523.22 282.562 1516.37 289.413 1507.92 289.413H1502.82L1493.89 305.735H1507.92C1525.38 305.735 1539.54 291.576 1539.54 274.11Z" fill="#26C7BC" fill-opacity="0.1"/>
<path fill-rule="evenodd" clip-rule="evenodd" d="M1572.87 242.485L1605.31 289.145L1595.98 304.254L1553.32 242.485H1572.87Z" fill="#141C29" fill-opacity="0.04"/>
<path d="M1643.08 263.816L1611.97 318.03H1593.31L1624.41 263.816H1643.08Z" fill="#141C29" fill-opacity="0.04"/>
<path d="M1670.13 274.11C1670.13 256.644 1655.97 242.485 1638.5 242.485H1590.55L1602.28 258.808H1638.5C1646.95 258.808 1653.8 265.659 1653.8 274.11C1653.8 282.562 1646.95 289.413 1638.5 289.413H1633.4L1624.47 305.735H1638.5C1655.97 305.735 1670.13 291.576 1670.13 274.11Z" fill="#26C7BC" fill-opacity="0.1"/>
<path fill-rule="evenodd" clip-rule="evenodd" d="M1834.04 242.485L1866.48 289.145L1857.15 304.254L1814.49 242.485H1834.04Z" fill="#141C29" fill-opacity="0.04"/>
<path d="M1904.25 263.816L1873.14 318.03H1854.48L1885.58 263.816H1904.25Z" fill="#141C29" fill-opacity="0.04"/>
<path d="M1931.29 274.11C1931.29 256.644 1917.14 242.485 1899.67 242.485H1851.72L1863.45 258.808H1899.67C1908.12 258.808 1914.97 265.659 1914.97 274.11C1914.97 282.562 1908.12 289.413 1899.67 289.413H1894.57L1885.64 305.735H1899.67C1917.14 305.735 1931.29 291.576 1931.29 274.11Z" fill="#26C7BC" fill-opacity="0.1"/>
<path fill-rule="evenodd" clip-rule="evenodd" d="M5.85981 419.475L38.2995 466.135L28.9676 481.244L-13.6929 419.475H5.85981Z" fill="#141C29" fill-opacity="0.04"/>
<path d="M76.0684 440.806L44.9618 495.02H26.2979L57.4044 440.806H76.0684Z" fill="#141C29" fill-opacity="0.04"/>
<path d="M103.116 451.1C103.116 433.634 88.9568 419.475 71.4907 419.475H23.543L35.2749 435.798H71.4907C79.9421 435.798 86.7932 442.649 86.7932 451.1C86.7932 459.552 79.9421 466.403 71.4907 466.403H66.3899L57.4635 482.725H71.4907C88.9568 482.725 103.116 468.566 103.116 451.1Z" fill="#26C7BC" fill-opacity="0.1"/>
<path fill-rule="evenodd" clip-rule="evenodd" d="M136.444 419.475L168.884 466.135L159.552 481.244L116.891 419.475H136.444Z" fill="#141C29" fill-opacity="0.04"/>
<path d="M206.652 440.805L175.546 495.02H156.882L187.988 440.805H206.652Z" fill="#141C29" fill-opacity="0.04"/>
<path d="M233.7 451.1C233.7 433.634 219.541 419.475 202.075 419.475H154.127L165.859 435.798H202.075C210.526 435.798 217.377 442.649 217.377 451.1C217.377 459.551 210.526 466.403 202.075 466.403H196.974L188.047 482.725H202.075C219.541 482.725 233.7 468.566 233.7 451.1Z" fill="#26C7BC" fill-opacity="0.1"/>
<path fill-rule="evenodd" clip-rule="evenodd" d="M267.028 419.475L299.468 466.135L290.136 481.244L247.476 419.475H267.028Z" fill="#141C29" fill-opacity="0.04"/>
<path d="M337.237 440.805L306.13 495.02H287.466L318.573 440.805H337.237Z" fill="#141C29" fill-opacity="0.04"/>
<path d="M364.284 451.1C364.284 433.634 350.125 419.475 332.659 419.475H284.711L296.443 435.798H332.659C341.111 435.798 347.962 442.649 347.962 451.1C347.962 459.551 341.111 466.403 332.659 466.403H327.558L318.632 482.725H332.659C350.125 482.725 364.284 468.566 364.284 451.1Z" fill="#26C7BC" fill-opacity="0.1"/>
<path fill-rule="evenodd" clip-rule="evenodd" d="M397.612 419.475L430.052 466.135L420.72 481.244L378.06 419.475H397.612Z" fill="#141C29" fill-opacity="0.04"/>
<path d="M467.821 440.805L436.714 495.02H418.05L449.157 440.805H467.821Z" fill="#141C29" fill-opacity="0.04"/>
<path d="M494.868 451.1C494.868 433.634 480.709 419.475 463.243 419.475H415.295L427.027 435.798H463.243C471.694 435.798 478.546 442.649 478.546 451.1C478.546 459.551 471.694 466.403 463.243 466.403H458.142L449.216 482.725H463.243C480.709 482.725 494.868 468.566 494.868 451.1Z" fill="#26C7BC" fill-opacity="0.1"/>
<path fill-rule="evenodd" clip-rule="evenodd" d="M528.196 419.475L560.636 466.135L551.304 481.244L508.644 419.475H528.196Z" fill="#141C29" fill-opacity="0.04"/>
<path d="M598.405 440.805L567.298 495.02H548.634L579.741 440.805H598.405Z" fill="#141C29" fill-opacity="0.04"/>
<path d="M625.452 451.1C625.452 433.634 611.293 419.475 593.827 419.475H545.879L557.611 435.798H593.827C602.278 435.798 609.13 442.649 609.13 451.1C609.13 459.551 602.278 466.403 593.827 466.403H588.726L579.8 482.725H593.827C611.293 482.725 625.452 468.566 625.452 451.1Z" fill="#26C7BC" fill-opacity="0.1"/>
<path fill-rule="evenodd" clip-rule="evenodd" d="M658.781 419.475L691.22 466.135L681.889 481.244L639.228 419.475H658.781Z" fill="#141C29" fill-opacity="0.04"/>
<path d="M728.989 440.805L697.883 495.02H679.219L710.325 440.805H728.989Z" fill="#141C29" fill-opacity="0.04"/>
<path d="M756.037 451.1C756.037 433.634 741.878 419.475 724.412 419.475H676.464L688.196 435.798H724.412C732.863 435.798 739.714 442.649 739.714 451.1C739.714 459.551 732.863 466.403 724.412 466.403H719.311L710.384 482.725H724.412C741.878 482.725 756.037 468.566 756.037 451.1Z" fill="#26C7BC" fill-opacity="0.1"/>
<path fill-rule="evenodd" clip-rule="evenodd" d="M789.365 419.475L821.804 466.135L812.472 481.244L769.812 419.475H789.365Z" fill="#141C29" fill-opacity="0.04"/>
<path d="M859.573 440.805L828.467 495.02H809.803L840.909 440.805H859.573Z" fill="#141C29" fill-opacity="0.04"/>
<path d="M886.621 451.1C886.621 433.634 872.462 419.475 854.996 419.475H807.048L818.78 435.798H854.996C863.447 435.798 870.298 442.649 870.298 451.1C870.298 459.551 863.447 466.403 854.996 466.403H849.895L840.968 482.725H854.996C872.462 482.725 886.621 468.566 886.621 451.1Z" fill="#26C7BC" fill-opacity="0.1"/>
<path fill-rule="evenodd" clip-rule="evenodd" d="M919.949 419.475L952.389 466.135L943.057 481.244L900.396 419.475H919.949Z" fill="#141C29" fill-opacity="0.04"/>
<path d="M990.158 440.805L959.051 495.02H940.387L971.494 440.805H990.158Z" fill="#141C29" fill-opacity="0.04"/>
<path d="M1017.21 451.1C1017.21 433.634 1003.05 419.475 985.58 419.475H937.632L949.364 435.798H985.58C994.031 435.798 1000.88 442.649 1000.88 451.1C1000.88 459.551 994.031 466.403 985.58 466.403H980.479L971.553 482.725H985.58C1003.05 482.725 1017.21 468.566 1017.21 451.1Z" fill="#26C7BC" fill-opacity="0.1"/>
<path fill-rule="evenodd" clip-rule="evenodd" d="M1050.53 419.475L1082.97 466.135L1073.64 481.244L1030.98 419.475H1050.53Z" fill="#141C29" fill-opacity="0.04"/>
<path d="M1120.74 440.805L1089.64 495.02H1070.97L1102.08 440.805H1120.74Z" fill="#141C29" fill-opacity="0.04"/>
<path d="M1147.79 451.1C1147.79 433.634 1133.63 419.475 1116.16 419.475H1068.22L1079.95 435.798H1116.16C1124.62 435.798 1131.47 442.649 1131.47 451.1C1131.47 459.551 1124.62 466.403 1116.16 466.403H1111.06L1102.14 482.725H1116.16C1133.63 482.725 1147.79 468.566 1147.79 451.1Z" fill="#26C7BC" fill-opacity="0.1"/>
<path fill-rule="evenodd" clip-rule="evenodd" d="M1181.12 419.475L1213.56 466.135L1204.22 481.244L1161.56 419.475H1181.12Z" fill="#141C29" fill-opacity="0.04"/>
<path d="M1251.33 440.805L1220.22 495.02H1201.56L1232.66 440.805H1251.33Z" fill="#141C29" fill-opacity="0.04"/>
<path d="M1278.37 451.1C1278.37 433.634 1264.21 419.475 1246.75 419.475H1198.8L1210.53 435.798H1246.75C1255.2 435.798 1262.05 442.649 1262.05 451.1C1262.05 459.551 1255.2 466.403 1246.75 466.403H1241.65L1232.72 482.725H1246.75C1264.21 482.725 1278.37 468.566 1278.37 451.1Z" fill="#26C7BC" fill-opacity="0.1"/>
<path fill-rule="evenodd" clip-rule="evenodd" d="M1311.7 419.475L1344.14 466.135L1334.81 481.244L1292.15 419.475H1311.7Z" fill="#141C29" fill-opacity="0.04"/>
<path d="M1381.91 440.805L1350.8 495.02H1332.14L1363.25 440.805H1381.91Z" fill="#141C29" fill-opacity="0.04"/>
<path d="M1408.96 451.1C1408.96 433.634 1394.8 419.475 1377.33 419.475H1329.38L1341.12 435.798H1377.33C1385.78 435.798 1392.64 442.649 1392.64 451.1C1392.64 459.551 1385.78 466.403 1377.33 466.403H1372.23L1363.31 482.725H1377.33C1394.8 482.725 1408.96 468.566 1408.96 451.1Z" fill="#26C7BC" fill-opacity="0.1"/>
<path fill-rule="evenodd" clip-rule="evenodd" d="M1442.29 419.475L1474.73 466.135L1465.39 481.244L1422.73 419.475H1442.29Z" fill="#141C29" fill-opacity="0.04"/>
<path d="M1512.49 440.805L1481.39 495.02H1462.72L1493.83 440.805H1512.49Z" fill="#141C29" fill-opacity="0.04"/>
<path d="M1539.54 451.1C1539.54 433.634 1525.38 419.475 1507.92 419.475H1459.97L1471.7 435.798H1507.92C1516.37 435.798 1523.22 442.649 1523.22 451.1C1523.22 459.551 1516.37 466.403 1507.92 466.403H1502.82L1493.89 482.725H1507.92C1525.38 482.725 1539.54 468.566 1539.54 451.1Z" fill="#26C7BC" fill-opacity="0.1"/>
<path fill-rule="evenodd" clip-rule="evenodd" d="M1572.87 419.475L1605.31 466.135L1595.98 481.244L1553.32 419.475H1572.87Z" fill="#141C29" fill-opacity="0.04"/>
<path d="M1643.08 440.805L1611.97 495.02H1593.31L1624.41 440.805H1643.08Z" fill="#141C29" fill-opacity="0.04"/>
<path d="M1670.13 451.1C1670.13 433.634 1655.97 419.475 1638.5 419.475H1590.55L1602.28 435.798H1638.5C1646.95 435.798 1653.8 442.649 1653.8 451.1C1653.8 459.551 1646.95 466.403 1638.5 466.403H1633.4L1624.47 482.725H1638.5C1655.97 482.725 1670.13 468.566 1670.13 451.1Z" fill="#26C7BC" fill-opacity="0.1"/>
<path fill-rule="evenodd" clip-rule="evenodd" d="M1703.45 419.475L1735.89 466.135L1726.56 481.244L1683.9 419.475H1703.45Z" fill="#141C29" fill-opacity="0.04"/>
<path d="M1773.66 440.805L1742.56 495.02H1723.89L1755 440.805H1773.66Z" fill="#141C29" fill-opacity="0.04"/>
<path d="M1800.71 451.1C1800.71 433.634 1786.55 419.475 1769.09 419.475H1721.14L1732.87 435.798H1769.09C1777.54 435.798 1784.39 442.649 1784.39 451.1C1784.39 459.551 1777.54 466.403 1769.09 466.403H1763.98L1755.06 482.725H1769.09C1786.55 482.725 1800.71 468.566 1800.71 451.1Z" fill="#26C7BC" fill-opacity="0.1"/>
<path fill-rule="evenodd" clip-rule="evenodd" d="M1834.04 419.475L1866.48 466.135L1857.15 481.244L1814.49 419.475H1834.04Z" fill="#141C29" fill-opacity="0.04"/>
<path d="M1904.25 440.805L1873.14 495.02H1854.48L1885.58 440.805H1904.25Z" fill="#141C29" fill-opacity="0.04"/>
<path d="M1931.29 451.1C1931.29 433.634 1917.14 419.475 1899.67 419.475H1851.72L1863.45 435.798H1899.67C1908.12 435.798 1914.97 442.649 1914.97 451.1C1914.97 459.551 1908.12 466.403 1899.67 466.403H1894.57L1885.64 482.725H1899.67C1917.14 482.725 1931.29 468.566 1931.29 451.1Z" fill="#26C7BC" fill-opacity="0.1"/>
<path fill-rule="evenodd" clip-rule="evenodd" d="M5.85981 596.465L38.2995 643.125L28.9676 658.234L-13.6929 596.465H5.85981Z" fill="#141C29" fill-opacity="0.04"/>
<path d="M76.0684 617.796L44.9618 672.01H26.2979L57.4044 617.796H76.0684Z" fill="#141C29" fill-opacity="0.04"/>
<path d="M103.116 628.09C103.116 610.624 88.9568 596.465 71.4907 596.465H23.543L35.2749 612.788H71.4907C79.9421 612.788 86.7932 619.639 86.7932 628.09C86.7932 636.542 79.9421 643.393 71.4907 643.393H66.3899L57.4635 659.716H71.4907C88.9568 659.716 103.116 645.557 103.116 628.09Z" fill="#26C7BC" fill-opacity="0.1"/>
<path fill-rule="evenodd" clip-rule="evenodd" d="M136.444 596.465L168.884 643.125L159.552 658.234L116.891 596.465H136.444Z" fill="#141C29" fill-opacity="0.04"/>
<path d="M206.652 617.796L175.546 672.01H156.882L187.988 617.796H206.652Z" fill="#141C29" fill-opacity="0.04"/>
<path d="M233.7 628.09C233.7 610.624 219.541 596.465 202.075 596.465H154.127L165.859 612.788H202.075C210.526 612.788 217.377 619.639 217.377 628.09C217.377 636.542 210.526 643.393 202.075 643.393H196.974L188.047 659.716H202.075C219.541 659.716 233.7 645.557 233.7 628.09Z" fill="#26C7BC" fill-opacity="0.1"/>
<path fill-rule="evenodd" clip-rule="evenodd" d="M267.028 596.465L299.468 643.125L290.136 658.234L247.476 596.465H267.028Z" fill="#141C29" fill-opacity="0.04"/>
<path d="M337.237 617.796L306.13 672.01H287.466L318.573 617.796H337.237Z" fill="#141C29" fill-opacity="0.04"/>
<path d="M364.284 628.09C364.284 610.624 350.125 596.465 332.659 596.465H284.711L296.443 612.788H332.659C341.111 612.788 347.962 619.639 347.962 628.09C347.962 636.542 341.111 643.393 332.659 643.393H327.558L318.632 659.716H332.659C350.125 659.716 364.284 645.557 364.284 628.09Z" fill="#26C7BC" fill-opacity="0.1"/>
<path fill-rule="evenodd" clip-rule="evenodd" d="M397.612 596.465L430.052 643.125L420.72 658.234L378.06 596.465H397.612Z" fill="#141C29" fill-opacity="0.04"/>
<path d="M467.821 617.796L436.714 672.01H418.05L449.157 617.796H467.821Z" fill="#141C29" fill-opacity="0.04"/>
<path d="M494.868 628.09C494.868 610.624 480.709 596.465 463.243 596.465H415.295L427.027 612.788H463.243C471.694 612.788 478.546 619.639 478.546 628.09C478.546 636.542 471.694 643.393 463.243 643.393H458.142L449.216 659.716H463.243C480.709 659.716 494.868 645.557 494.868 628.09Z" fill="#26C7BC" fill-opacity="0.1"/>
<path fill-rule="evenodd" clip-rule="evenodd" d="M528.196 596.465L560.636 643.125L551.304 658.234L508.644 596.465H528.196Z" fill="#141C29" fill-opacity="0.04"/>
<path d="M598.405 617.796L567.298 672.01H548.634L579.741 617.796H598.405Z" fill="#141C29" fill-opacity="0.04"/>
<path d="M625.452 628.09C625.452 610.624 611.293 596.465 593.827 596.465H545.879L557.611 612.788H593.827C602.278 612.788 609.13 619.639 609.13 628.09C609.13 636.542 602.278 643.393 593.827 643.393H588.726L579.8 659.716H593.827C611.293 659.716 625.452 645.557 625.452 628.09Z" fill="#26C7BC" fill-opacity="0.1"/>
<path fill-rule="evenodd" clip-rule="evenodd" d="M658.781 596.465L691.22 643.125L681.889 658.234L639.228 596.465H658.781Z" fill="#141C29" fill-opacity="0.04"/>
<path d="M728.989 617.796L697.883 672.01H679.219L710.325 617.796H728.989Z" fill="#141C29" fill-opacity="0.04"/>
<path d="M756.037 628.09C756.037 610.624 741.878 596.465 724.412 596.465H676.464L688.196 612.788H724.412C732.863 612.788 739.714 619.639 739.714 628.09C739.714 636.542 732.863 643.393 724.412 643.393H719.311L710.384 659.716H724.412C741.878 659.716 756.037 645.557 756.037 628.09Z" fill="#26C7BC" fill-opacity="0.1"/>
<path fill-rule="evenodd" clip-rule="evenodd" d="M789.365 596.465L821.804 643.125L812.472 658.234L769.812 596.465H789.365Z" fill="#141C29" fill-opacity="0.04"/>
<path d="M859.573 617.796L828.467 672.01H809.803L840.909 617.796H859.573Z" fill="#141C29" fill-opacity="0.04"/>
<path d="M886.621 628.09C886.621 610.624 872.462 596.465 854.996 596.465H807.048L818.78 612.788H854.996C863.447 612.788 870.298 619.639 870.298 628.09C870.298 636.542 863.447 643.393 854.996 643.393H849.895L840.968 659.716H854.996C872.462 659.716 886.621 645.557 886.621 628.09Z" fill="#26C7BC" fill-opacity="0.1"/>
<path fill-rule="evenodd" clip-rule="evenodd" d="M919.949 596.465L952.389 643.125L943.057 658.234L900.396 596.465H919.949Z" fill="#141C29" fill-opacity="0.04"/>
<path d="M990.158 617.796L959.051 672.01H940.387L971.494 617.796H990.158Z" fill="#141C29" fill-opacity="0.04"/>
<path d="M1017.21 628.09C1017.21 610.624 1003.05 596.465 985.58 596.465H937.632L949.364 612.788H985.58C994.031 612.788 1000.88 619.639 1000.88 628.09C1000.88 636.542 994.031 643.393 985.58 643.393H980.479L971.553 659.716H985.58C1003.05 659.716 1017.21 645.557 1017.21 628.09Z" fill="#26C7BC" fill-opacity="0.1"/>
<path fill-rule="evenodd" clip-rule="evenodd" d="M1050.53 596.465L1082.97 643.125L1073.64 658.234L1030.98 596.465H1050.53Z" fill="#141C29" fill-opacity="0.04"/>
<path d="M1120.74 617.796L1089.64 672.01H1070.97L1102.08 617.796H1120.74Z" fill="#141C29" fill-opacity="0.04"/>
<path d="M1147.79 628.09C1147.79 610.624 1133.63 596.465 1116.16 596.465H1068.22L1079.95 612.788H1116.16C1124.62 612.788 1131.47 619.639 1131.47 628.09C1131.47 636.542 1124.62 643.393 1116.16 643.393H1111.06L1102.14 659.716H1116.16C1133.63 659.716 1147.79 645.557 1147.79 628.09Z" fill="#26C7BC" fill-opacity="0.1"/>
<path fill-rule="evenodd" clip-rule="evenodd" d="M1181.12 596.465L1213.56 643.125L1204.22 658.234L1161.56 596.465H1181.12Z" fill="#141C29" fill-opacity="0.04"/>
<path d="M1251.33 617.796L1220.22 672.01H1201.56L1232.66 617.796H1251.33Z" fill="#141C29" fill-opacity="0.04"/>
<path d="M1278.37 628.09C1278.37 610.624 1264.21 596.465 1246.75 596.465H1198.8L1210.53 612.788H1246.75C1255.2 612.788 1262.05 619.639 1262.05 628.09C1262.05 636.542 1255.2 643.393 1246.75 643.393H1241.65L1232.72 659.716H1246.75C1264.21 659.716 1278.37 645.557 1278.37 628.09Z" fill="#26C7BC" fill-opacity="0.1"/>
<path fill-rule="evenodd" clip-rule="evenodd" d="M1311.7 596.465L1344.14 643.125L1334.81 658.234L1292.15 596.465H1311.7Z" fill="#141C29" fill-opacity="0.04"/>
<path d="M1381.91 617.796L1350.8 672.01H1332.14L1363.25 617.796H1381.91Z" fill="#141C29" fill-opacity="0.04"/>
<path d="M1408.96 628.09C1408.96 610.624 1394.8 596.465 1377.33 596.465H1329.38L1341.12 612.788H1377.33C1385.78 612.788 1392.64 619.639 1392.64 628.09C1392.64 636.542 1385.78 643.393 1377.33 643.393H1372.23L1363.31 659.716H1377.33C1394.8 659.716 1408.96 645.557 1408.96 628.09Z" fill="#26C7BC" fill-opacity="0.1"/>
<path fill-rule="evenodd" clip-rule="evenodd" d="M1442.29 596.465L1474.73 643.125L1465.39 658.234L1422.73 596.465H1442.29Z" fill="#141C29" fill-opacity="0.04"/>
<path d="M1512.49 617.796L1481.39 672.01H1462.72L1493.83 617.796H1512.49Z" fill="#141C29" fill-opacity="0.04"/>
<path d="M1539.54 628.09C1539.54 610.624 1525.38 596.465 1507.92 596.465H1459.97L1471.7 612.788H1507.92C1516.37 612.788 1523.22 619.639 1523.22 628.09C1523.22 636.542 1516.37 643.393 1507.92 643.393H1502.82L1493.89 659.716H1507.92C1525.38 659.716 1539.54 645.557 1539.54 628.09Z" fill="#26C7BC" fill-opacity="0.1"/>
<path fill-rule="evenodd" clip-rule="evenodd" d="M1572.87 596.465L1605.31 643.125L1595.98 658.234L1553.32 596.465H1572.87Z" fill="#141C29" fill-opacity="0.04"/>
<path d="M1643.08 617.796L1611.97 672.01H1593.31L1624.41 617.796H1643.08Z" fill="#141C29" fill-opacity="0.04"/>
<path d="M1670.13 628.09C1670.13 610.624 1655.97 596.465 1638.5 596.465H1590.55L1602.28 612.788H1638.5C1646.95 612.788 1653.8 619.639 1653.8 628.09C1653.8 636.542 1646.95 643.393 1638.5 643.393H1633.4L1624.47 659.716H1638.5C1655.97 659.716 1670.13 645.557 1670.13 628.09Z" fill="#26C7BC" fill-opacity="0.1"/>
<path fill-rule="evenodd" clip-rule="evenodd" d="M1703.45 596.465L1735.89 643.125L1726.56 658.234L1683.9 596.465H1703.45Z" fill="#141C29" fill-opacity="0.04"/>
<path d="M1773.66 617.796L1742.56 672.01H1723.89L1755 617.796H1773.66Z" fill="#141C29" fill-opacity="0.04"/>
<path d="M1800.71 628.09C1800.71 610.624 1786.55 596.465 1769.09 596.465H1721.14L1732.87 612.788H1769.09C1777.54 612.788 1784.39 619.639 1784.39 628.09C1784.39 636.542 1777.54 643.393 1769.09 643.393H1763.98L1755.06 659.716H1769.09C1786.55 659.716 1800.71 645.557 1800.71 628.09Z" fill="#26C7BC" fill-opacity="0.1"/>
<path fill-rule="evenodd" clip-rule="evenodd" d="M1834.04 596.465L1866.48 643.125L1857.15 658.234L1814.49 596.465H1834.04Z" fill="#141C29" fill-opacity="0.04"/>
<path d="M1904.25 617.796L1873.14 672.01H1854.48L1885.58 617.796H1904.25Z" fill="#141C29" fill-opacity="0.04"/>
<path d="M1931.29 628.09C1931.29 610.624 1917.14 596.465 1899.67 596.465H1851.72L1863.45 612.788H1899.67C1908.12 612.788 1914.97 619.639 1914.97 628.09C1914.97 636.542 1908.12 643.393 1899.67 643.393H1894.57L1885.64 659.716H1899.67C1917.14 659.716 1931.29 645.557 1931.29 628.09Z" fill="#26C7BC" fill-opacity="0.1"/>
<path fill-rule="evenodd" clip-rule="evenodd" d="M5.85981 773.455L38.2995 820.115L28.9676 835.224L-13.6929 773.455H5.85981Z" fill="#141C29" fill-opacity="0.04"/>
<path d="M76.0684 794.786L44.9618 849H26.2979L57.4044 794.786H76.0684Z" fill="#141C29" fill-opacity="0.04"/>
<path d="M103.116 805.08C103.116 787.614 88.9568 773.455 71.4907 773.455H23.543L35.2749 789.778H71.4907C79.9421 789.778 86.7932 796.629 86.7932 805.08C86.7932 813.532 79.9421 820.383 71.4907 820.383H66.3899L57.4635 836.706H71.4907C88.9568 836.706 103.116 822.547 103.116 805.08Z" fill="#26C7BC" fill-opacity="0.1"/>
<path fill-rule="evenodd" clip-rule="evenodd" d="M136.444 773.455L168.884 820.115L159.552 835.224L116.891 773.455H136.444Z" fill="#141C29" fill-opacity="0.04"/>
<path d="M206.652 794.786L175.546 849H156.882L187.988 794.786H206.652Z" fill="#141C29" fill-opacity="0.04"/>
<path d="M233.7 805.08C233.7 787.614 219.541 773.455 202.075 773.455H154.127L165.859 789.778H202.075C210.526 789.778 217.377 796.629 217.377 805.08C217.377 813.532 210.526 820.383 202.075 820.383H196.974L188.047 836.705H202.075C219.541 836.705 233.7 822.546 233.7 805.08Z" fill="#26C7BC" fill-opacity="0.1"/>
<path fill-rule="evenodd" clip-rule="evenodd" d="M267.028 773.455L299.468 820.115L290.136 835.224L247.476 773.455H267.028Z" fill="#141C29" fill-opacity="0.04"/>
<path d="M337.237 794.786L306.13 849H287.466L318.573 794.786H337.237Z" fill="#141C29" fill-opacity="0.04"/>
<path d="M364.284 805.08C364.284 787.614 350.125 773.455 332.659 773.455H284.711L296.443 789.778H332.659C341.111 789.778 347.962 796.629 347.962 805.08C347.962 813.532 341.111 820.383 332.659 820.383H327.558L318.632 836.705H332.659C350.125 836.705 364.284 822.546 364.284 805.08Z" fill="#26C7BC" fill-opacity="0.1"/>
<path fill-rule="evenodd" clip-rule="evenodd" d="M397.612 773.455L430.052 820.115L420.72 835.224L378.06 773.455H397.612Z" fill="#141C29" fill-opacity="0.04"/>
<path d="M467.821 794.786L436.714 849H418.05L449.157 794.786H467.821Z" fill="#141C29" fill-opacity="0.04"/>
<path d="M494.868 805.08C494.868 787.614 480.709 773.455 463.243 773.455H415.295L427.027 789.778H463.243C471.694 789.778 478.546 796.629 478.546 805.08C478.546 813.532 471.694 820.383 463.243 820.383H458.142L449.216 836.705H463.243C480.709 836.705 494.868 822.546 494.868 805.08Z" fill="#26C7BC" fill-opacity="0.1"/>
<path fill-rule="evenodd" clip-rule="evenodd" d="M528.196 773.455L560.636 820.115L551.304 835.224L508.644 773.455H528.196Z" fill="#141C29" fill-opacity="0.04"/>
<path d="M598.405 794.786L567.298 849H548.634L579.741 794.786H598.405Z" fill="#141C29" fill-opacity="0.04"/>
<path d="M625.452 805.08C625.452 787.614 611.293 773.455 593.827 773.455H545.879L557.611 789.778H593.827C602.278 789.778 609.13 796.629 609.13 805.08C609.13 813.532 602.278 820.383 593.827 820.383H588.726L579.8 836.705H593.827C611.293 836.705 625.452 822.546 625.452 805.08Z" fill="#26C7BC" fill-opacity="0.1"/>
<path fill-rule="evenodd" clip-rule="evenodd" d="M658.781 773.455L691.22 820.115L681.889 835.224L639.228 773.455H658.781Z" fill="#141C29" fill-opacity="0.04"/>
<path d="M728.989 794.786L697.883 849H679.219L710.325 794.786H728.989Z" fill="#141C29" fill-opacity="0.04"/>
<path d="M756.037 805.08C756.037 787.614 741.878 773.455 724.412 773.455H676.464L688.196 789.778H724.412C732.863 789.778 739.714 796.629 739.714 805.08C739.714 813.532 732.863 820.383 724.412 820.383H719.311L710.384 836.705H724.412C741.878 836.705 756.037 822.546 756.037 805.08Z" fill="#26C7BC" fill-opacity="0.1"/>
<path fill-rule="evenodd" clip-rule="evenodd" d="M789.365 773.455L821.804 820.115L812.472 835.224L769.812 773.455H789.365Z" fill="#141C29" fill-opacity="0.04"/>
<path d="M859.573 794.786L828.467 849H809.803L840.909 794.786H859.573Z" fill="#141C29" fill-opacity="0.04"/>
<path d="M886.621 805.08C886.621 787.614 872.462 773.455 854.996 773.455H807.048L818.78 789.778H854.996C863.447 789.778 870.298 796.629 870.298 805.08C870.298 813.532 863.447 820.383 854.996 820.383H849.895L840.968 836.705H854.996C872.462 836.705 886.621 822.546 886.621 805.08Z" fill="#26C7BC" fill-opacity="0.1"/>
<path fill-rule="evenodd" clip-rule="evenodd" d="M919.949 773.455L952.389 820.115L943.057 835.224L900.396 773.455H919.949Z" fill="#141C29" fill-opacity="0.04"/>
<path d="M990.158 794.786L959.051 849H940.387L971.494 794.786H990.158Z" fill="#141C29" fill-opacity="0.04"/>
<path d="M1017.21 805.08C1017.21 787.614 1003.05 773.455 985.58 773.455H937.632L949.364 789.778H985.58C994.031 789.778 1000.88 796.629 1000.88 805.08C1000.88 813.532 994.031 820.383 985.58 820.383H980.479L971.553 836.705H985.58C1003.05 836.705 1017.21 822.546 1017.21 805.08Z" fill="#26C7BC" fill-opacity="0.1"/>
<path fill-rule="evenodd" clip-rule="evenodd" d="M1050.53 773.455L1082.97 820.115L1073.64 835.224L1030.98 773.455H1050.53Z" fill="#141C29" fill-opacity="0.04"/>
<path d="M1120.74 794.786L1089.64 849H1070.97L1102.08 794.786H1120.74Z" fill="#141C29" fill-opacity="0.04"/>
<path d="M1147.79 805.08C1147.79 787.614 1133.63 773.455 1116.16 773.455H1068.22L1079.95 789.778H1116.16C1124.62 789.778 1131.47 796.629 1131.47 805.08C1131.47 813.532 1124.62 820.383 1116.16 820.383H1111.06L1102.14 836.705H1116.16C1133.63 836.705 1147.79 822.546 1147.79 805.08Z" fill="#26C7BC" fill-opacity="0.1"/>
<path fill-rule="evenodd" clip-rule="evenodd" d="M1181.12 773.455L1213.56 820.115L1204.22 835.224L1161.56 773.455H1181.12Z" fill="#141C29" fill-opacity="0.04"/>
<path d="M1251.33 794.786L1220.22 849H1201.56L1232.66 794.786H1251.33Z" fill="#141C29" fill-opacity="0.04"/>
<path d="M1278.37 805.08C1278.37 787.614 1264.21 773.455 1246.75 773.455H1198.8L1210.53 789.778H1246.75C1255.2 789.778 1262.05 796.629 1262.05 805.08C1262.05 813.532 1255.2 820.383 1246.75 820.383H1241.65L1232.72 836.705H1246.75C1264.21 836.705 1278.37 822.546 1278.37 805.08Z" fill="#26C7BC" fill-opacity="0.1"/>
<path fill-rule="evenodd" clip-rule="evenodd" d="M1311.7 773.455L1344.14 820.115L1334.81 835.224L1292.15 773.455H1311.7Z" fill="#141C29" fill-opacity="0.04"/>
<path d="M1381.91 794.786L1350.8 849H1332.14L1363.25 794.786H1381.91Z" fill="#141C29" fill-opacity="0.04"/>
<path d="M1408.96 805.08C1408.96 787.614 1394.8 773.455 1377.33 773.455H1329.38L1341.12 789.778H1377.33C1385.78 789.778 1392.64 796.629 1392.64 805.08C1392.64 813.532 1385.78 820.383 1377.33 820.383H1372.23L1363.31 836.705H1377.33C1394.8 836.705 1408.96 822.546 1408.96 805.08Z" fill="#26C7BC" fill-opacity="0.1"/>
<path fill-rule="evenodd" clip-rule="evenodd" d="M1442.29 773.455L1474.73 820.115L1465.39 835.224L1422.73 773.455H1442.29Z" fill="#141C29" fill-opacity="0.04"/>
<path d="M1512.49 794.786L1481.39 849H1462.72L1493.83 794.786H1512.49Z" fill="#141C29" fill-opacity="0.04"/>
<path d="M1539.54 805.08C1539.54 787.614 1525.38 773.455 1507.92 773.455H1459.97L1471.7 789.778H1507.92C1516.37 789.778 1523.22 796.629 1523.22 805.08C1523.22 813.532 1516.37 820.383 1507.92 820.383H1502.82L1493.89 836.705H1507.92C1525.38 836.705 1539.54 822.546 1539.54 805.08Z" fill="#26C7BC" fill-opacity="0.1"/>
<path fill-rule="evenodd" clip-rule="evenodd" d="M1572.87 773.455L1605.31 820.115L1595.98 835.224L1553.32 773.455H1572.87Z" fill="#141C29" fill-opacity="0.04"/>
<path d="M1643.08 794.786L1611.97 849H1593.31L1624.41 794.786H1643.08Z" fill="#141C29" fill-opacity="0.04"/>
<path d="M1670.13 805.08C1670.13 787.614 1655.97 773.455 1638.5 773.455H1590.55L1602.28 789.778H1638.5C1646.95 789.778 1653.8 796.629 1653.8 805.08C1653.8 813.532 1646.95 820.383 1638.5 820.383H1633.4L1624.47 836.705H1638.5C1655.97 836.705 1670.13 822.546 1670.13 805.08Z" fill="#26C7BC" fill-opacity="0.1"/>
<path fill-rule="evenodd" clip-rule="evenodd" d="M1703.45 773.455L1735.89 820.115L1726.56 835.224L1683.9 773.455H1703.45Z" fill="#141C29" fill-opacity="0.04"/>
<path d="M1773.66 794.786L1742.56 849H1723.89L1755 794.786H1773.66Z" fill="#141C29" fill-opacity="0.04"/>
<path d="M1800.71 805.08C1800.71 787.614 1786.55 773.455 1769.09 773.455H1721.14L1732.87 789.778H1769.09C1777.54 789.778 1784.39 796.629 1784.39 805.08C1784.39 813.532 1777.54 820.383 1769.09 820.383H1763.98L1755.06 836.705H1769.09C1786.55 836.705 1800.71 822.546 1800.71 805.08Z" fill="#26C7BC" fill-opacity="0.1"/>
<path fill-rule="evenodd" clip-rule="evenodd" d="M1834.04 773.455L1866.48 820.115L1857.15 835.224L1814.49 773.455H1834.04Z" fill="#141C29" fill-opacity="0.04"/>
<path d="M1904.25 794.786L1873.14 849H1854.48L1885.58 794.786H1904.25Z" fill="#141C29" fill-opacity="0.04"/>
<path d="M1931.29 805.08C1931.29 787.614 1917.14 773.455 1899.67 773.455H1851.72L1863.45 789.778H1899.67C1908.12 789.778 1914.97 796.629 1914.97 805.08C1914.97 813.532 1908.12 820.383 1899.67 820.383H1894.57L1885.64 836.705H1899.67C1917.14 836.705 1931.29 822.546 1931.29 805.08Z" fill="#26C7BC" fill-opacity="0.1"/>
<path d="M3.76124 -1.66956L-27.3453 52.5448H-46.0093L-14.9027 -1.66956H3.76124Z" fill="#141C29" fill-opacity="0.04"/>
<path d="M30.8087 8.62513C30.8087 -8.84095 16.6497 -23 -0.816395 -23H-48.7642L-37.0323 -6.67735H-0.816395C7.63493 -6.67735 14.4861 0.173798 14.4861 8.62513C14.4861 17.0765 7.63493 23.9276 -0.816395 23.9276H-5.91722L-14.8437 40.2503H-0.816395C16.6497 40.2503 30.8087 26.0912 30.8087 8.62513Z" fill="#26C7BC" fill-opacity="0.1"/>
<path fill-rule="evenodd" clip-rule="evenodd" d="M64.1367 -23L96.5764 23.6599L87.2445 38.7688L44.584 -23H64.1367Z" fill="#141C29" fill-opacity="0.04"/>
<path d="M134.345 -1.66956L103.239 52.5448H84.5747L115.681 -1.66956H134.345Z" fill="#141C29" fill-opacity="0.04"/>
<path d="M161.393 8.62513C161.393 -8.84095 147.234 -23 129.768 -23H81.8198L93.5517 -6.67735H129.768C138.219 -6.67735 145.07 0.173798 145.07 8.62513C145.07 17.0765 138.219 23.9276 129.768 23.9276H124.667L115.74 40.2503H129.768C147.234 40.2503 161.393 26.0912 161.393 8.62513Z" fill="#26C7BC" fill-opacity="0.1"/>
<path fill-rule="evenodd" clip-rule="evenodd" d="M194.721 -23L227.161 23.6599L217.829 38.7688L175.168 -23H194.721Z" fill="#141C29" fill-opacity="0.04"/>
<path d="M264.93 -1.66956L233.823 52.5448H215.159L246.266 -1.66956H264.93Z" fill="#141C29" fill-opacity="0.04"/>
<path d="M291.977 8.62513C291.977 -8.84095 277.818 -23 260.352 -23H212.404L224.136 -6.67735H260.352C268.803 -6.67735 275.655 0.173798 275.655 8.62513C275.655 17.0765 268.803 23.9276 260.352 23.9276H255.251L246.325 40.2503H260.352C277.818 40.2503 291.977 26.0912 291.977 8.62513Z" fill="#26C7BC" fill-opacity="0.1"/>
<path fill-rule="evenodd" clip-rule="evenodd" d="M325.305 -23L357.745 23.6599L348.413 38.7688L305.752 -23H325.305Z" fill="#141C29" fill-opacity="0.04"/>
<path d="M395.514 -1.66956L364.407 52.5448H345.743L376.85 -1.66956H395.514Z" fill="#141C29" fill-opacity="0.04"/>
<path d="M422.561 8.62513C422.561 -8.84095 408.402 -23 390.936 -23H342.988L354.72 -6.67735H390.936C399.387 -6.67735 406.239 0.173798 406.239 8.62513C406.239 17.0765 399.387 23.9276 390.936 23.9276H385.835L376.909 40.2503H390.936C408.402 40.2503 422.561 26.0912 422.561 8.62513Z" fill="#26C7BC" fill-opacity="0.1"/>
<path fill-rule="evenodd" clip-rule="evenodd" d="M455.889 -23L488.329 23.6599L478.997 38.7688L436.336 -23H455.889Z" fill="#141C29" fill-opacity="0.04"/>
<path d="M526.098 -1.66956L494.991 52.5448H476.327L507.434 -1.66956H526.098Z" fill="#141C29" fill-opacity="0.04"/>
<path d="M553.145 8.62513C553.145 -8.84095 538.986 -23 521.52 -23H473.572L485.304 -6.67735H521.52C529.971 -6.67735 536.823 0.173798 536.823 8.62513C536.823 17.0765 529.971 23.9276 521.52 23.9276H516.419L507.493 40.2503H521.52C538.986 40.2503 553.145 26.0912 553.145 8.62513Z" fill="#26C7BC" fill-opacity="0.1"/>
<path fill-rule="evenodd" clip-rule="evenodd" d="M586.474 -23L618.913 23.6599L609.581 38.7688L566.921 -23H586.474Z" fill="#141C29" fill-opacity="0.04"/>
<path d="M656.682 -1.66956L625.576 52.5448H606.912L638.018 -1.66956H656.682Z" fill="#141C29" fill-opacity="0.04"/>
<path d="M683.73 8.62513C683.73 -8.84095 669.571 -23 652.105 -23H604.157L615.889 -6.67735H652.105C660.556 -6.67735 667.407 0.173798 667.407 8.62513C667.407 17.0765 660.556 23.9276 652.105 23.9276H647.004L638.077 40.2503H652.105C669.571 40.2503 683.73 26.0912 683.73 8.62513Z" fill="#26C7BC" fill-opacity="0.1"/>
<path fill-rule="evenodd" clip-rule="evenodd" d="M717.058 -23L749.497 23.6599L740.165 38.7688L697.505 -23H717.058Z" fill="#141C29" fill-opacity="0.04"/>
<path d="M787.266 -1.66956L756.16 52.5448H737.496L768.602 -1.66956H787.266Z" fill="#141C29" fill-opacity="0.04"/>
<path d="M814.314 8.62513C814.314 -8.84095 800.155 -23 782.688 -23H734.741L746.473 -6.67735H782.688C791.14 -6.67735 797.991 0.173798 797.991 8.62513C797.991 17.0765 791.14 23.9276 782.688 23.9276H777.588L768.661 40.2503H782.688C800.155 40.2503 814.314 26.0912 814.314 8.62513Z" fill="#26C7BC" fill-opacity="0.1"/>
<path fill-rule="evenodd" clip-rule="evenodd" d="M847.642 -23L880.081 23.6599L870.749 38.7688L828.089 -23H847.642Z" fill="#141C29" fill-opacity="0.04"/>
<path d="M917.85 -1.66956L886.744 52.5448H868.08L899.186 -1.66956H917.85Z" fill="#141C29" fill-opacity="0.04"/>
<path d="M944.898 8.62513C944.898 -8.84095 930.739 -23 913.272 -23H865.325L877.057 -6.67735H913.272C921.724 -6.67735 928.575 0.173798 928.575 8.62513C928.575 17.0765 921.724 23.9276 913.272 23.9276H908.172L899.245 40.2503H913.272C930.739 40.2503 944.898 26.0912 944.898 8.62513Z" fill="#26C7BC" fill-opacity="0.1"/>
<path fill-rule="evenodd" clip-rule="evenodd" d="M978.226 -23L1010.67 23.6599L1001.33 38.7688L958.673 -23H978.226Z" fill="#141C29" fill-opacity="0.04"/>
<path d="M1048.43 -1.66956L1017.33 52.5448H998.664L1029.77 -1.66956H1048.43Z" fill="#141C29" fill-opacity="0.04"/>
<path d="M1075.48 8.62513C1075.48 -8.84095 1061.32 -23 1043.86 -23H995.909L1007.64 -6.67735H1043.86C1052.31 -6.67735 1059.16 0.173798 1059.16 8.62513C1059.16 17.0765 1052.31 23.9276 1043.86 23.9276H1038.76L1029.83 40.2503H1043.86C1061.32 40.2503 1075.48 26.0912 1075.48 8.62513Z" fill="#26C7BC" fill-opacity="0.1"/>
<path fill-rule="evenodd" clip-rule="evenodd" d="M1108.81 -23L1141.25 23.6599L1131.92 38.7688L1089.26 -23H1108.81Z" fill="#141C29" fill-opacity="0.04"/>
<path d="M1179.02 -1.66956L1147.91 52.5448H1129.25L1160.35 -1.66956H1179.02Z" fill="#141C29" fill-opacity="0.04"/>
<path d="M1206.07 8.62513C1206.07 -8.84095 1191.91 -23 1174.44 -23H1126.49L1138.23 -6.67735H1174.44C1182.89 -6.67735 1189.74 0.173798 1189.74 8.62513C1189.74 17.0765 1182.89 23.9276 1174.44 23.9276H1169.34L1160.41 40.2503H1174.44C1191.91 40.2503 1206.07 26.0912 1206.07 8.62513Z" fill="#26C7BC" fill-opacity="0.1"/>
<path fill-rule="evenodd" clip-rule="evenodd" d="M1239.39 -23L1271.83 23.6599L1262.5 38.7688L1219.84 -23H1239.39Z" fill="#141C29" fill-opacity="0.04"/>
<path d="M1309.6 -1.66956L1278.5 52.5448H1259.83L1290.94 -1.66956H1309.6Z" fill="#141C29" fill-opacity="0.04"/>
<path d="M1336.65 8.62513C1336.65 -8.84095 1322.49 -23 1305.03 -23H1257.08L1268.81 -6.67735H1305.03C1313.48 -6.67735 1320.33 0.173798 1320.33 8.62513C1320.33 17.0765 1313.48 23.9276 1305.03 23.9276H1299.93L1291 40.2503H1305.03C1322.49 40.2503 1336.65 26.0912 1336.65 8.62513Z" fill="#26C7BC" fill-opacity="0.1"/>
<path fill-rule="evenodd" clip-rule="evenodd" d="M1369.98 -23L1402.42 23.6599L1393.09 38.7688L1350.43 -23H1369.98Z" fill="#141C29" fill-opacity="0.04"/>
<path d="M1440.19 -1.66956L1409.08 52.5448H1390.42L1421.52 -1.66956H1440.19Z" fill="#141C29" fill-opacity="0.04"/>
<path d="M1467.23 8.62513C1467.23 -8.84095 1453.08 -23 1435.61 -23H1387.66L1399.39 -6.67735H1435.61C1444.06 -6.67735 1450.91 0.173798 1450.91 8.62513C1450.91 17.0765 1444.06 23.9276 1435.61 23.9276H1430.51L1421.58 40.2503H1435.61C1453.08 40.2503 1467.23 26.0912 1467.23 8.62513Z" fill="#26C7BC" fill-opacity="0.1"/>
<path fill-rule="evenodd" clip-rule="evenodd" d="M1500.56 -23L1533 23.6599L1523.67 38.7688L1481.01 -23H1500.56Z" fill="#141C29" fill-opacity="0.04"/>
<path d="M1570.77 -1.66956L1539.66 52.5448H1521L1552.11 -1.66956H1570.77Z" fill="#141C29" fill-opacity="0.04"/>
<path d="M1597.82 8.62513C1597.82 -8.84095 1583.66 -23 1566.19 -23H1518.25L1529.98 -6.67735H1566.19C1574.65 -6.67735 1581.5 0.173798 1581.5 8.62513C1581.5 17.0765 1574.65 23.9276 1566.19 23.9276H1561.09L1552.17 40.2503H1566.19C1583.66 40.2503 1597.82 26.0912 1597.82 8.62513Z" fill="#26C7BC" fill-opacity="0.1"/>
<path fill-rule="evenodd" clip-rule="evenodd" d="M1631.15 -23L1663.59 23.6599L1654.25 38.7688L1611.59 -23H1631.15Z" fill="#141C29" fill-opacity="0.04"/>
<path d="M1701.36 -1.66956L1670.25 52.5448H1651.58L1682.69 -1.66956H1701.36Z" fill="#141C29" fill-opacity="0.04"/>
<path d="M1728.4 8.62513C1728.4 -8.84095 1714.24 -23 1696.78 -23H1648.83L1660.56 -6.67735H1696.78C1705.23 -6.67735 1712.08 0.173798 1712.08 8.62513C1712.08 17.0765 1705.23 23.9276 1696.78 23.9276H1691.68L1682.75 40.2503H1696.78C1714.24 40.2503 1728.4 26.0912 1728.4 8.62513Z" fill="#26C7BC" fill-opacity="0.1"/>
<path fill-rule="evenodd" clip-rule="evenodd" d="M1761.73 -23L1794.17 23.6599L1784.84 38.7688L1742.18 -23H1761.73Z" fill="#141C29" fill-opacity="0.04"/>
<path d="M1831.94 -1.66956L1800.83 52.5448H1782.17L1813.28 -1.66956H1831.94Z" fill="#141C29" fill-opacity="0.04"/>
<path d="M1858.99 8.62513C1858.99 -8.84095 1844.83 -23 1827.36 -23H1779.41L1791.15 -6.67735H1827.36C1835.81 -6.67735 1842.66 0.173798 1842.66 8.62513C1842.66 17.0765 1835.81 23.9276 1827.36 23.9276H1822.26L1813.34 40.2503H1827.36C1844.83 40.2503 1858.99 26.0912 1858.99 8.62513Z" fill="#26C7BC" fill-opacity="0.1"/>
<path fill-rule="evenodd" clip-rule="evenodd" d="M1892.31 -23L1924.75 23.6599L1915.42 38.7688L1872.76 -23H1892.31Z" fill="#141C29" fill-opacity="0.04"/>
<path d="M1962.52 -1.66956L1931.42 52.5448H1912.75L1943.86 -1.66956H1962.52Z" fill="#141C29" fill-opacity="0.04"/>
<path d="M1989.57 8.62513C1989.57 -8.84095 1975.41 -23 1957.95 -23H1910L1921.73 -6.67735H1957.95C1966.4 -6.67735 1973.25 0.173798 1973.25 8.62513C1973.25 17.0765 1966.4 23.9276 1957.95 23.9276H1952.85L1943.92 40.2503H1957.95C1975.41 40.2503 1989.57 26.0912 1989.57 8.62513Z" fill="#26C7BC" fill-opacity="0.1"/>
<path d="M3.76124 175.321L-27.3453 229.535H-46.0093L-14.9027 175.321H3.76124Z" fill="#141C29" fill-opacity="0.04"/>
<path d="M30.8087 185.615C30.8087 168.149 16.6497 153.99 -0.816395 153.99H-48.7642L-37.0323 170.313H-0.816395C7.63493 170.313 14.4861 177.164 14.4861 185.615C14.4861 194.067 7.63493 200.918 -0.816395 200.918H-5.91722L-14.8437 217.24H-0.816395C16.6497 217.24 30.8087 203.081 30.8087 185.615Z" fill="#26C7BC" fill-opacity="0.1"/>
<path fill-rule="evenodd" clip-rule="evenodd" d="M64.1367 153.99L96.5764 200.65L87.2445 215.759L44.584 153.99H64.1367Z" fill="#141C29" fill-opacity="0.04"/>
<path d="M134.345 175.321L103.239 229.535H84.5747L115.681 175.321H134.345Z" fill="#141C29" fill-opacity="0.04"/>
<path d="M161.393 185.615C161.393 168.149 147.234 153.99 129.768 153.99H81.8198L93.5517 170.313H129.768C138.219 170.313 145.07 177.164 145.07 185.615C145.07 194.067 138.219 200.918 129.768 200.918H124.667L115.74 217.241H129.768C147.234 217.241 161.393 203.082 161.393 185.615Z" fill="#26C7BC" fill-opacity="0.1"/>
<path fill-rule="evenodd" clip-rule="evenodd" d="M194.721 153.99L227.161 200.65L217.829 215.759L175.168 153.99H194.721Z" fill="#141C29" fill-opacity="0.04"/>
<path d="M264.93 175.321L233.823 229.535H215.159L246.266 175.321H264.93Z" fill="#141C29" fill-opacity="0.04"/>
<path d="M291.977 185.615C291.977 168.149 277.818 153.99 260.352 153.99H212.404L224.136 170.313H260.352C268.803 170.313 275.655 177.164 275.655 185.615C275.655 194.067 268.803 200.918 260.352 200.918H255.251L246.325 217.241H260.352C277.818 217.241 291.977 203.082 291.977 185.615Z" fill="#26C7BC" fill-opacity="0.1"/>
<path fill-rule="evenodd" clip-rule="evenodd" d="M325.305 153.99L357.745 200.65L348.413 215.759L305.752 153.99H325.305Z" fill="#141C29" fill-opacity="0.04"/>
<path d="M395.514 175.321L364.407 229.535H345.743L376.85 175.321H395.514Z" fill="#141C29" fill-opacity="0.04"/>
<path d="M422.561 185.615C422.561 168.149 408.402 153.99 390.936 153.99H342.988L354.72 170.313H390.936C399.387 170.313 406.239 177.164 406.239 185.615C406.239 194.067 399.387 200.918 390.936 200.918H385.835L376.909 217.241H390.936C408.402 217.241 422.561 203.082 422.561 185.615Z" fill="#26C7BC" fill-opacity="0.1"/>
<path fill-rule="evenodd" clip-rule="evenodd" d="M455.889 153.99L488.329 200.65L478.997 215.759L436.336 153.99H455.889Z" fill="#141C29" fill-opacity="0.04"/>
<path d="M526.098 175.321L494.991 229.535H476.327L507.434 175.321H526.098Z" fill="#141C29" fill-opacity="0.04"/>
<path d="M553.145 185.615C553.145 168.149 538.986 153.99 521.52 153.99H473.572L485.304 170.313H521.52C529.971 170.313 536.823 177.164 536.823 185.615C536.823 194.067 529.971 200.918 521.52 200.918H516.419L507.493 217.241H521.52C538.986 217.241 553.145 203.082 553.145 185.615Z" fill="#26C7BC" fill-opacity="0.1"/>
<path fill-rule="evenodd" clip-rule="evenodd" d="M586.474 153.99L618.913 200.65L609.581 215.759L566.921 153.99H586.474Z" fill="#141C29" fill-opacity="0.04"/>
<path d="M656.682 175.321L625.576 229.535H606.912L638.018 175.321H656.682Z" fill="#141C29" fill-opacity="0.04"/>
<path d="M683.73 185.615C683.73 168.149 669.571 153.99 652.105 153.99H604.157L615.889 170.313H652.105C660.556 170.313 667.407 177.164 667.407 185.615C667.407 194.067 660.556 200.918 652.105 200.918H647.004L638.077 217.241H652.105C669.571 217.241 683.73 203.082 683.73 185.615Z" fill="#26C7BC" fill-opacity="0.1"/>
<path fill-rule="evenodd" clip-rule="evenodd" d="M717.058 153.99L749.497 200.65L740.165 215.759L697.505 153.99H717.058Z" fill="#141C29" fill-opacity="0.04"/>
<path d="M787.266 175.321L756.16 229.535H737.496L768.602 175.321H787.266Z" fill="#141C29" fill-opacity="0.04"/>
<path d="M814.314 185.615C814.314 168.149 800.155 153.99 782.688 153.99H734.741L746.473 170.313H782.688C791.14 170.313 797.991 177.164 797.991 185.615C797.991 194.067 791.14 200.918 782.688 200.918H777.588L768.661 217.241H782.688C800.155 217.241 814.314 203.082 814.314 185.615Z" fill="#26C7BC" fill-opacity="0.1"/>
<path fill-rule="evenodd" clip-rule="evenodd" d="M847.642 153.99L880.081 200.65L870.749 215.759L828.089 153.99H847.642Z" fill="#141C29" fill-opacity="0.04"/>
<path d="M917.85 175.321L886.744 229.535H868.08L899.186 175.321H917.85Z" fill="#141C29" fill-opacity="0.04"/>
<path d="M944.898 185.615C944.898 168.149 930.739 153.99 913.272 153.99H865.325L877.057 170.313H913.272C921.724 170.313 928.575 177.164 928.575 185.615C928.575 194.067 921.724 200.918 913.272 200.918H908.172L899.245 217.241H913.272C930.739 217.241 944.898 203.082 944.898 185.615Z" fill="#26C7BC" fill-opacity="0.1"/>
<path fill-rule="evenodd" clip-rule="evenodd" d="M978.226 153.99L1010.67 200.65L1001.33 215.759L958.673 153.99H978.226Z" fill="#141C29" fill-opacity="0.04"/>
<path d="M1048.43 175.321L1017.33 229.535H998.664L1029.77 175.321H1048.43Z" fill="#141C29" fill-opacity="0.04"/>
<path d="M1075.48 185.615C1075.48 168.149 1061.32 153.99 1043.86 153.99H995.909L1007.64 170.313H1043.86C1052.31 170.313 1059.16 177.164 1059.16 185.615C1059.16 194.067 1052.31 200.918 1043.86 200.918H1038.76L1029.83 217.241H1043.86C1061.32 217.241 1075.48 203.082 1075.48 185.615Z" fill="#26C7BC" fill-opacity="0.1"/>
<path fill-rule="evenodd" clip-rule="evenodd" d="M1108.81 153.99L1141.25 200.65L1131.92 215.759L1089.26 153.99H1108.81Z" fill="#141C29" fill-opacity="0.04"/>
<path d="M1179.02 175.321L1147.91 229.535H1129.25L1160.35 175.321H1179.02Z" fill="#141C29" fill-opacity="0.04"/>
<path d="M1206.07 185.615C1206.07 168.149 1191.91 153.99 1174.44 153.99H1126.49L1138.23 170.313H1174.44C1182.89 170.313 1189.74 177.164 1189.74 185.615C1189.74 194.067 1182.89 200.918 1174.44 200.918H1169.34L1160.41 217.241H1174.44C1191.91 217.241 1206.07 203.082 1206.07 185.615Z" fill="#26C7BC" fill-opacity="0.1"/>
<path fill-rule="evenodd" clip-rule="evenodd" d="M1239.39 153.99L1271.83 200.65L1262.5 215.759L1219.84 153.99H1239.39Z" fill="#141C29" fill-opacity="0.04"/>
<path d="M1309.6 175.321L1278.5 229.535H1259.83L1290.94 175.321H1309.6Z" fill="#141C29" fill-opacity="0.04"/>
<path d="M1336.65 185.615C1336.65 168.149 1322.49 153.99 1305.03 153.99H1257.08L1268.81 170.313H1305.03C1313.48 170.313 1320.33 177.164 1320.33 185.615C1320.33 194.067 1313.48 200.918 1305.03 200.918H1299.93L1291 217.241H1305.03C1322.49 217.241 1336.65 203.082 1336.65 185.615Z" fill="#26C7BC" fill-opacity="0.1"/>
<path fill-rule="evenodd" clip-rule="evenodd" d="M1369.98 153.99L1402.42 200.65L1393.09 215.759L1350.43 153.99H1369.98Z" fill="#141C29" fill-opacity="0.04"/>
<path d="M1440.19 175.321L1409.08 229.535H1390.42L1421.52 175.321H1440.19Z" fill="#141C29" fill-opacity="0.04"/>
<path d="M1467.23 185.615C1467.23 168.149 1453.08 153.99 1435.61 153.99H1387.66L1399.39 170.313H1435.61C1444.06 170.313 1450.91 177.164 1450.91 185.615C1450.91 194.067 1444.06 200.918 1435.61 200.918H1430.51L1421.58 217.241H1435.61C1453.08 217.241 1467.23 203.082 1467.23 185.615Z" fill="#26C7BC" fill-opacity="0.1"/>
<path fill-rule="evenodd" clip-rule="evenodd" d="M1500.56 153.99L1533 200.65L1523.67 215.759L1481.01 153.99H1500.56Z" fill="#141C29" fill-opacity="0.04"/>
<path d="M1570.77 175.321L1539.66 229.535H1521L1552.11 175.321H1570.77Z" fill="#141C29" fill-opacity="0.04"/>
<path d="M1597.82 185.615C1597.82 168.149 1583.66 153.99 1566.19 153.99H1518.25L1529.98 170.313H1566.19C1574.65 170.313 1581.5 177.164 1581.5 185.615C1581.5 194.067 1574.65 200.918 1566.19 200.918H1561.09L1552.17 217.241H1566.19C1583.66 217.241 1597.82 203.082 1597.82 185.615Z" fill="#26C7BC" fill-opacity="0.1"/>
<path fill-rule="evenodd" clip-rule="evenodd" d="M1703.45 242.485L1735.89 289.145L1726.56 304.254L1683.9 242.485H1703.45Z" fill="#141C29" fill-opacity="0.04"/>
<path d="M1773.66 263.816L1742.56 318.03H1723.89L1755 263.816H1773.66Z" fill="#141C29" fill-opacity="0.04"/>
<path d="M1800.71 274.11C1800.71 256.644 1786.55 242.485 1769.09 242.485H1721.14L1732.87 258.808H1769.09C1777.54 258.808 1784.39 265.659 1784.39 274.11C1784.39 282.562 1777.54 289.413 1769.09 289.413H1763.98L1755.06 305.735H1769.09C1786.55 305.735 1800.71 291.576 1800.71 274.11Z" fill="#26C7BC" fill-opacity="0.1"/>
<path fill-rule="evenodd" clip-rule="evenodd" d="M1631.15 153.99L1663.59 200.65L1654.25 215.759L1611.59 153.99H1631.15Z" fill="#141C29" fill-opacity="0.04"/>
<path d="M1701.36 175.321L1670.25 229.535H1651.58L1682.69 175.321H1701.36Z" fill="#141C29" fill-opacity="0.04"/>
<path d="M1728.4 185.615C1728.4 168.149 1714.24 153.99 1696.78 153.99H1648.83L1660.56 170.313H1696.78C1705.23 170.313 1712.08 177.164 1712.08 185.615C1712.08 194.067 1705.23 200.918 1696.78 200.918H1691.68L1682.75 217.241H1696.78C1714.24 217.241 1728.4 203.082 1728.4 185.615Z" fill="#26C7BC" fill-opacity="0.1"/>
<path fill-rule="evenodd" clip-rule="evenodd" d="M1761.73 153.99L1794.17 200.65L1784.84 215.759L1742.18 153.99H1761.73Z" fill="#141C29" fill-opacity="0.04"/>
<path d="M1831.94 175.321L1800.83 229.535H1782.17L1813.28 175.321H1831.94Z" fill="#141C29" fill-opacity="0.04"/>
<path d="M1858.99 185.615C1858.99 168.149 1844.83 153.99 1827.36 153.99H1779.41L1791.15 170.313H1827.36C1835.81 170.313 1842.66 177.164 1842.66 185.615C1842.66 194.067 1835.81 200.918 1827.36 200.918H1822.26L1813.34 217.241H1827.36C1844.83 217.241 1858.99 203.082 1858.99 185.615Z" fill="#26C7BC" fill-opacity="0.1"/>
<path fill-rule="evenodd" clip-rule="evenodd" d="M1892.31 153.99L1924.75 200.65L1915.42 215.759L1872.76 153.99H1892.31Z" fill="#141C29" fill-opacity="0.04"/>
<path d="M1962.52 175.321L1931.42 229.535H1912.75L1943.86 175.321H1962.52Z" fill="#141C29" fill-opacity="0.04"/>
<path d="M1989.57 185.615C1989.57 168.149 1975.41 153.99 1957.95 153.99H1910L1921.73 170.313H1957.95C1966.4 170.313 1973.25 177.164 1973.25 185.615C1973.25 194.067 1966.4 200.918 1957.95 200.918H1952.85L1943.92 217.241H1957.95C1975.41 217.241 1989.57 203.082 1989.57 185.615Z" fill="#26C7BC" fill-opacity="0.1"/>
<path d="M3.76124 352.311L-27.3453 406.525H-46.0093L-14.9027 352.311H3.76124Z" fill="#141C29" fill-opacity="0.04"/>
<path d="M30.8087 362.605C30.8087 345.139 16.6497 330.98 -0.816395 330.98H-48.7642L-37.0323 347.303H-0.816395C7.63493 347.303 14.4861 354.154 14.4861 362.605C14.4861 371.057 7.63493 377.908 -0.816395 377.908H-5.91722L-14.8437 394.23H-0.816395C16.6497 394.23 30.8087 380.071 30.8087 362.605Z" fill="#26C7BC" fill-opacity="0.1"/>
<path fill-rule="evenodd" clip-rule="evenodd" d="M64.1367 330.98L96.5764 377.64L87.2445 392.749L44.584 330.98H64.1367Z" fill="#141C29" fill-opacity="0.04"/>
<path d="M134.345 352.311L103.239 406.525H84.5747L115.681 352.311H134.345Z" fill="#141C29" fill-opacity="0.04"/>
<path d="M161.393 362.605C161.393 345.139 147.234 330.98 129.768 330.98H81.8198L93.5517 347.303H129.768C138.219 347.303 145.07 354.154 145.07 362.605C145.07 371.057 138.219 377.908 129.768 377.908H124.667L115.74 394.23H129.768C147.234 394.23 161.393 380.071 161.393 362.605Z" fill="#26C7BC" fill-opacity="0.1"/>
<path fill-rule="evenodd" clip-rule="evenodd" d="M194.721 330.98L227.161 377.64L217.829 392.749L175.168 330.98H194.721Z" fill="#141C29" fill-opacity="0.04"/>
<path d="M264.93 352.311L233.823 406.525H215.159L246.266 352.311H264.93Z" fill="#141C29" fill-opacity="0.04"/>
<path d="M291.977 362.605C291.977 345.139 277.818 330.98 260.352 330.98H212.404L224.136 347.303H260.352C268.803 347.303 275.655 354.154 275.655 362.605C275.655 371.057 268.803 377.908 260.352 377.908H255.251L246.325 394.23H260.352C277.818 394.23 291.977 380.071 291.977 362.605Z" fill="#26C7BC" fill-opacity="0.1"/>
<path fill-rule="evenodd" clip-rule="evenodd" d="M325.305 330.98L357.745 377.64L348.413 392.749L305.752 330.98H325.305Z" fill="#141C29" fill-opacity="0.04"/>
<path d="M395.514 352.311L364.407 406.525H345.743L376.85 352.311H395.514Z" fill="#141C29" fill-opacity="0.04"/>
<path d="M422.561 362.605C422.561 345.139 408.402 330.98 390.936 330.98H342.988L354.72 347.303H390.936C399.387 347.303 406.239 354.154 406.239 362.605C406.239 371.057 399.387 377.908 390.936 377.908H385.835L376.909 394.23H390.936C408.402 394.23 422.561 380.071 422.561 362.605Z" fill="#26C7BC" fill-opacity="0.1"/>
<path fill-rule="evenodd" clip-rule="evenodd" d="M455.889 330.98L488.329 377.64L478.997 392.749L436.336 330.98H455.889Z" fill="#141C29" fill-opacity="0.04"/>
<path d="M526.098 352.311L494.991 406.525H476.327L507.434 352.311H526.098Z" fill="#141C29" fill-opacity="0.04"/>
<path d="M553.145 362.605C553.145 345.139 538.986 330.98 521.52 330.98H473.572L485.304 347.303H521.52C529.971 347.303 536.823 354.154 536.823 362.605C536.823 371.057 529.971 377.908 521.52 377.908H516.419L507.493 394.23H521.52C538.986 394.23 553.145 380.071 553.145 362.605Z" fill="#26C7BC" fill-opacity="0.1"/>
<path fill-rule="evenodd" clip-rule="evenodd" d="M586.474 330.98L618.913 377.64L609.581 392.749L566.921 330.98H586.474Z" fill="#141C29" fill-opacity="0.04"/>
<path d="M656.682 352.311L625.576 406.525H606.912L638.018 352.311H656.682Z" fill="#141C29" fill-opacity="0.04"/>
<path d="M683.73 362.605C683.73 345.139 669.571 330.98 652.105 330.98H604.157L615.889 347.303H652.105C660.556 347.303 667.407 354.154 667.407 362.605C667.407 371.057 660.556 377.908 652.105 377.908H647.004L638.077 394.23H652.105C669.571 394.23 683.73 380.071 683.73 362.605Z" fill="#26C7BC" fill-opacity="0.1"/>
<path fill-rule="evenodd" clip-rule="evenodd" d="M717.058 330.98L749.497 377.64L740.165 392.749L697.505 330.98H717.058Z" fill="#141C29" fill-opacity="0.04"/>
<path d="M787.266 352.311L756.16 406.525H737.496L768.602 352.311H787.266Z" fill="#141C29" fill-opacity="0.04"/>
<path d="M814.314 362.605C814.314 345.139 800.155 330.98 782.688 330.98H734.741L746.473 347.303H782.688C791.14 347.303 797.991 354.154 797.991 362.605C797.991 371.057 791.14 377.908 782.688 377.908H777.588L768.661 394.23H782.688C800.155 394.23 814.314 380.071 814.314 362.605Z" fill="#26C7BC" fill-opacity="0.1"/>
<path fill-rule="evenodd" clip-rule="evenodd" d="M847.642 330.98L880.081 377.64L870.749 392.749L828.089 330.98H847.642Z" fill="#141C29" fill-opacity="0.04"/>
<path d="M917.85 352.311L886.744 406.525H868.08L899.186 352.311H917.85Z" fill="#141C29" fill-opacity="0.04"/>
<path d="M944.898 362.605C944.898 345.139 930.739 330.98 913.272 330.98H865.325L877.057 347.303H913.272C921.724 347.303 928.575 354.154 928.575 362.605C928.575 371.057 921.724 377.908 913.272 377.908H908.172L899.245 394.23H913.272C930.739 394.23 944.898 380.071 944.898 362.605Z" fill="#26C7BC" fill-opacity="0.1"/>
<path fill-rule="evenodd" clip-rule="evenodd" d="M978.226 330.98L1010.67 377.64L1001.33 392.749L958.673 330.98H978.226Z" fill="#141C29" fill-opacity="0.04"/>
<path d="M1048.43 352.311L1017.33 406.525H998.664L1029.77 352.311H1048.43Z" fill="#141C29" fill-opacity="0.04"/>
<path d="M1075.48 362.605C1075.48 345.139 1061.32 330.98 1043.86 330.98H995.909L1007.64 347.303H1043.86C1052.31 347.303 1059.16 354.154 1059.16 362.605C1059.16 371.057 1052.31 377.908 1043.86 377.908H1038.76L1029.83 394.23H1043.86C1061.32 394.23 1075.48 380.071 1075.48 362.605Z" fill="#26C7BC" fill-opacity="0.1"/>
<path fill-rule="evenodd" clip-rule="evenodd" d="M1108.81 330.98L1141.25 377.64L1131.92 392.749L1089.26 330.98H1108.81Z" fill="#141C29" fill-opacity="0.04"/>
<path d="M1179.02 352.311L1147.91 406.525H1129.25L1160.35 352.311H1179.02Z" fill="#141C29" fill-opacity="0.04"/>
<path d="M1206.07 362.605C1206.07 345.139 1191.91 330.98 1174.44 330.98H1126.49L1138.23 347.303H1174.44C1182.89 347.303 1189.74 354.154 1189.74 362.605C1189.74 371.057 1182.89 377.908 1174.44 377.908H1169.34L1160.41 394.23H1174.44C1191.91 394.23 1206.07 380.071 1206.07 362.605Z" fill="#26C7BC" fill-opacity="0.1"/>
<path fill-rule="evenodd" clip-rule="evenodd" d="M1239.39 330.98L1271.83 377.64L1262.5 392.749L1219.84 330.98H1239.39Z" fill="#141C29" fill-opacity="0.04"/>
<path d="M1309.6 352.311L1278.5 406.525H1259.83L1290.94 352.311H1309.6Z" fill="#141C29" fill-opacity="0.04"/>
<path d="M1336.65 362.605C1336.65 345.139 1322.49 330.98 1305.03 330.98H1257.08L1268.81 347.303H1305.03C1313.48 347.303 1320.33 354.154 1320.33 362.605C1320.33 371.057 1313.48 377.908 1305.03 377.908H1299.93L1291 394.23H1305.03C1322.49 394.23 1336.65 380.071 1336.65 362.605Z" fill="#26C7BC" fill-opacity="0.1"/>
<path fill-rule="evenodd" clip-rule="evenodd" d="M1369.98 330.98L1402.42 377.64L1393.09 392.749L1350.43 330.98H1369.98Z" fill="#141C29" fill-opacity="0.04"/>
<path d="M1440.19 352.311L1409.08 406.525H1390.42L1421.52 352.311H1440.19Z" fill="#141C29" fill-opacity="0.04"/>
<path d="M1467.23 362.605C1467.23 345.139 1453.08 330.98 1435.61 330.98H1387.66L1399.39 347.303H1435.61C1444.06 347.303 1450.91 354.154 1450.91 362.605C1450.91 371.057 1444.06 377.908 1435.61 377.908H1430.51L1421.58 394.23H1435.61C1453.08 394.23 1467.23 380.071 1467.23 362.605Z" fill="#26C7BC" fill-opacity="0.1"/>
<path fill-rule="evenodd" clip-rule="evenodd" d="M1500.56 330.98L1533 377.64L1523.67 392.749L1481.01 330.98H1500.56Z" fill="#141C29" fill-opacity="0.04"/>
<path d="M1570.77 352.311L1539.66 406.525H1521L1552.11 352.311H1570.77Z" fill="#141C29" fill-opacity="0.04"/>
<path d="M1597.82 362.605C1597.82 345.139 1583.66 330.98 1566.19 330.98H1518.25L1529.98 347.303H1566.19C1574.65 347.303 1581.5 354.154 1581.5 362.605C1581.5 371.057 1574.65 377.908 1566.19 377.908H1561.09L1552.17 394.23H1566.19C1583.66 394.23 1597.82 380.071 1597.82 362.605Z" fill="#26C7BC" fill-opacity="0.1"/>
<path fill-rule="evenodd" clip-rule="evenodd" d="M1631.15 330.98L1663.59 377.64L1654.25 392.749L1611.59 330.98H1631.15Z" fill="#141C29" fill-opacity="0.04"/>
<path d="M1701.36 352.311L1670.25 406.525H1651.58L1682.69 352.311H1701.36Z" fill="#141C29" fill-opacity="0.04"/>
<path d="M1728.4 362.605C1728.4 345.139 1714.24 330.98 1696.78 330.98H1648.83L1660.56 347.303H1696.78C1705.23 347.303 1712.08 354.154 1712.08 362.605C1712.08 371.057 1705.23 377.908 1696.78 377.908H1691.68L1682.75 394.23H1696.78C1714.24 394.23 1728.4 380.071 1728.4 362.605Z" fill="#26C7BC" fill-opacity="0.1"/>
<path fill-rule="evenodd" clip-rule="evenodd" d="M1761.73 330.98L1794.17 377.64L1784.84 392.749L1742.18 330.98H1761.73Z" fill="#141C29" fill-opacity="0.04"/>
<path d="M1831.94 352.311L1800.83 406.525H1782.17L1813.28 352.311H1831.94Z" fill="#141C29" fill-opacity="0.04"/>
<path d="M1858.99 362.605C1858.99 345.139 1844.83 330.98 1827.36 330.98H1779.41L1791.15 347.303H1827.36C1835.81 347.303 1842.66 354.154 1842.66 362.605C1842.66 371.057 1835.81 377.908 1827.36 377.908H1822.26L1813.34 394.23H1827.36C1844.83 394.23 1858.99 380.071 1858.99 362.605Z" fill="#26C7BC" fill-opacity="0.1"/>
<path fill-rule="evenodd" clip-rule="evenodd" d="M1892.31 330.98L1924.75 377.64L1915.42 392.749L1872.76 330.98H1892.31Z" fill="#141C29" fill-opacity="0.04"/>
<path d="M1962.52 352.311L1931.42 406.525H1912.75L1943.86 352.311H1962.52Z" fill="#141C29" fill-opacity="0.04"/>
<path d="M1989.57 362.605C1989.57 345.139 1975.41 330.98 1957.95 330.98H1910L1921.73 347.303H1957.95C1966.4 347.303 1973.25 354.154 1973.25 362.605C1973.25 371.057 1966.4 377.908 1957.95 377.908H1952.85L1943.92 394.23H1957.95C1975.41 394.23 1989.57 380.071 1989.57 362.605Z" fill="#26C7BC" fill-opacity="0.1"/>
<path d="M3.76124 529.301L-27.3453 583.515H-46.0093L-14.9027 529.301H3.76124Z" fill="#141C29" fill-opacity="0.04"/>
<path d="M30.8087 539.595C30.8087 522.129 16.6497 507.97 -0.816395 507.97H-48.7642L-37.0323 524.293H-0.816395C7.63493 524.293 14.4861 531.144 14.4861 539.595C14.4861 548.047 7.63493 554.898 -0.816395 554.898H-5.91722L-14.8437 571.221H-0.816395C16.6497 571.221 30.8087 557.062 30.8087 539.595Z" fill="#26C7BC" fill-opacity="0.1"/>
<path fill-rule="evenodd" clip-rule="evenodd" d="M64.1367 507.97L96.5764 554.63L87.2445 569.739L44.584 507.97H64.1367Z" fill="#141C29" fill-opacity="0.04"/>
<path d="M134.345 529.301L103.239 583.515H84.5747L115.681 529.301H134.345Z" fill="#141C29" fill-opacity="0.04"/>
<path d="M161.393 539.596C161.393 522.13 147.234 507.97 129.768 507.97H81.8198L93.5517 524.293H129.768C138.219 524.293 145.07 531.144 145.07 539.596C145.07 548.047 138.219 554.898 129.768 554.898H124.667L115.74 571.221H129.768C147.234 571.221 161.393 557.062 161.393 539.596Z" fill="#26C7BC" fill-opacity="0.1"/>
<path fill-rule="evenodd" clip-rule="evenodd" d="M194.721 507.97L227.161 554.63L217.829 569.739L175.168 507.97H194.721Z" fill="#141C29" fill-opacity="0.04"/>
<path d="M264.93 529.301L233.823 583.515H215.159L246.266 529.301H264.93Z" fill="#141C29" fill-opacity="0.04"/>
<path d="M291.977 539.596C291.977 522.13 277.818 507.97 260.352 507.97H212.404L224.136 524.293H260.352C268.803 524.293 275.655 531.144 275.655 539.596C275.655 548.047 268.803 554.898 260.352 554.898H255.251L246.325 571.221H260.352C277.818 571.221 291.977 557.062 291.977 539.596Z" fill="#26C7BC" fill-opacity="0.1"/>
<path fill-rule="evenodd" clip-rule="evenodd" d="M325.305 507.97L357.745 554.63L348.413 569.739L305.752 507.97H325.305Z" fill="#141C29" fill-opacity="0.04"/>
<path d="M395.514 529.301L364.407 583.515H345.743L376.85 529.301H395.514Z" fill="#141C29" fill-opacity="0.04"/>
<path d="M422.561 539.596C422.561 522.13 408.402 507.97 390.936 507.97H342.988L354.72 524.293H390.936C399.387 524.293 406.239 531.144 406.239 539.596C406.239 548.047 399.387 554.898 390.936 554.898H385.835L376.909 571.221H390.936C408.402 571.221 422.561 557.062 422.561 539.596Z" fill="#26C7BC" fill-opacity="0.1"/>
<path fill-rule="evenodd" clip-rule="evenodd" d="M455.889 507.97L488.329 554.63L478.997 569.739L436.336 507.97H455.889Z" fill="#141C29" fill-opacity="0.04"/>
<path d="M526.098 529.301L494.991 583.515H476.327L507.434 529.301H526.098Z" fill="#141C29" fill-opacity="0.04"/>
<path d="M553.145 539.596C553.145 522.13 538.986 507.97 521.52 507.97H473.572L485.304 524.293H521.52C529.971 524.293 536.823 531.144 536.823 539.596C536.823 548.047 529.971 554.898 521.52 554.898H516.419L507.493 571.221H521.52C538.986 571.221 553.145 557.062 553.145 539.596Z" fill="#26C7BC" fill-opacity="0.1"/>
<path fill-rule="evenodd" clip-rule="evenodd" d="M586.474 507.97L618.913 554.63L609.581 569.739L566.921 507.97H586.474Z" fill="#141C29" fill-opacity="0.04"/>
<path d="M656.682 529.301L625.576 583.515H606.912L638.018 529.301H656.682Z" fill="#141C29" fill-opacity="0.04"/>
<path d="M683.73 539.596C683.73 522.13 669.571 507.97 652.105 507.97H604.157L615.889 524.293H652.105C660.556 524.293 667.407 531.144 667.407 539.596C667.407 548.047 660.556 554.898 652.105 554.898H647.004L638.077 571.221H652.105C669.571 571.221 683.73 557.062 683.73 539.596Z" fill="#26C7BC" fill-opacity="0.1"/>
<path fill-rule="evenodd" clip-rule="evenodd" d="M717.058 507.97L749.497 554.63L740.165 569.739L697.505 507.97H717.058Z" fill="#141C29" fill-opacity="0.04"/>
<path d="M787.266 529.301L756.16 583.515H737.496L768.602 529.301H787.266Z" fill="#141C29" fill-opacity="0.04"/>
<path d="M814.314 539.596C814.314 522.13 800.155 507.97 782.688 507.97H734.741L746.473 524.293H782.688C791.14 524.293 797.991 531.144 797.991 539.596C797.991 548.047 791.14 554.898 782.688 554.898H777.588L768.661 571.221H782.688C800.155 571.221 814.314 557.062 814.314 539.596Z" fill="#26C7BC" fill-opacity="0.1"/>
<path fill-rule="evenodd" clip-rule="evenodd" d="M847.642 507.97L880.081 554.63L870.749 569.739L828.089 507.97H847.642Z" fill="#141C29" fill-opacity="0.04"/>
<path d="M917.85 529.301L886.744 583.515H868.08L899.186 529.301H917.85Z" fill="#141C29" fill-opacity="0.04"/>
<path d="M944.898 539.595C944.898 522.129 930.739 507.97 913.272 507.97H865.325L877.057 524.293H913.272C921.724 524.293 928.575 531.144 928.575 539.595C928.575 548.047 921.724 554.898 913.272 554.898H908.172L899.245 571.221H913.272C930.739 571.221 944.898 557.062 944.898 539.595Z" fill="#26C7BC" fill-opacity="0.1"/>
<path fill-rule="evenodd" clip-rule="evenodd" d="M978.226 507.97L1010.67 554.63L1001.33 569.739L958.673 507.97H978.226Z" fill="#141C29" fill-opacity="0.04"/>
<path d="M1048.43 529.301L1017.33 583.515H998.664L1029.77 529.301H1048.43Z" fill="#141C29" fill-opacity="0.04"/>
<path d="M1075.48 539.596C1075.48 522.13 1061.32 507.97 1043.86 507.97H995.909L1007.64 524.293H1043.86C1052.31 524.293 1059.16 531.144 1059.16 539.596C1059.16 548.047 1052.31 554.898 1043.86 554.898H1038.76L1029.83 571.221H1043.86C1061.32 571.221 1075.48 557.062 1075.48 539.596Z" fill="#26C7BC" fill-opacity="0.1"/>
<path fill-rule="evenodd" clip-rule="evenodd" d="M1108.81 507.97L1141.25 554.63L1131.92 569.739L1089.26 507.97H1108.81Z" fill="#141C29" fill-opacity="0.04"/>
<path d="M1179.02 529.301L1147.91 583.515H1129.25L1160.35 529.301H1179.02Z" fill="#141C29" fill-opacity="0.04"/>
<path d="M1206.07 539.596C1206.07 522.13 1191.91 507.97 1174.44 507.97H1126.49L1138.23 524.293H1174.44C1182.89 524.293 1189.74 531.144 1189.74 539.596C1189.74 548.047 1182.89 554.898 1174.44 554.898H1169.34L1160.41 571.221H1174.44C1191.91 571.221 1206.07 557.062 1206.07 539.596Z" fill="#26C7BC" fill-opacity="0.1"/>
<path fill-rule="evenodd" clip-rule="evenodd" d="M1239.39 507.97L1271.83 554.63L1262.5 569.739L1219.84 507.97H1239.39Z" fill="#141C29" fill-opacity="0.04"/>
<path d="M1309.6 529.301L1278.5 583.515H1259.83L1290.94 529.301H1309.6Z" fill="#141C29" fill-opacity="0.04"/>
<path d="M1336.65 539.596C1336.65 522.13 1322.49 507.97 1305.03 507.97H1257.08L1268.81 524.293H1305.03C1313.48 524.293 1320.33 531.144 1320.33 539.596C1320.33 548.047 1313.48 554.898 1305.03 554.898H1299.93L1291 571.221H1305.03C1322.49 571.221 1336.65 557.062 1336.65 539.596Z" fill="#26C7BC" fill-opacity="0.1"/>
<path fill-rule="evenodd" clip-rule="evenodd" d="M1369.98 507.97L1402.42 554.63L1393.09 569.739L1350.43 507.97H1369.98Z" fill="#141C29" fill-opacity="0.04"/>
<path d="M1440.19 529.301L1409.08 583.515H1390.42L1421.52 529.301H1440.19Z" fill="#141C29" fill-opacity="0.04"/>
<path d="M1467.23 539.596C1467.23 522.13 1453.08 507.97 1435.61 507.97H1387.66L1399.39 524.293H1435.61C1444.06 524.293 1450.91 531.144 1450.91 539.596C1450.91 548.047 1444.06 554.898 1435.61 554.898H1430.51L1421.58 571.221H1435.61C1453.08 571.221 1467.23 557.062 1467.23 539.596Z" fill="#26C7BC" fill-opacity="0.1"/>
<path fill-rule="evenodd" clip-rule="evenodd" d="M1500.56 507.97L1533 554.63L1523.67 569.739L1481.01 507.97H1500.56Z" fill="#141C29" fill-opacity="0.04"/>
<path d="M1570.77 529.301L1539.66 583.515H1521L1552.11 529.301H1570.77Z" fill="#141C29" fill-opacity="0.04"/>
<path d="M1597.82 539.596C1597.82 522.13 1583.66 507.97 1566.19 507.97H1518.25L1529.98 524.293H1566.19C1574.65 524.293 1581.5 531.144 1581.5 539.596C1581.5 548.047 1574.65 554.898 1566.19 554.898H1561.09L1552.17 571.221H1566.19C1583.66 571.221 1597.82 557.062 1597.82 539.596Z" fill="#26C7BC" fill-opacity="0.1"/>
<path fill-rule="evenodd" clip-rule="evenodd" d="M1631.15 507.97L1663.59 554.63L1654.25 569.739L1611.59 507.97H1631.15Z" fill="#141C29" fill-opacity="0.04"/>
<path d="M1701.36 529.301L1670.25 583.515H1651.58L1682.69 529.301H1701.36Z" fill="#141C29" fill-opacity="0.04"/>
<path d="M1728.4 539.596C1728.4 522.13 1714.24 507.97 1696.78 507.97H1648.83L1660.56 524.293H1696.78C1705.23 524.293 1712.08 531.144 1712.08 539.596C1712.08 548.047 1705.23 554.898 1696.78 554.898H1691.68L1682.75 571.221H1696.78C1714.24 571.221 1728.4 557.062 1728.4 539.596Z" fill="#26C7BC" fill-opacity="0.1"/>
<path fill-rule="evenodd" clip-rule="evenodd" d="M1761.73 507.97L1794.17 554.63L1784.84 569.739L1742.18 507.97H1761.73Z" fill="#141C29" fill-opacity="0.04"/>
<path d="M1831.94 529.301L1800.83 583.515H1782.17L1813.28 529.301H1831.94Z" fill="#141C29" fill-opacity="0.04"/>
<path d="M1858.99 539.596C1858.99 522.13 1844.83 507.97 1827.36 507.97H1779.41L1791.15 524.293H1827.36C1835.81 524.293 1842.66 531.144 1842.66 539.596C1842.66 548.047 1835.81 554.898 1827.36 554.898H1822.26L1813.34 571.221H1827.36C1844.83 571.221 1858.99 557.062 1858.99 539.596Z" fill="#26C7BC" fill-opacity="0.1"/>
<path fill-rule="evenodd" clip-rule="evenodd" d="M1892.31 507.97L1924.75 554.63L1915.42 569.739L1872.76 507.97H1892.31Z" fill="#141C29" fill-opacity="0.04"/>
<path d="M1962.52 529.301L1931.42 583.515H1912.75L1943.86 529.301H1962.52Z" fill="#141C29" fill-opacity="0.04"/>
<path d="M1989.57 539.596C1989.57 522.13 1975.41 507.97 1957.95 507.97H1910L1921.73 524.293H1957.95C1966.4 524.293 1973.25 531.144 1973.25 539.596C1973.25 548.047 1966.4 554.898 1957.95 554.898H1952.85L1943.92 571.221H1957.95C1975.41 571.221 1989.57 557.062 1989.57 539.596Z" fill="#26C7BC" fill-opacity="0.1"/>
<path d="M3.76124 706.291L-27.3453 760.505H-46.0093L-14.9027 706.291H3.76124Z" fill="#141C29" fill-opacity="0.04"/>
<path d="M30.8087 716.586C30.8087 699.12 16.6497 684.96 -0.816395 684.96H-48.7642L-37.0323 701.283H-0.816395C7.63493 701.283 14.4861 708.134 14.4861 716.586C14.4861 725.037 7.63493 731.888 -0.816395 731.888H-5.91722L-14.8437 748.211H-0.816395C16.6497 748.211 30.8087 734.052 30.8087 716.586Z" fill="#26C7BC" fill-opacity="0.1"/>
<path fill-rule="evenodd" clip-rule="evenodd" d="M64.1367 684.96L96.5764 731.62L87.2445 746.729L44.584 684.96H64.1367Z" fill="#141C29" fill-opacity="0.04"/>
<path d="M134.345 706.291L103.239 760.505H84.5747L115.681 706.291H134.345Z" fill="#141C29" fill-opacity="0.04"/>
<path d="M161.393 716.586C161.393 699.12 147.234 684.96 129.768 684.96H81.8198L93.5517 701.283H129.768C138.219 701.283 145.07 708.134 145.07 716.586C145.07 725.037 138.219 731.888 129.768 731.888H124.667L115.74 748.211H129.768C147.234 748.211 161.393 734.052 161.393 716.586Z" fill="#26C7BC" fill-opacity="0.1"/>
<path fill-rule="evenodd" clip-rule="evenodd" d="M194.721 684.96L227.161 731.62L217.829 746.729L175.168 684.96H194.721Z" fill="#141C29" fill-opacity="0.04"/>
<path d="M264.93 706.291L233.823 760.505H215.159L246.266 706.291H264.93Z" fill="#141C29" fill-opacity="0.04"/>
<path d="M291.977 716.586C291.977 699.12 277.818 684.96 260.352 684.96H212.404L224.136 701.283H260.352C268.803 701.283 275.655 708.134 275.655 716.586C275.655 725.037 268.803 731.888 260.352 731.888H255.251L246.325 748.211H260.352C277.818 748.211 291.977 734.052 291.977 716.586Z" fill="#26C7BC" fill-opacity="0.1"/>
<path fill-rule="evenodd" clip-rule="evenodd" d="M325.305 684.96L357.745 731.62L348.413 746.729L305.752 684.96H325.305Z" fill="#141C29" fill-opacity="0.04"/>
<path d="M395.514 706.291L364.407 760.505H345.743L376.85 706.291H395.514Z" fill="#141C29" fill-opacity="0.04"/>
<path d="M422.561 716.586C422.561 699.12 408.402 684.96 390.936 684.96H342.988L354.72 701.283H390.936C399.387 701.283 406.239 708.134 406.239 716.586C406.239 725.037 399.387 731.888 390.936 731.888H385.835L376.909 748.211H390.936C408.402 748.211 422.561 734.052 422.561 716.586Z" fill="#26C7BC" fill-opacity="0.1"/>
<path fill-rule="evenodd" clip-rule="evenodd" d="M455.889 684.96L488.329 731.62L478.997 746.729L436.336 684.96H455.889Z" fill="#141C29" fill-opacity="0.04"/>
<path d="M526.098 706.291L494.991 760.505H476.327L507.434 706.291H526.098Z" fill="#141C29" fill-opacity="0.04"/>
<path d="M553.145 716.586C553.145 699.12 538.986 684.96 521.52 684.96H473.572L485.304 701.283H521.52C529.971 701.283 536.823 708.134 536.823 716.586C536.823 725.037 529.971 731.888 521.52 731.888H516.419L507.493 748.211H521.52C538.986 748.211 553.145 734.052 553.145 716.586Z" fill="#26C7BC" fill-opacity="0.1"/>
<path fill-rule="evenodd" clip-rule="evenodd" d="M586.474 684.96L618.913 731.62L609.581 746.729L566.921 684.96H586.474Z" fill="#141C29" fill-opacity="0.04"/>
<path d="M656.682 706.291L625.576 760.505H606.912L638.018 706.291H656.682Z" fill="#141C29" fill-opacity="0.04"/>
<path d="M683.73 716.586C683.73 699.12 669.571 684.96 652.105 684.96H604.157L615.889 701.283H652.105C660.556 701.283 667.407 708.134 667.407 716.586C667.407 725.037 660.556 731.888 652.105 731.888H647.004L638.077 748.211H652.105C669.571 748.211 683.73 734.052 683.73 716.586Z" fill="#26C7BC" fill-opacity="0.1"/>
<path fill-rule="evenodd" clip-rule="evenodd" d="M717.058 684.96L749.497 731.62L740.165 746.729L697.505 684.96H717.058Z" fill="#141C29" fill-opacity="0.04"/>
<path d="M787.266 706.291L756.16 760.505H737.496L768.602 706.291H787.266Z" fill="#141C29" fill-opacity="0.04"/>
<path d="M814.314 716.586C814.314 699.12 800.155 684.96 782.688 684.96H734.741L746.473 701.283H782.688C791.14 701.283 797.991 708.134 797.991 716.586C797.991 725.037 791.14 731.888 782.688 731.888H777.588L768.661 748.211H782.688C800.155 748.211 814.314 734.052 814.314 716.586Z" fill="#26C7BC" fill-opacity="0.1"/>
<path fill-rule="evenodd" clip-rule="evenodd" d="M847.642 684.96L880.081 731.62L870.749 746.729L828.089 684.96H847.642Z" fill="#141C29" fill-opacity="0.04"/>
<path d="M917.85 706.291L886.744 760.505H868.08L899.186 706.291H917.85Z" fill="#141C29" fill-opacity="0.04"/>
<path d="M944.898 716.586C944.898 699.12 930.739 684.96 913.272 684.96H865.325L877.057 701.283H913.272C921.724 701.283 928.575 708.134 928.575 716.586C928.575 725.037 921.724 731.888 913.272 731.888H908.172L899.245 748.211H913.272C930.739 748.211 944.898 734.052 944.898 716.586Z" fill="#26C7BC" fill-opacity="0.1"/>
<path fill-rule="evenodd" clip-rule="evenodd" d="M978.226 684.96L1010.67 731.62L1001.33 746.729L958.673 684.96H978.226Z" fill="#141C29" fill-opacity="0.04"/>
<path d="M1048.43 706.291L1017.33 760.505H998.664L1029.77 706.291H1048.43Z" fill="#141C29" fill-opacity="0.04"/>
<path d="M1075.48 716.586C1075.48 699.12 1061.32 684.96 1043.86 684.96H995.909L1007.64 701.283H1043.86C1052.31 701.283 1059.16 708.134 1059.16 716.586C1059.16 725.037 1052.31 731.888 1043.86 731.888H1038.76L1029.83 748.211H1043.86C1061.32 748.211 1075.48 734.052 1075.48 716.586Z" fill="#26C7BC" fill-opacity="0.1"/>
<path fill-rule="evenodd" clip-rule="evenodd" d="M1108.81 684.96L1141.25 731.62L1131.92 746.729L1089.26 684.96H1108.81Z" fill="#141C29" fill-opacity="0.04"/>
<path d="M1179.02 706.291L1147.91 760.505H1129.25L1160.35 706.291H1179.02Z" fill="#141C29" fill-opacity="0.04"/>
<path d="M1206.07 716.586C1206.07 699.12 1191.91 684.96 1174.44 684.96H1126.49L1138.23 701.283H1174.44C1182.89 701.283 1189.74 708.134 1189.74 716.586C1189.74 725.037 1182.89 731.888 1174.44 731.888H1169.34L1160.41 748.211H1174.44C1191.91 748.211 1206.07 734.052 1206.07 716.586Z" fill="#26C7BC" fill-opacity="0.1"/>
<path fill-rule="evenodd" clip-rule="evenodd" d="M1239.39 684.96L1271.83 731.62L1262.5 746.729L1219.84 684.96H1239.39Z" fill="#141C29" fill-opacity="0.04"/>
<path d="M1309.6 706.291L1278.5 760.505H1259.83L1290.94 706.291H1309.6Z" fill="#141C29" fill-opacity="0.04"/>
<path d="M1336.65 716.586C1336.65 699.12 1322.49 684.96 1305.03 684.96H1257.08L1268.81 701.283H1305.03C1313.48 701.283 1320.33 708.134 1320.33 716.586C1320.33 725.037 1313.48 731.888 1305.03 731.888H1299.93L1291 748.211H1305.03C1322.49 748.211 1336.65 734.052 1336.65 716.586Z" fill="#26C7BC" fill-opacity="0.1"/>
<path fill-rule="evenodd" clip-rule="evenodd" d="M1369.98 684.96L1402.42 731.62L1393.09 746.729L1350.43 684.96H1369.98Z" fill="#141C29" fill-opacity="0.04"/>
<path d="M1440.19 706.291L1409.08 760.505H1390.42L1421.52 706.291H1440.19Z" fill="#141C29" fill-opacity="0.04"/>
<path d="M1467.23 716.586C1467.23 699.12 1453.08 684.96 1435.61 684.96H1387.66L1399.39 701.283H1435.61C1444.06 701.283 1450.91 708.134 1450.91 716.586C1450.91 725.037 1444.06 731.888 1435.61 731.888H1430.51L1421.58 748.211H1435.61C1453.08 748.211 1467.23 734.052 1467.23 716.586Z" fill="#26C7BC" fill-opacity="0.1"/>
<path fill-rule="evenodd" clip-rule="evenodd" d="M1500.56 684.96L1533 731.62L1523.67 746.729L1481.01 684.96H1500.56Z" fill="#141C29" fill-opacity="0.04"/>
<path d="M1570.77 706.291L1539.66 760.505H1521L1552.11 706.291H1570.77Z" fill="#141C29" fill-opacity="0.04"/>
<path d="M1597.82 716.586C1597.82 699.12 1583.66 684.96 1566.19 684.96H1518.25L1529.98 701.283H1566.19C1574.65 701.283 1581.5 708.134 1581.5 716.586C1581.5 725.037 1574.65 731.888 1566.19 731.888H1561.09L1552.17 748.211H1566.19C1583.66 748.211 1597.82 734.052 1597.82 716.586Z" fill="#26C7BC" fill-opacity="0.1"/>
<path fill-rule="evenodd" clip-rule="evenodd" d="M1631.15 684.96L1663.59 731.62L1654.25 746.729L1611.59 684.96H1631.15Z" fill="#141C29" fill-opacity="0.04"/>
<path d="M1701.36 706.291L1670.25 760.505H1651.58L1682.69 706.291H1701.36Z" fill="#141C29" fill-opacity="0.04"/>
<path d="M1728.4 716.586C1728.4 699.12 1714.24 684.96 1696.78 684.96H1648.83L1660.56 701.283H1696.78C1705.23 701.283 1712.08 708.134 1712.08 716.586C1712.08 725.037 1705.23 731.888 1696.78 731.888H1691.68L1682.75 748.211H1696.78C1714.24 748.211 1728.4 734.052 1728.4 716.586Z" fill="#26C7BC" fill-opacity="0.1"/>
<path fill-rule="evenodd" clip-rule="evenodd" d="M1761.73 684.96L1794.17 731.62L1784.84 746.729L1742.18 684.96H1761.73Z" fill="#141C29" fill-opacity="0.04"/>
<path d="M1831.94 706.291L1800.83 760.505H1782.17L1813.28 706.291H1831.94Z" fill="#141C29" fill-opacity="0.04"/>
<path d="M1858.99 716.586C1858.99 699.12 1844.83 684.96 1827.36 684.96H1779.41L1791.15 701.283H1827.36C1835.81 701.283 1842.66 708.134 1842.66 716.586C1842.66 725.037 1835.81 731.888 1827.36 731.888H1822.26L1813.34 748.211H1827.36C1844.83 748.211 1858.99 734.052 1858.99 716.586Z" fill="#26C7BC" fill-opacity="0.1"/>
<path fill-rule="evenodd" clip-rule="evenodd" d="M1892.31 684.96L1924.75 731.62L1915.42 746.729L1872.76 684.96H1892.31Z" fill="#141C29" fill-opacity="0.04"/>
<path d="M1962.52 706.291L1931.42 760.505H1912.75L1943.86 706.291H1962.52Z" fill="#141C29" fill-opacity="0.04"/>
<path d="M1989.57 716.586C1989.57 699.12 1975.41 684.96 1957.95 684.96H1910L1921.73 701.283H1957.95C1966.4 701.283 1973.25 708.134 1973.25 716.586C1973.25 725.037 1966.4 731.888 1957.95 731.888H1952.85L1943.92 748.211H1957.95C1975.41 748.211 1989.57 734.052 1989.57 716.586Z" fill="#26C7BC" fill-opacity="0.1"/>
</g>
<defs>
<clipPath id="clip0_294_2913">
<rect width="2075.57" height="872" fill="white" transform="translate(-86 -23)"/>
</clipPath>
</defs>
</svg>
