<svg width="98" height="98" viewBox="0 0 98 98" fill="none" xmlns="http://www.w3.org/2000/svg">
<rect width="98" height="98" rx="49" fill="#26C7BC"/>
<path d="M39.9819 44.3025C41.8237 40.9713 44.1757 36.948 46.352 35.8598C47.352 35.3598 47.4998 34.5 48.4998 34.5C48.4998 34.5 49.8998 35 51.4998 35C53.4998 35 60.9998 35.5 62.4998 35C63.6998 34.6 64.6664 34.5 64.9998 34.5C65.9998 35.5 68.2998 37.8 69.4998 39C70.9998 40.5 73.9998 46.5 74.4998 49C74.9998 51.5 75.9998 56.5 75.4998 59C74.9998 61.5 73.4741 65.077 72.9998 66.5C72.4998 68 71.9998 69 72.4998 70C72.9998 71 74.4998 72 74.4998 72.5C74.4998 72.9 72.9998 72.0433 72.6553 71.6324C72.0165 71.6324 70.3354 72.4433 69.1354 72.0433C67.6354 71.5433 64.5094 73 63.5094 73C62.5094 73 60.6495 73.5721 57.1495 73.5721C54.1081 73.5721 49.4875 72.5 47.4875 72.5" stroke="white" stroke-width="3" stroke-linecap="round"/>
<circle cx="51.5" cy="48.5" r="2.5" fill="white"/>
<circle cx="62.5" cy="59.5" r="2.5" fill="white"/>
<path d="M26 58.5C23.6 58.1 21.6667 57.6667 21 57.5V63L28.6055 64.6064L36.1388 64.3197L42.3426 62.7557L42.5 57.5C40.6667 57.8333 36.6 58.6 35 59C33 59.5 29 59 26 58.5Z" fill="white"/>
<path d="M51.5407 29.0001C49.1407 28.6001 49.1667 29.6667 48.5 29.5L48 33.5H53.5641L60.9667 33.6732L65.5 32.5001L64.5 29.0001C62.6667 29.3334 61.4019 29.5001 59.9019 29.0001C57.9462 28.3481 54.5407 29.5001 51.5407 29.0001Z" fill="white"/>
<path d="M26.0001 48C23.567 48 21.1159 50.3845 20.4492 50.2178L20.7322 52.2706L28.4833 53.9341L35.9866 53.6156L42.8529 51.8813L41.5787 49.2268C39.2428 49.2268 36.3163 48 34.6671 48H26.0001Z" fill="white"/>
<path d="M26 69C23.6 68.6 21.6667 68.1667 21 68V74L28.5 75.5H36L42.5 73.5V68C40.6667 68.3333 36.6 69.1 35 69.5C33 70 29 69.5 26 69Z" fill="white"/>
<path d="M76.1829 73.6232C76.8395 72.6531 76.8395 71.6829 76.347 70.7128C76.1829 70.3894 75.8545 70.066 75.6904 69.7426L75.5262 69.4193C75.1979 68.9342 75.0338 68.2874 75.5262 67.6407L75.6904 67.1556C76.0187 66.5088 76.347 65.8621 76.6753 65.0536C78.6453 59.3944 78.8094 53.5735 77.1678 47.7527C75.3621 41.6084 71.9147 36.596 66.6617 32.5537C66.6617 32.5537 66.005 32.0686 66.1692 31.5836C66.1692 30.6134 66.005 29.805 65.3484 29.1582L65.0201 28.9965L65.1842 28.5114C65.1842 28.3497 65.3484 28.3497 65.3484 28.1881C67.3183 26.0861 68.1391 23.6607 67.9749 20.912C67.8108 19.6184 67.3183 18.9717 66.005 19.1334C64.3634 19.1334 62.7218 18.81 61.2444 18.0015C60.7519 17.6781 60.0953 17.3548 59.6028 17.0314L59.2745 16.8697C57.9612 16.0612 56.648 15.8995 55.3347 16.2229C54.5139 16.5463 53.6931 17.0314 53.0365 17.3548L52.7081 17.6781C51.559 18.3249 50.2458 18.9717 48.9325 19.1334C48.6042 19.1334 48.1117 19.1334 47.7834 19.1334C47.4551 19.1334 47.2909 19.1334 46.9626 19.1334C46.1418 19.1334 45.4852 19.7801 45.4852 20.4269C45.321 21.2353 45.321 21.8821 45.4852 22.5289C45.6493 24.7925 46.6343 26.7328 48.1117 28.3497L48.2759 28.5114V28.6731C48.1117 28.9965 48.1117 29.1582 47.9475 29.4816C47.7834 29.9667 47.6192 30.4517 47.6192 30.9368C47.6192 31.7453 47.2909 32.2303 46.6343 32.7154C46.4701 32.7154 46.4701 32.8771 46.4701 32.8771L45.9776 33.2005C42.8586 35.6258 40.2321 39.0214 37.9338 43.5487C37.6055 44.0338 37.7697 44.5189 38.098 44.6805C38.2622 44.6805 38.7546 45.0039 39.083 44.1955L39.5754 43.2253C40.0679 42.4169 40.5604 41.4467 41.0529 40.6383C42.8586 37.7278 44.9927 35.4642 47.4551 33.6856C47.9475 33.3622 48.2759 33.3622 48.7683 33.5239C49.0967 33.6856 49.7533 33.8472 50.4099 33.8472C54.1856 33.8472 58.4537 33.8472 63.0502 33.8472C63.5426 33.8472 64.0351 33.6856 64.3634 33.5239C65.1842 33.0388 65.6767 33.3622 66.005 33.6856C76.0187 41.4467 79.6302 55.8372 74.213 66.5088C73.5563 67.964 73.5563 69.0959 74.5413 70.2277C74.6094 70.3672 74.7008 70.3864 74.7422 70.5508C74.7422 70.5508 74.8053 70.6284 74.8696 70.7128C75.3621 71.3596 75.3621 72.0063 75.0338 72.4914C74.7054 73.1382 74.0488 73.2998 73.228 73.1382C70.9569 72.6453 68.4674 72.8148 66.1692 73.2999C61.0802 74.5934 55.8272 74.5934 49.425 73.6232C48.9325 73.4615 48.44 73.4615 47.7834 73.2999C47.4551 73.1382 46.9626 73.1382 46.6343 72.9765H46.4701C46.1418 72.9765 45.8135 73.1382 45.8135 73.4615C45.8135 73.6232 45.6493 73.9466 46.306 74.27C46.6343 74.4317 46.9626 74.4317 47.1267 74.4317C47.6192 74.5934 48.2759 74.5934 48.7683 74.7551C50.0816 74.9168 51.559 75.2401 53.0365 75.4018C56.648 75.7252 60.5878 75.8869 64.5276 74.9168C67.3183 74.27 70.2732 73.7849 73.3922 74.4317C74.8696 75.0784 75.8546 74.27 76.1829 73.6232ZM64.3634 32.2303C64.0351 32.5537 63.5426 32.7154 63.0502 32.7154C60.9161 32.7154 58.9462 32.7154 56.8121 32.7154C54.6781 32.7154 52.7081 32.7154 50.5741 32.7154C49.5891 32.7154 48.9325 32.2303 48.7683 31.2602C48.7683 30.9368 48.9325 30.4517 49.0966 30.29C49.425 29.9667 49.9174 29.805 50.4099 29.805H58.2895H62.886C63.871 29.805 64.5276 30.29 64.6917 31.2602C64.6917 31.5836 64.5276 31.907 64.3634 32.2303ZM61.7369 28.5114C61.5727 28.5114 61.5727 28.5114 61.4086 28.5114C59.1103 28.3497 56.8121 28.3497 54.5139 28.5114C53.2006 28.5114 52.0515 28.5114 50.7382 28.5114C50.2458 28.5114 49.7533 28.3497 49.425 28.0264C47.4551 26.4095 46.4701 24.1458 46.7984 21.0737V20.7503H47.1267C48.9325 20.912 50.4099 20.5886 51.7232 19.9418C52.7081 19.4567 53.5289 18.9717 54.3497 18.4866C55.8272 17.5165 57.3046 17.5165 58.9462 18.4866C60.2595 19.4567 61.901 20.2652 63.5426 20.5886C64.1993 20.7503 64.6917 20.7503 65.3484 20.7503C65.6767 20.7503 66.005 20.7503 66.3333 20.912H66.6617V21.2353C66.8258 22.2055 66.8258 23.3373 66.3333 24.4692C66.1692 24.9542 65.6767 25.7627 65.3484 26.4095C64.3634 27.8647 63.3785 28.5114 61.7369 28.5114Z" fill="black"/>
<path d="M61.7369 28.5114H61.4086C59.1103 28.3497 56.8121 28.3497 54.5139 28.5114H50.7382C50.2458 28.5114 49.7533 28.3497 49.425 28.0264C47.4551 26.4095 46.4701 24.1458 46.7984 21.0737V20.7503H47.1267C48.9325 20.912 50.4099 20.5886 51.7232 19.9418C52.7081 19.4567 53.5289 18.9717 54.3497 18.4866C55.8272 17.5165 57.3046 17.5165 58.9462 18.4866C60.2595 19.4567 61.901 20.2652 63.5426 20.5886C64.1993 20.7503 64.6917 20.7503 65.3484 20.7503C65.6767 20.7503 66.005 20.7503 66.3333 20.912H66.6617V21.2353C66.8258 22.2055 66.8258 23.3373 66.3333 24.4692C66.1692 24.9542 65.6767 25.7627 65.3484 26.4095C64.3634 27.8647 63.3785 28.5114 61.7369 28.5114Z" fill="white"/>
<path d="M41.7097 74.1083C42.6947 73.7849 43.1871 72.9765 43.1871 71.6829C43.1871 65.5387 43.1871 59.071 43.1871 51.3099C43.1871 50.178 42.6947 49.3696 41.8739 49.0462C40.7247 48.5611 39.9039 48.2377 39.0832 48.076C36.7849 47.591 34.3225 47.2676 31.696 47.2676C29.7261 47.2676 27.7562 47.4293 25.7863 47.7527C24.1447 47.9143 22.5031 48.3994 21.0257 49.2079C20.0407 49.5313 19.7124 50.178 19.7124 51.1482C19.7124 53.5735 19.7124 56.1606 19.7124 58.5859V61.4964V64.4068C19.7124 66.8322 19.7124 69.4192 19.7124 71.8446C19.7124 72.9764 20.0407 73.6232 21.0257 73.9466C22.0106 74.4317 23.1597 74.9167 24.473 75.2401C28.577 76.0486 32.8451 76.2103 37.1132 75.4018C38.5907 75.2401 40.2323 74.5934 41.7097 74.1083ZM41.7097 53.8969C41.7097 54.5437 41.7097 55.1904 41.7097 55.8372C41.7097 56.3223 41.2172 56.8073 40.7247 56.969H40.5606C39.5756 57.2924 38.4265 57.6158 37.4416 57.7775C35.4717 58.1009 33.3376 58.2626 31.3677 58.2626C29.0695 58.2626 26.7712 58.1009 24.473 57.6158C21.5182 57.1307 21.1898 56.6457 21.1898 53.7352V52.6034L21.6823 52.7651C28.2487 54.8671 34.6509 54.8671 41.2172 52.7651L41.7097 52.6034V53.0885C41.7097 53.4118 41.7097 53.7352 41.7097 53.8969ZM41.7097 64.7302C41.7097 65.377 41.7097 66.0237 41.7097 66.6705C41.7097 67.1556 41.0531 67.479 40.7247 67.6406L40.2323 67.8023C39.2473 68.1257 38.2624 68.4491 37.2774 68.6108C35.3075 68.9342 33.1734 69.0959 31.2035 69.0959C28.9053 69.0959 26.6071 68.9342 24.3089 68.4491C21.354 67.964 21.0257 67.479 21.0257 64.5685C21.0257 64.4068 21.0257 64.2451 21.0257 64.0834V63.275L21.5182 63.4367C28.0845 65.5387 34.4867 65.5387 41.0531 63.4367L41.5455 63.275V63.7601C41.7097 64.2451 41.7097 64.5685 41.7097 64.7302ZM41.7097 61.173C41.7097 61.6581 41.2172 62.1432 40.8889 62.3048L40.5606 62.4665C39.5756 62.7899 38.4265 63.1133 37.2774 63.275C35.3075 63.5984 33.1734 63.7601 31.2035 63.7601C28.9053 63.7601 26.4429 63.5984 24.3089 63.1133C21.354 62.6282 21.0257 62.1432 21.0257 59.2327C21.0257 59.071 21.0257 59.071 21.0257 58.9093V58.1009H21.6823C28.2487 60.2029 34.6509 60.2029 41.2172 58.1009L41.7097 57.9392V58.4243C41.7097 58.7476 41.7097 58.9093 41.7097 59.2327C41.7097 60.0412 41.7097 60.5262 41.7097 61.173ZM20.6974 50.8248L21.354 50.3397C24.9655 47.7527 38.4265 47.7527 41.7097 50.3397L42.2022 50.8248L41.5455 51.1482C41.3814 51.3099 41.0531 51.3099 40.8889 51.4715C40.3964 51.6332 40.0681 51.7949 39.5756 51.9566C37.2774 52.6034 34.6509 52.9268 31.8602 52.9268C31.0394 52.9268 30.3827 52.9268 29.5619 52.9268C27.592 52.7651 25.458 52.6034 23.1597 51.9566C22.8314 51.7949 22.5031 51.6332 22.1748 51.4715C22.0106 51.4715 21.8465 51.3099 21.6823 51.1482L20.6974 50.8248ZM31.2035 74.5934C28.7411 74.5934 26.4429 74.27 24.1447 73.7849C21.1898 73.1381 21.0257 72.9764 21.0257 69.9043C21.0257 69.7426 21.0257 69.5809 21.0257 69.5809V68.9342L21.5182 69.0959C28.0845 71.0362 34.4867 71.0362 41.0531 69.0959L41.5455 68.9342V69.4192C41.5455 69.5809 41.5455 69.9043 41.5455 70.066C41.5455 70.7128 41.5455 71.3595 41.5455 72.0063C41.5455 72.4914 40.8889 72.9765 40.3964 72.9765L39.7398 73.1381C38.5907 73.4615 37.4416 73.7849 36.1283 73.9466C34.6509 74.4317 32.8451 74.5934 31.2035 74.5934Z" fill="black"/>
<path d="M65.5127 46.1357C65.6768 45.974 65.6768 46.1357 65.5127 46.1357C65.5127 45.974 65.5127 45.974 65.5127 45.8123C65.3485 45.6507 65.1844 45.489 65.0202 45.3273H64.856C64.6919 45.3273 64.5277 45.489 64.1994 45.6507L49.2609 60.5262C49.0968 60.6879 48.9326 61.0113 48.9326 61.173C48.9326 61.3347 48.9326 61.4964 49.0968 61.6581C49.4251 61.9814 49.7534 61.9814 50.2459 61.4964C55.3348 56.4839 60.2596 51.6332 65.3485 46.6208C65.3485 46.4591 65.5127 46.2974 65.5127 46.1357Z" fill="black"/>
<path d="M51.7232 51.6332C52.7082 51.6332 53.529 51.3098 54.1856 50.663C54.8422 50.0163 55.1706 49.2078 55.1706 48.2377C55.1706 46.2974 53.6931 44.8422 51.7232 44.8422C50.7383 44.8422 49.9175 45.1655 49.2608 45.8123C48.6042 46.4591 48.2759 47.2675 48.2759 48.2377C48.2759 50.0163 49.7533 51.4715 51.7232 51.6332ZM50.2458 46.7825C50.5741 46.4591 51.0666 46.1357 51.7232 46.1357C52.2157 46.1357 52.8723 46.2974 53.2006 46.7825C53.529 47.1058 53.8573 47.7526 53.8573 48.2377C53.8573 49.3695 52.8723 50.178 51.7232 50.178C50.5741 50.178 49.7533 49.2078 49.7533 48.2377C49.7533 47.5909 49.9175 47.1058 50.2458 46.7825Z" fill="black"/>
<path d="M62.7222 55.6755C61.7373 55.6755 60.9165 55.9989 60.2599 56.6457C59.6032 57.2924 59.2749 58.1009 59.2749 59.071C59.2749 61.0113 60.7523 62.4666 62.7222 62.4666C63.7072 62.4666 64.528 62.1432 65.1846 61.4964C65.8413 60.8496 66.1696 60.0412 66.1696 59.071C66.1696 57.1308 64.528 55.6755 62.7222 55.6755ZM64.1997 60.3646C63.8714 60.688 63.2147 61.0113 62.7222 61.0113C62.2298 61.0113 61.7373 60.8496 61.2448 60.3646C60.9165 60.0412 60.5882 59.3944 60.5882 58.9094C60.5882 57.7775 61.409 56.9691 62.5581 56.8074C63.2147 56.8074 63.7072 56.9691 64.0355 57.2924C64.3638 57.6158 64.6921 58.1009 64.6921 58.7477C64.8563 59.5561 64.528 60.0412 64.1997 60.3646Z" fill="black"/>
</svg>
