<svg width="356" height="363" viewBox="0 0 356 363" fill="none" xmlns="http://www.w3.org/2000/svg">
<g clip-path="url(#clip0_294_2868)">
<rect width="356" height="363" fill="url(#paint0_linear_294_2868)"/>
<path fill-rule="evenodd" clip-rule="evenodd" d="M306.106 12.1235C297.711 8.24699 291.5 5 280.485 2.69409C269.469 0.388175 265.5 0 256.212 0H252.166H114.621L149.681 48.4942H177.999H238.681C257.56 48.4942 279.136 48.4942 293.969 61.9648C298.015 66.006 302.06 71.3944 303.409 76.7826C306.106 82.1709 307.454 87.5592 307.454 94.2945C307.454 101.03 306.106 106.418 303.409 111.806C300.712 117.194 298.015 122.583 293.969 126.624C288.575 132.012 281.833 136.053 273.742 137.401C264.303 140.095 253.515 141.442 244.075 141.442L218.454 188.589C235.984 189.936 254.863 189.936 275.09 185.895C295.318 181.854 314.197 175.118 329.03 160.301C337.121 152.218 345.212 141.442 349.257 129.318C353.303 118.542 356 106.418 356 92.9474C356 80.8238 353.303 68.7002 349.257 56.5767C343.863 44.4531 336.97 33.4059 329.5 27C322.03 20.5941 314.5 16 306.106 12.1235Z" fill="#26C7BC"/>
<path fill-rule="evenodd" clip-rule="evenodd" d="M59.3333 0L157.773 141.442L129.455 187.242L0 0H59.3333Z" fill="#0E141E"/>
<path fill-rule="evenodd" clip-rule="evenodd" d="M272.392 64.658L177.998 229H121.362L215.756 64.658L271.044 66.0051L272.392 64.658Z" fill="#0E141E"/>
</g>
<defs>
<linearGradient id="paint0_linear_294_2868" x1="178" y1="0" x2="178" y2="363" gradientUnits="userSpaceOnUse">
<stop stop-color="white" stop-opacity="0"/>
<stop offset="1" stop-color="#26C7BC" stop-opacity="0.5"/>
</linearGradient>
<clipPath id="clip0_294_2868">
<rect width="356" height="363" fill="white"/>
</clipPath>
</defs>
</svg>
