<svg width="825" height="809" viewBox="0 0 825 809" fill="none" xmlns="http://www.w3.org/2000/svg">
<g clip-path="url(#clip0_294_2544)">
<g clip-path="url(#clip1_294_2544)">
<g opacity="0.5">
<path d="M551.064 46.7223C551.064 46.7223 414.402 -4.1737 281.845 72.4343C149.271 149.059 83.8351 303.637 27.5116 427.429C-28.812 551.221 6.06876 678.282 108.735 737.335C211.385 796.37 279.648 712.117 422.611 709.784C565.575 707.451 604.287 728.719 721.925 648.075C839.579 567.432 858.621 373.724 763.227 229.005C667.815 84.2856 551.064 46.7223 551.064 46.7223Z" fill="#26C7BC"/>
<path opacity="0.7" d="M551.064 46.7223C551.064 46.7223 414.402 -4.1737 281.845 72.4343C149.271 149.059 83.8351 303.637 27.5116 427.429C-28.812 551.221 6.06876 678.282 108.735 737.335C211.385 796.37 279.648 712.117 422.611 709.784C565.575 707.451 604.287 728.719 721.925 648.075C839.579 567.432 858.621 373.724 763.227 229.005C667.815 84.2856 551.064 46.7223 551.064 46.7223Z" fill="white"/>
</g>
<g opacity="0.3">
<path d="M673.432 448.602L650.177 471.852L673.432 495.102L696.687 471.852L673.432 448.602Z" stroke="black" stroke-width="1.5" stroke-miterlimit="10" stroke-linecap="round" stroke-linejoin="round"/>
<path d="M171.847 37.661L148.592 60.9109L171.847 84.1608L195.103 60.9109L171.847 37.661Z" stroke="black" stroke-width="1.5" stroke-miterlimit="10" stroke-linecap="round" stroke-linejoin="round"/>
<path d="M129.58 522.493L115.2 536.869L129.58 551.245L143.959 536.869L129.58 522.493Z" stroke="black" stroke-width="1.5" stroke-miterlimit="10" stroke-linecap="round" stroke-linejoin="round"/>
<path d="M48.3096 289.155L33.9302 303.531L48.3096 317.907L62.689 303.531L48.3096 289.155Z" stroke="black" stroke-width="1.5" stroke-miterlimit="10" stroke-linecap="round" stroke-linejoin="round"/>
<path d="M636.237 122.752L621.857 137.128L636.237 151.505L650.616 137.128L636.237 122.752Z" stroke="black" stroke-width="1.5" stroke-miterlimit="10" stroke-linecap="round" stroke-linejoin="round"/>
<path d="M161.819 538.477L141.37 558.922L161.819 579.366L182.268 558.922L161.819 538.477Z" stroke="black" stroke-width="1.5" stroke-miterlimit="10" stroke-linecap="round" stroke-linejoin="round"/>
<path d="M569.642 516.684L555.262 531.061L569.642 545.437L584.021 531.061L569.642 516.684Z" stroke="black" stroke-width="1.5" stroke-miterlimit="10" stroke-linecap="round" stroke-linejoin="round"/>
<path d="M679.956 93.3907L652.438 120.903L679.956 148.415L707.475 120.903L679.956 93.3907Z" stroke="black" stroke-width="1.5" stroke-miterlimit="10" stroke-linecap="round" stroke-linejoin="round"/>
<path d="M385.029 743.049L370.65 757.425L385.029 771.801L399.409 757.425L385.029 743.049Z" stroke="black" stroke-width="1.5" stroke-miterlimit="10" stroke-linecap="round" stroke-linejoin="round"/>
<path d="M98.6878 309.341C110.229 309.341 119.586 299.987 119.586 288.448C119.586 276.909 110.229 267.555 98.6878 267.555C87.1463 267.555 77.79 276.909 77.79 288.448C77.79 299.987 87.1463 309.341 98.6878 309.341Z" stroke="black" stroke-width="1.5" stroke-miterlimit="10" stroke-linecap="round" stroke-linejoin="round"/>
<path d="M704.792 373.178C715.694 373.178 724.532 364.342 724.532 353.443C724.532 342.544 715.694 333.708 704.792 333.708C693.89 333.708 685.053 342.544 685.053 353.443C685.053 364.342 693.89 373.178 704.792 373.178Z" stroke="black" stroke-width="1.5" stroke-miterlimit="10" stroke-linecap="round" stroke-linejoin="round"/>
<path d="M775.61 229.243C782.025 229.243 787.226 224.043 787.226 217.63C787.226 211.216 782.025 206.017 775.61 206.017C769.195 206.017 763.995 211.216 763.995 217.63C763.995 224.043 769.195 229.243 775.61 229.243Z" stroke="black" stroke-width="1.5" stroke-miterlimit="10" stroke-linecap="round" stroke-linejoin="round"/>
<path d="M543.401 65.5544C543.401 61.7062 540.284 58.5901 536.435 58.5901C532.586 58.5901 529.469 61.7062 529.469 65.5544C529.469 69.4027 532.586 72.5188 536.435 72.5188C540.267 72.5188 543.401 69.4027 543.401 65.5544Z" stroke="black" stroke-width="1.5" stroke-miterlimit="10" stroke-linecap="round" stroke-linejoin="round"/>
<path d="M250.797 469.539C254.645 469.539 257.763 466.421 257.763 462.574C257.763 458.728 254.645 455.61 250.797 455.61C246.95 455.61 243.832 458.728 243.832 462.574C243.832 466.421 246.95 469.539 250.797 469.539Z" stroke="black" stroke-width="1.5" stroke-miterlimit="10" stroke-linecap="round" stroke-linejoin="round"/>
<path d="M85.9149 659.926C91.6904 659.926 96.3724 655.246 96.3724 649.471C96.3724 643.697 91.6904 639.016 85.9149 639.016C80.1395 639.016 75.4575 643.697 75.4575 649.471C75.4575 655.246 80.1395 659.926 85.9149 659.926Z" stroke="black" stroke-width="1.5" stroke-miterlimit="10" stroke-linecap="round" stroke-linejoin="round"/>
<path d="M718.725 632.052C718.725 626.926 714.569 622.771 709.443 622.771C704.316 622.771 700.161 626.926 700.161 632.052C700.161 637.177 704.316 641.332 709.443 641.332C714.569 641.349 718.725 637.177 718.725 632.052Z" stroke="black" stroke-width="1.5" stroke-miterlimit="10" stroke-linecap="round" stroke-linejoin="round"/>
<path d="M644.416 31.8907C644.416 26.7654 640.26 22.6106 635.133 22.6106C630.007 22.6106 625.851 26.7654 625.851 31.8907C625.851 37.0161 630.007 41.1709 635.133 41.1709C640.26 41.1709 644.416 37.0161 644.416 31.8907Z" stroke="black" stroke-width="1.5" stroke-miterlimit="10" stroke-linecap="round" stroke-linejoin="round"/>
</g>
<path d="M272.852 388.282L206.667 424.262" stroke="#263238" stroke-width="1.5" stroke-miterlimit="10" stroke-linecap="round" stroke-linejoin="round"/>
<path d="M147.448 192.088L218.283 219.946" stroke="#263238" stroke-width="1.5" stroke-miterlimit="10" stroke-linecap="round" stroke-linejoin="round"/>
<path d="M232.214 34.207L277.501 107.341" stroke="#263238" stroke-width="1.5" stroke-miterlimit="10" stroke-linecap="round" stroke-linejoin="round"/>
<path d="M386.64 1.70093L384.323 59.7486" stroke="#263238" stroke-width="1.5" stroke-miterlimit="10" stroke-linecap="round" stroke-linejoin="round"/>
<path d="M519.009 139.847L578.228 80.6416" stroke="#263238" stroke-width="1.5" stroke-miterlimit="10" stroke-linecap="round" stroke-linejoin="round"/>
<path d="M601.443 259.416L652.538 242.014" stroke="#263238" stroke-width="1.5" stroke-miterlimit="10" stroke-linecap="round" stroke-linejoin="round"/>
<path d="M552.682 389.44L595.635 413.807" stroke="#263238" stroke-width="1.5" stroke-miterlimit="10" stroke-linecap="round" stroke-linejoin="round"/>
<path d="M217.124 138.689L251.953 165.389" stroke="#263238" stroke-width="1.5" stroke-miterlimit="10" stroke-linecap="round" stroke-linejoin="round"/>
<path d="M592.16 188.615L554.997 206.017" stroke="#263238" stroke-width="1.5" stroke-miterlimit="10" stroke-linecap="round" stroke-linejoin="round"/>
<path d="M229.882 315.148L190.419 326.744" stroke="#263238" stroke-width="1.5" stroke-miterlimit="10" stroke-linecap="round" stroke-linejoin="round"/>
<path d="M568.93 330.235L587.511 334.883" stroke="#263238" stroke-width="1.5" stroke-miterlimit="10" stroke-linecap="round" stroke-linejoin="round"/>
<path d="M584.839 261.119C578.282 256.573 553.535 260.608 537.883 273.226C522.231 285.843 518.705 290.39 518.705 290.39C518.705 290.39 511.637 240.924 511.637 239.409C511.637 237.893 501.537 145.024 499.528 131.401C497.501 117.779 494.486 97.5843 491.455 93.0379C488.423 88.4914 476.314 87.9976 472.277 90.0069C468.241 92.0332 468.241 92.0332 468.241 92.0332C468.241 92.0332 470.267 56.7006 466.214 48.1186C462.177 39.5366 449.557 44.5938 446.014 49.1232C442.489 53.6696 439.951 60.7362 439.951 60.7362C439.951 60.7362 428.336 56.7006 421.778 69.829C415.221 82.9574 410.163 94.5533 409.158 107.171C408.153 119.788 402.601 135.948 402.601 135.948C402.601 135.948 396.044 125.357 388.975 131.401C381.907 137.463 373.834 161.183 371.808 178.347C369.781 195.511 367.771 240.924 367.771 240.924C367.771 240.924 363.735 261.613 361.708 278.266C359.681 294.919 361.197 364.069 368.776 392.829C376.355 421.606 386.438 439.774 386.438 439.774C386.438 439.774 404.1 497.822 406.637 505.893C409.158 513.964 436.919 623.998 436.919 623.998L519.71 519.022C519.71 519.022 499.017 461.996 494.469 448.867C489.922 435.739 486.89 431.703 486.89 431.703C486.89 431.703 512.131 395.877 525.756 385.269C539.382 374.677 546.45 339.345 549.992 323.696C553.518 308.048 568.165 286.354 576.238 279.288C584.328 272.221 591.396 265.665 584.839 261.119ZM398.036 236.889C396.52 236.889 397.031 217.204 397.031 193.485C397.031 169.765 401.068 159.157 401.068 159.157C399.041 169.748 403.095 222.245 403.095 225.786C403.095 229.311 399.552 236.889 398.036 236.889Z" fill="white" stroke="#263238" stroke-width="1.5" stroke-miterlimit="10" stroke-linecap="round" stroke-linejoin="round"/>
<path d="M474.388 440.336C480.707 437.135 481.848 433.729 481.848 433.729" stroke="#263238" stroke-width="1.5" stroke-miterlimit="10" stroke-linecap="round" stroke-linejoin="round"/>
<path d="M424.793 428.689C424.793 428.689 452.555 446.858 466.197 443.333" stroke="#263238" stroke-width="1.5" stroke-miterlimit="10" stroke-linecap="round" stroke-linejoin="round"/>
<path d="M518.705 290.39C518.705 290.39 508.112 307.043 505.574 313.105C503.053 319.167 501.538 324.207 496.99 326.727C492.443 329.247 486.396 332.789 486.396 332.789" stroke="#263238" stroke-width="1.5" stroke-miterlimit="10" stroke-linecap="round" stroke-linejoin="round"/>
<path d="M488.201 295.328C475.359 301.288 457.289 311.828 447.019 327.238" stroke="#263238" stroke-width="1.5" stroke-miterlimit="10" stroke-linecap="round" stroke-linejoin="round"/>
<path d="M503.054 289.385C503.054 289.385 499.358 290.543 493.738 292.893" stroke="#263238" stroke-width="1.5" stroke-miterlimit="10" stroke-linecap="round" stroke-linejoin="round"/>
<path d="M441.466 333.793C441.466 333.793 432.371 350.447 428.334 363.575" stroke="#263238" stroke-width="1.5" stroke-miterlimit="10" stroke-linecap="round" stroke-linejoin="round"/>
<path d="M439.95 60.7361C439.95 60.7361 437.429 81.9357 433.887 113.727C430.361 145.517 428.334 161.166 428.845 181.361C429.356 201.556 434.909 219.214 434.398 221.734" stroke="#263238" stroke-width="1.5" stroke-miterlimit="10" stroke-linecap="round" stroke-linejoin="round"/>
<path d="M468.224 92.033C468.224 92.033 466.709 105.161 468.224 122.308C469.74 139.472 466.708 171.263 466.708 183.387C466.708 195.511 467.219 213.662 467.713 219.213C468.224 224.764 471.239 228.8 471.239 228.8" stroke="#263238" stroke-width="1.5" stroke-miterlimit="10" stroke-linecap="round" stroke-linejoin="round"/>
<path d="M477.813 231.848C477.813 231.848 480.334 236.395 496.991 236.888" stroke="#263238" stroke-width="1.5" stroke-miterlimit="10" stroke-linecap="round" stroke-linejoin="round"/>
<path d="M439.441 219.725C439.441 219.725 451.55 222.245 459.64 220.729" stroke="#263238" stroke-width="1.5" stroke-miterlimit="10" stroke-linecap="round" stroke-linejoin="round"/>
<path d="M395.515 240.924C395.515 240.924 395.515 245.964 380.868 250.511" stroke="#263238" stroke-width="1.5" stroke-miterlimit="10" stroke-linecap="round" stroke-linejoin="round"/>
<path d="M424.299 227.302C425.815 226.297 431.878 224.271 433.394 217.204" stroke="#263238" stroke-width="1.5" stroke-miterlimit="10" stroke-linecap="round" stroke-linejoin="round"/>
<path d="M425.167 304.608C425.167 304.608 456.557 293.097 476.433 288.908" stroke="#263238" stroke-width="1.5" stroke-miterlimit="10" stroke-linecap="round" stroke-linejoin="round"/>
<path fill-rule="evenodd" clip-rule="evenodd" d="M785.659 815.475H514.277C510.473 810.689 507.356 806.753 505.143 803.958C503.175 801.473 501.922 799.891 501.537 799.418C497.365 794.19 387.494 660.284 387.494 660.284L431.435 601.726L511.995 489.802L596.744 629.975L664.751 686.456C664.751 686.456 687.778 689.589 693.007 694.816C697.52 699.312 766.703 790.461 785.659 815.475Z" fill="#263238"/>
<path d="M431.435 601.726L417.827 547.322L387.494 660.284L431.435 601.726Z" fill="#141C21"/>
<path d="M431.435 601.726L511.995 489.802L596.744 629.975L664.751 686.456C664.751 686.456 687.778 689.589 693.007 694.816C697.52 699.312 766.703 790.461 785.659 815.475H514.277C510.473 810.689 507.356 806.753 505.143 803.958C503.175 801.473 501.922 799.891 501.537 799.418C497.365 794.19 387.494 660.284 387.494 660.284M431.435 601.726L417.827 547.322L387.494 660.284M431.435 601.726L387.494 660.284" stroke="#263238" stroke-width="1.5" stroke-miterlimit="10" stroke-linecap="round" stroke-linejoin="round"/>
<path d="M301.772 423.053C301.772 423.053 279.307 365.533 273.891 354.942C268.475 344.351 239.078 298.359 237.596 285.877C236.115 273.396 231.516 252.639 226.781 243.955C222.047 235.271 236.149 229.583 247.815 240.583C259.465 251.583 266.516 269.479 266.363 274.639C266.227 279.798 292.523 299.074 292.523 299.074L297.309 254.733C297.309 254.733 302.419 144.751 301.346 128.336C300.273 111.921 299.217 77.0656 312.246 75.7204C325.275 74.3752 327.302 84.677 327.302 84.677C327.302 84.677 327.762 58.7097 342.256 60.3784C353.326 61.6555 357.567 72.0935 359.185 77.1167C360.803 82.1399 362.711 88.372 362.711 88.372C362.711 88.372 371.84 82.1739 380.747 96.937C385.857 105.417 396.723 132.082 398.477 138.859C400.231 145.636 400.776 148.088 400.776 148.088C400.776 148.088 412.988 147.697 418.404 160.587C423.82 173.477 431.519 207.107 438.961 234.93C446.404 262.753 446.098 289.181 446.098 289.181C446.098 289.181 449.01 378.696 443.015 407.166C437.02 435.636 425.745 459.901 423.429 462.217C421.112 464.516 387.798 562.817 387.798 562.817L272.256 519.992C272.256 519.992 296.321 460.889 300.12 447.999C303.935 435.126 301.772 423.053 301.772 423.053Z" fill="white" stroke="#263238" stroke-width="1.5" stroke-miterlimit="10" stroke-linecap="round" stroke-linejoin="round"/>
<path d="M277.586 339.14C277.825 344.776 279.034 348.165 279.034 348.165" stroke="#263238" stroke-width="1.5" stroke-miterlimit="10" stroke-linecap="round" stroke-linejoin="round"/>
<path d="M288.982 303.961C288.982 303.961 282.459 311.555 279.069 325.109C278.388 327.834 277.979 330.388 277.758 332.738" stroke="#263238" stroke-width="1.5" stroke-miterlimit="10" stroke-linecap="round" stroke-linejoin="round"/>
<path d="M327.286 84.7114C327.286 84.7114 329.296 120.385 330.624 138.008C331.97 155.632 332.617 182.894 332.736 200.807C332.855 218.703 330.675 241.214 329.449 246.101C328.223 250.988 325.498 257.22 325.498 257.22" stroke="#263238" stroke-width="1.5" stroke-miterlimit="10" stroke-linecap="round" stroke-linejoin="round"/>
<path d="M362.694 88.406C362.694 88.406 356.989 95.0468 358.879 103.595C360.77 112.143 369.541 159.889 369.541 166.802C369.541 173.715 370.035 233.789 370.154 237.859C370.29 241.928 367.429 255.619 366.066 261.051" stroke="#263238" stroke-width="1.5" stroke-miterlimit="10" stroke-linecap="round" stroke-linejoin="round"/>
<path d="M400.759 148.105C400.759 148.105 394.253 148.787 395.735 158.952C397.216 169.118 400.452 202.22 400.435 211.432C400.435 220.661 402.581 241.946 402.156 262.021C401.73 282.097 406.345 289.01 408.508 294.17" stroke="#263238" stroke-width="1.5" stroke-miterlimit="10" stroke-linecap="round" stroke-linejoin="round"/>
<path d="M300.273 282.012C300.273 282.012 297.957 293.54 301.074 299.5C304.19 305.476 308.516 318.094 308.516 325.007" stroke="#263238" stroke-width="1.5" stroke-miterlimit="10" stroke-linecap="round" stroke-linejoin="round"/>
<path d="M323.607 276.325C323.607 276.325 322.381 285.809 323.726 291.922C325.072 298.018 329.279 304.267 329.279 304.267" stroke="#263238" stroke-width="1.5" stroke-miterlimit="10" stroke-linecap="round" stroke-linejoin="round"/>
<path d="M362.524 291.275C362.524 291.275 361.162 301.305 363.597 307.69C366.033 314.058 368.877 318.809 368.877 318.809" stroke="#263238" stroke-width="1.5" stroke-miterlimit="10" stroke-linecap="round" stroke-linejoin="round"/>
<path d="M310.118 815.475L417.536 573.153C417.536 573.153 371.704 535.317 341.558 515.463C311.412 495.608 275.254 496.204 275.254 496.204C275.254 496.204 228.059 596.753 225.59 603.156C223.103 609.558 190.198 677.686 190.198 677.686C190.198 677.686 175.738 682.846 169.317 694.391C164.293 703.449 128.033 781.93 112.585 815.475H310.118Z" fill="#26C7BC" stroke="#263238" stroke-width="1.5" stroke-miterlimit="10" stroke-linecap="round" stroke-linejoin="round"/>
<path d="M386.159 588.99C390.919 586.175 392.496 580.035 389.68 575.276C386.864 570.516 380.722 568.94 375.962 571.755C371.201 574.57 369.625 580.711 372.441 585.47C375.256 590.229 381.398 591.806 386.159 588.99Z" fill="#263238" stroke="#263238" stroke-width="1.5" stroke-miterlimit="10" stroke-linecap="round" stroke-linejoin="round"/>
<path d="M375.621 620.302C374.275 625.666 368.842 628.918 363.477 627.573C358.112 626.228 354.859 620.796 356.205 615.432C357.55 610.069 362.984 606.816 368.348 608.162C373.713 609.507 376.966 614.939 375.621 620.302Z" fill="#263238" stroke="#263238" stroke-width="1.5" stroke-miterlimit="10" stroke-linecap="round" stroke-linejoin="round"/>
</g>
<path fill-rule="evenodd" clip-rule="evenodd" d="M466.673 630.223L451.756 671.748L437.998 672.74L457.874 617.947L466.673 630.223Z" fill="white"/>
<path d="M484.777 683.976L436.481 689.03L428.082 677.311L476.377 672.258L484.777 683.976Z" fill="white"/>
<path d="M490.442 705.625C501.491 697.705 504.076 682.395 496.215 671.429L474.636 641.325L469.591 656.092L485.89 678.831C489.693 684.137 488.443 691.545 483.096 695.377C477.75 699.209 470.333 698.015 466.529 692.708L464.233 689.506L449.89 691.303L456.203 700.11C464.064 711.076 479.393 713.545 490.442 705.625Z" fill="#26C7BC"/>
<path d="M284.089 676.589C282.739 675.038 281.653 673.316 281.093 671.323C278.772 663.304 284.721 655.279 293.09 655.152C299.424 655.078 305.736 654.786 312.06 654.603C322.577 654.275 333.122 653.893 343.637 653.634C352.446 653.396 358.746 662.123 355.821 670.38C354.019 675.435 349.523 678.669 344.033 678.847C334.786 679.128 325.526 679.436 316.306 679.731C316.102 679.725 315.91 679.761 315.717 679.797C315.138 680.04 314.526 679.955 313.925 679.98C309.787 680.086 305.647 680.259 301.536 680.38C298.874 680.444 296.209 680.576 293.546 680.64C291.156 680.711 288.906 680.132 286.837 678.956C285.804 678.301 284.799 677.591 284.089 676.589Z" fill="white"/>
<path d="M284.09 676.589C284.929 677.349 285.782 678.082 286.776 678.682C288.993 679.97 291.393 680.527 293.961 680.446C300.627 680.205 307.32 679.977 313.999 679.777C314.6 679.752 315.172 679.781 315.746 679.743C317.682 682.852 319.591 685.947 321.512 689.083C324.205 693.427 326.926 697.786 329.605 702.157C329.548 702.264 329.479 702.263 329.384 702.246C329.155 702.158 329.01 701.977 328.823 701.808C325.377 698.549 321.31 697.551 316.762 698.683C314 699.385 311.801 700.977 310.129 703.264C307.946 706.248 307.257 709.545 307.909 713.179C308.014 713.823 308.367 714.392 308.349 715.074C308.291 715.181 308.209 715.207 308.114 715.19C306.571 712.706 305.013 710.248 303.47 707.764C297.061 697.492 290.652 687.22 284.285 676.936C284.206 676.824 284.168 676.7 284.09 676.589Z" fill="white" fill-opacity="0.8"/>
<path d="M308.252 715.125C308.068 714.37 307.842 713.627 307.699 712.859C306.027 703.562 315.013 695.742 323.954 698.687C326.105 699.387 327.888 700.581 329.455 702.18C329.602 702.293 329.722 702.392 329.855 702.532C330.156 703.004 330.498 703.463 330.785 703.962C333.46 708.47 333.541 713.043 330.773 717.512C327.564 722.61 321.354 724.652 315.693 722.56C312.95 721.544 310.829 719.753 309.327 717.256C308.987 716.728 308.729 716.175 308.402 715.621C308.367 715.429 308.123 715.368 308.252 715.125Z" fill="white"/>
<path d="M308.252 715.125C308.302 715.291 308.491 715.391 308.417 715.594C308.214 715.52 308.164 715.355 308.087 715.175L308.252 715.125Z" fill="white" fill-opacity="0.8"/>
<path d="M329.856 702.533C329.61 702.539 329.532 702.36 329.455 702.18C329.497 702.168 329.579 702.143 329.621 702.13L329.856 702.533Z" fill="white" fill-opacity="0.8"/>
</g>
<defs>
<clipPath id="clip0_294_2544">
<rect width="825" height="808.081" fill="white"/>
</clipPath>
<clipPath id="clip1_294_2544">
<rect width="825" height="808.081" fill="white"/>
</clipPath>
</defs>
</svg>
