<svg width="871" height="1033" viewBox="0 0 871 1033" fill="none" xmlns="http://www.w3.org/2000/svg">
<g clip-path="url(#clip0_2036_936)">
<path d="M121.77 47.538C120.026 48.5387 117.649 49.7234 114.849 51.2506C94.9796 64.0526 75.2477 73.1591 66.9018 76.1306C64.1286 77.1827 61.4617 77.6542 59.0329 77.8092C50.5834 79.3814 34.7707 79.5444 27.0055 82.6223C17.9988 86.2528 14.3437 95.0646 17.7976 98.158C21.2514 101.251 33.6877 99.2094 33.6877 99.2094C33.6877 99.2094 40.3431 96.9484 51.437 92.08L55.0684 100.427L49.5742 102.901C48.7051 101.421 47.4123 100.944 46.4359 100.705C45.354 100.387 41.4186 101.886 39.9914 103.125C38.749 104.338 38.6083 110.673 40.69 113.395C42.7717 116.117 43.7761 115.221 43.7761 115.221C46.891 115.251 50.1673 113.091 50.6704 111.983C51.0148 111.086 51.1501 108.71 50.7309 106.413L69.4025 100.473C69.6657 101.001 69.8235 101.45 70.1399 101.688C72.3271 104.49 73.3315 103.593 73.3315 103.593C76.2616 103.65 79.4324 101.411 79.9355 100.303C80.3593 99.3002 80.417 95.7101 79.4442 92.8314C78.577 90.032 76.7829 89.3432 75.5162 89.0511C74.3549 88.8383 70.4196 90.3375 69.1772 91.5501C68.5957 92.1037 68.2765 93.8455 68.3792 95.9047C66.1605 96.8784 63.6514 97.7988 63.1501 97.587C62.4379 97.2164 64.4277 89.9597 65.4628 85.9486C70.4287 83.7381 75.8174 81.1849 81.4441 78.3153C89.8179 74.2087 98.1395 69.7325 105.801 65.2554L109.696 74.1305L104.202 76.6044C103.332 75.1249 102.04 74.6479 101.063 74.409C99.9813 74.0907 96.046 75.59 94.6188 76.8287C93.3764 78.0413 93.2357 84.3767 95.3173 87.0985C97.399 89.8204 98.4034 88.9243 98.4034 88.9243C101.333 88.9811 104.61 86.821 105.034 85.8184C105.378 84.9214 105.513 82.5457 105.094 80.2485L124.215 74.1506C124.478 74.6789 124.636 75.1279 124.952 75.3659C127.034 78.0878 128.117 77.0861 128.117 77.0861C131.048 77.143 134.218 74.9035 134.722 73.7955C135.225 72.6875 135.203 69.2029 134.23 66.3242C133.363 63.5248 131.569 62.836 130.302 62.5438C129.141 62.3311 125.206 63.8303 123.963 65.0429C123.382 65.5965 123.063 67.3383 123.165 69.3975C120.946 70.3711 118.437 71.2916 117.936 71.0797C117.118 70.6298 119.349 61.0768 120.49 56.4852C131.693 49.7163 139.091 44.7109 139.091 44.7109C139.091 44.7109 139.437 42.494 138.409 41.2254C137.408 40.1417 133.764 41.0342 121.77 47.538ZM58.4268 96.1814C57.9787 95.6792 56.6363 92.8527 55.3462 90.396C57.116 89.5801 58.8858 88.7642 60.8404 87.9221C60.0434 91.6167 58.9804 96.7629 58.4268 96.1814ZM113.344 69.9383C112.896 69.4361 111.054 65.7379 109.632 63.0169C111.904 61.7529 114.07 60.4096 116.157 59.1718C115.626 62.0748 113.924 70.7046 113.344 69.9383Z" fill="#26C7BC"/>
</g>
<path d="M1 151C38.6667 120.667 150.5 53.0004 296.5 25.0004C479 -9.99961 643.75 -8.39213 739 37.0004C803 67.5004 864.5 150 864.5 208.5C864.5 237.937 838 261 811.5 256.5C750.018 246.06 759.68 172.22 809 164C857 156 878.647 217.507 867.5 238.5C837.5 295 679.5 307 659.5 365.5C643.422 412.529 693 438.313 721 426.5C753 413 763.55 370.5 737 348C711.417 326.32 650.5 330.5 646 375.5C642.55 410 663 442 706 467C754.678 495.302 830.785 498.467 854 533.5C881.5 575 846.28 618.668 803.5 607C785.5 602.091 765.927 584.5 769.5 551C773.233 516 820.5 502 848.5 521.5C876.5 541 877.353 607 841 631C789.5 665 673.994 687.609 660 734C650.196 766.5 669.5 801 706 801C742.5 801 764.272 765 744.5 729.5C727.173 698.391 674.354 699 656 734C634.5 775 663.5 804.5 712.5 840C761.5 875.5 770.5 874 777.5 940C783.1 992.8 777.5 1021 777.5 1060" stroke="#26C7BC"/>
<defs>
<clipPath id="clip0_2036_936">
<rect width="117.999" height="83.6816" fill="white" transform="translate(14 95.3018) rotate(-53.0511)"/>
</clipPath>
</defs>
</svg>
