<svg width="347" height="1121" viewBox="0 0 347 1121" fill="none" xmlns="http://www.w3.org/2000/svg">
<g clip-path="url(#clip0_2038_937)">
<path d="M214.044 57.1501C216.022 57.5095 218.659 57.83 221.809 58.3318C244.817 63.7448 266.459 65.7213 275.318 65.7279C278.283 65.791 280.954 65.3426 283.294 64.6757C291.783 63.329 306.738 58.1898 315.085 58.4909C324.788 58.8972 331.182 65.9774 328.962 70.0484C326.743 74.1194 314.341 76.3579 314.341 76.3579C314.341 76.3579 307.312 76.455 295.229 75.5809L294.601 84.6617L300.606 85.1538C300.93 83.4688 301.989 82.5866 302.829 82.0346C303.742 81.3726 307.952 81.4681 309.711 82.1577C311.288 82.8845 313.541 88.8073 312.491 92.0689C311.44 95.3305 310.194 94.8223 310.194 94.8223C307.269 95.8938 303.458 94.955 302.613 94.0793C301.989 93.3492 301.066 91.1559 300.692 88.8509L281.109 89.5031C281.038 90.0891 281.04 90.565 280.821 90.8952C279.698 94.2669 278.451 93.7586 278.451 93.7586C275.709 94.793 271.972 93.7441 271.127 92.8683C270.392 92.0655 269.136 88.7018 269.089 85.6636C268.969 82.7354 270.429 81.4857 271.525 80.7865C272.548 80.1973 276.758 80.2928 278.335 81.0196C279.068 81.3466 279.952 82.8811 280.544 84.8559C282.961 85.0307 285.633 85.0582 286.035 84.6908C286.582 84.1032 282.278 77.9312 279.96 74.4979C274.541 74.077 268.608 73.4749 262.345 72.6541C253.08 71.5874 243.74 70.1548 235.022 68.5005L234.323 78.1673L240.328 78.6594C240.652 76.9743 241.71 76.0921 242.55 75.5402C243.463 74.8781 247.674 74.9737 249.433 75.6632C251.01 76.39 253.263 82.3128 252.212 85.5745C251.162 88.8361 249.915 88.3278 249.915 88.3278C247.173 89.3622 243.363 88.4233 242.628 87.6204C242.003 86.8904 241.081 84.6971 240.707 82.3921L220.648 83.0459C220.577 83.6319 220.578 84.1078 220.36 84.438C219.309 87.6996 217.953 87.1185 217.953 87.1185C215.211 88.1528 211.473 87.1039 210.628 86.2282C209.783 85.3525 208.637 82.0617 208.59 79.0234C208.471 76.0952 209.931 74.8456 211.027 74.1463C212.05 73.5571 216.26 73.6527 217.836 74.3795C218.57 74.7064 219.453 76.2409 220.046 78.2158C222.463 78.3906 225.135 78.4181 225.536 78.0507C226.156 77.353 220.857 69.0977 218.244 65.153C205.423 62.5241 196.776 60.2838 196.776 60.2838C196.776 60.2838 195.707 58.3107 196.251 56.7713C196.832 55.4148 200.565 55.0361 214.044 57.1501ZM290.015 81.7853C290.269 81.1621 290.588 78.0494 290.982 75.3025C289.041 75.126 287.1 74.9496 284.976 74.8103C286.964 78.0251 289.688 82.5185 290.015 81.7853ZM229.481 75.4381C229.735 74.8149 230.234 70.7132 230.663 67.6733C228.099 67.2427 225.608 66.7021 223.227 66.2343C224.7 68.7918 229.191 76.3543 229.481 75.4381Z" fill="#26C7BC"/>
</g>
<path d="M361.5 111.109C266.982 83.9108 185.395 79.9031 121.5 96.0007C51.5 113.636 19.5 186.433 19.5 216.5C19.5 246.5 40.5 249.5 54 249.5C92.5 249.5 94.5 192.771 56.875 186.5C8.875 178.5 -0.145365 206 0.875 246.5C1.46705 270 5 300 3.875 327" stroke="#26C7BC"/>
<path d="M3.87423 507.735C4.99986 463.5 15 412.5 24 389.5C33 366.5 82.9995 367.801 83 403C83.0003 420.5 73 434.526 60.5 435.5C22 438.5 3.87423 416 3.87423 386.735L3.60593 296.269" stroke="#26C7BC"/>
<path d="M3.87423 698.524C4.99986 654.289 15 603.289 24 580.289C33 557.289 82.9995 558.59 83 593.789C83.0003 611.289 73 625.315 60.5 626.289C22 629.289 3.87423 606.789 3.87423 577.524V507.545" stroke="#26C7BC"/>
<path d="M3.87423 697.793V723.979C3.87423 753.244 22 775.744 60.5 772.744C73 771.77 83.0003 757.744 83 740.244C82.9995 705.045 33 703.744 24 726.744C15 749.744 4.99986 800.744 3.87423 844.979V1121.5" stroke="#26C7BC"/>
<defs>
<clipPath id="clip0_2038_937">
<rect width="117.999" height="83.6816" fill="white" transform="matrix(-0.83393 -0.551871 -0.551871 0.83393 331.584 66.0859)"/>
</clipPath>
</defs>
</svg>
