<svg width="1000" height="1023" viewBox="0 0 1000 1023" fill="none" xmlns="http://www.w3.org/2000/svg">
<path opacity="0.1" d="M998.5 500.013C998.5 775.334 775.314 998.526 500 998.526C224.686 998.526 1.5 775.334 1.5 500.013C1.5 224.692 224.686 1.5 500 1.5C775.314 1.5 998.5 224.692 998.5 500.013Z" stroke="#26C7BC" stroke-width="3"/>
<path opacity="0.5" d="M898.5 500.013C898.5 720.105 720.085 898.524 500 898.524C279.915 898.524 101.5 720.105 101.5 500.013C101.5 279.922 279.915 101.503 500 101.503C720.085 101.503 898.5 279.922 898.5 500.013Z" stroke="#26C7BC" stroke-width="3"/>
<path opacity="0.25" d="M948.5 500.013C948.5 747.719 747.7 948.525 500 948.525C252.3 948.525 51.5 747.719 51.5 500.013C51.5 252.307 252.3 51.5012 500 51.5012C747.7 51.5012 948.5 252.307 948.5 500.013Z" stroke="#26C7BC" stroke-width="3"/>
<path d="M858.845 226.315C858.302 225.69 857.354 225.623 856.729 226.167C856.104 226.71 856.037 227.657 856.581 228.283L858.845 226.315ZM896.606 288.438L896.977 271.122L881.795 279.459L896.606 288.438ZM856.581 228.283C864.122 236.961 878.986 260.282 888.808 277.355L891.409 275.859C881.593 258.796 866.601 235.239 858.845 226.315L856.581 228.283Z" fill="url(#paint0_linear_294_3931)"/>
<path d="M975.898 657.719C976.157 656.932 975.729 656.084 974.942 655.825C974.155 655.566 973.307 655.994 973.048 656.781L975.898 657.719ZM947.632 722.172L961.791 712.197L946.072 704.922L947.632 722.172ZM973.048 656.781C965.638 679.29 959.585 692.779 951.94 709.292L954.662 710.553C962.328 693.995 968.435 680.387 975.898 657.719L973.048 656.781Z" fill="url(#paint1_linear_294_3931)"/>
<path d="M540.667 999.17C541.493 999.102 542.108 998.378 542.04 997.553C541.973 996.727 541.249 996.112 540.423 996.18L540.667 999.17ZM470.244 998.569L484.965 1007.7L485.509 990.384L470.244 998.569ZM540.423 996.18C516.793 998.108 501.971 998.021 483.783 997.493L483.696 1000.49C501.955 1001.02 516.894 1001.11 540.667 999.17L540.423 996.18Z" fill="url(#paint2_linear_294_3931)"/>
<path d="M115.387 735.976C115.824 736.679 116.749 736.895 117.453 736.458C118.156 736.02 118.372 735.096 117.935 734.392L115.387 735.976ZM94.4571 693.953L93.4876 711.246L108.949 703.439L94.4571 693.953ZM117.935 734.392C112.677 725.935 107.243 715.803 101.876 705.319L99.206 706.686C104.583 717.19 110.062 727.411 115.387 735.976L117.935 734.392Z" fill="url(#paint3_linear_294_3931)"/>
<defs>
<linearGradient id="paint0_linear_294_3931" x1="857.713" y1="227.299" x2="892.269" y2="281.169" gradientUnits="userSpaceOnUse">
<stop stop-color="white" stop-opacity="0"/>
<stop offset="1" stop-color="#26C7BC"/>
</linearGradient>
<linearGradient id="paint1_linear_294_3931" x1="974.473" y1="657.25" x2="950.499" y2="715.749" gradientUnits="userSpaceOnUse">
<stop stop-color="white" stop-opacity="0"/>
<stop offset="1" stop-color="#26C7BC"/>
</linearGradient>
<linearGradient id="paint2_linear_294_3931" x1="540.545" y1="997.674" x2="477.329" y2="998.34" gradientUnits="userSpaceOnUse">
<stop stop-color="white" stop-opacity="0"/>
<stop offset="1" stop-color="#26C7BC"/>
</linearGradient>
<linearGradient id="paint3_linear_294_3931" x1="115.496" y1="731.796" x2="98.0378" y2="700.071" gradientUnits="userSpaceOnUse">
<stop stop-color="white" stop-opacity="0"/>
<stop offset="1" stop-color="#26C7BC"/>
</linearGradient>
</defs>
</svg>
