<svg width="711" height="915" viewBox="0 0 711 915" fill="none" xmlns="http://www.w3.org/2000/svg">
<g clip-path="url(#clip0_294_3939)">
<path opacity="0.1" d="M-181.5 467.481C-181.5 221.584 17.9563 22.2437 264 22.2437C510.044 22.2437 709.5 221.584 709.5 467.481C709.5 713.378 510.044 912.718 264 912.718C17.9563 912.718 -181.5 713.378 -181.5 467.481Z" stroke="#26C7BC" stroke-width="3"/>
<path opacity="0.5" d="M-92.0999 467.48C-92.0999 270.929 67.3306 111.591 264 111.591C460.67 111.591 620.1 270.929 620.1 467.48C620.1 664.032 460.67 823.37 264 823.37C67.3306 823.37 -92.0999 664.032 -92.0999 467.48Z" stroke="#26C7BC" stroke-width="3"/>
<path opacity="0.25" d="M-136.8 467.481C-136.8 246.256 42.6432 66.9172 264 66.9172C485.356 66.9172 664.8 246.256 664.8 467.481C664.8 688.705 485.356 868.044 264 868.044C42.6432 868.044 -136.8 688.705 -136.8 467.481Z" stroke="#26C7BC" stroke-width="3"/>
<path d="M227.63 21.3492C226.804 21.4165 226.189 22.1404 226.257 22.9659C226.325 23.7915 227.049 24.4061 227.875 24.3388L227.63 21.3492ZM290.602 22.0451L275.873 12.9247L275.34 30.2342L290.602 22.0451ZM227.875 24.3388C248.372 22.6672 261.453 22.6913 277.066 23.1252L277.149 20.1269C261.459 19.6908 248.265 19.6664 227.63 21.3492L227.875 24.3388Z" fill="url(#paint0_linear_294_3939)"/>
<path d="M607.98 256.575C607.542 255.872 606.617 255.657 605.913 256.094C605.21 256.531 604.994 257.456 605.431 258.159L607.98 256.575ZM626.556 294.206L627.514 276.917L612.054 284.734L626.556 294.206ZM605.431 258.159C609.914 265.365 614.542 273.937 619.127 282.85L621.796 281.478C617.2 272.544 612.527 263.886 607.98 256.575L605.431 258.159Z" fill="url(#paint1_linear_294_3939)"/>
</g>
<defs>
<linearGradient id="paint0_linear_294_3939" x1="227.752" y1="22.8442" x2="284.268" y2="22.2486" gradientUnits="userSpaceOnUse">
<stop stop-color="white" stop-opacity="0"/>
<stop offset="1" stop-color="#26C7BC"/>
</linearGradient>
<linearGradient id="paint1_linear_294_3939" x1="607.747" y1="260.394" x2="623.34" y2="288.747" gradientUnits="userSpaceOnUse">
<stop stop-color="white" stop-opacity="0"/>
<stop offset="1" stop-color="#26C7BC"/>
</linearGradient>
<clipPath id="clip0_294_3939">
<rect width="894" height="914" fill="white" transform="matrix(-1 0 0 -1 711 914.218)"/>
</clipPath>
</defs>
</svg>
