<svg width="722" height="678" viewBox="0 0 722 678" fill="none" xmlns="http://www.w3.org/2000/svg">
<path opacity="0.1" d="M998.5 155.013C998.5 430.334 775.314 653.526 500 653.526C224.686 653.526 1.5 430.334 1.5 155.013C1.5 -120.308 224.686 -343.5 500 -343.5C775.314 -343.5 998.5 -120.308 998.5 155.013Z" stroke="#26C7BC" stroke-width="3"/>
<path opacity="0.5" d="M898.5 155.013C898.5 375.105 720.085 553.524 500 553.524C279.915 553.524 101.5 375.105 101.5 155.013C101.5 -65.0781 279.915 -243.497 500 -243.497C720.085 -243.497 898.5 -65.0781 898.5 155.013Z" stroke="#26C7BC" stroke-width="3"/>
<path opacity="0.25" d="M948.5 155.013C948.5 402.719 747.7 603.525 500 603.525C252.3 603.525 51.5 402.719 51.5 155.013C51.5 -92.6932 252.3 -293.499 500 -293.499C747.7 -293.499 948.5 -92.6932 948.5 155.013Z" stroke="#26C7BC" stroke-width="3"/>
<path d="M540.667 654.17C541.493 654.102 542.108 653.378 542.04 652.553C541.973 651.727 541.249 651.112 540.423 651.18L540.667 654.17ZM470.244 653.569L484.965 662.696L485.509 645.384L470.244 653.569ZM540.423 651.18C516.793 653.108 501.971 653.021 483.783 652.493L483.696 655.492C501.955 656.022 516.894 656.11 540.667 654.17L540.423 651.18Z" fill="url(#paint0_linear_294_3931)"/>
<path d="M115.387 390.976C115.824 391.679 116.749 391.895 117.453 391.458C118.156 391.02 118.372 390.096 117.935 389.392L115.387 390.976ZM94.4571 348.953L93.4876 366.246L108.949 358.439L94.4571 348.953ZM117.935 389.392C112.677 380.935 107.243 370.803 101.876 360.319L99.206 361.686C104.583 372.19 110.062 382.411 115.387 390.976L117.935 389.392Z" fill="url(#paint1_linear_294_3931)"/>
<defs>
<linearGradient id="paint0_linear_294_3931" x1="540.545" y1="652.674" x2="477.329" y2="653.34" gradientUnits="userSpaceOnUse">
<stop stop-color="white" stop-opacity="0"/>
<stop offset="1" stop-color="#26C7BC"/>
</linearGradient>
<linearGradient id="paint1_linear_294_3931" x1="115.496" y1="386.796" x2="98.0378" y2="355.071" gradientUnits="userSpaceOnUse">
<stop stop-color="white" stop-opacity="0"/>
<stop offset="1" stop-color="#26C7BC"/>
</linearGradient>
</defs>
</svg>
