<svg width="894" height="914" viewBox="0 0 894 914" fill="none" xmlns="http://www.w3.org/2000/svg">
<path opacity="0.1" d="M1.5 467.263C1.5 221.367 200.956 22.0264 447 22.0264C693.044 22.0264 892.5 221.367 892.5 467.263C892.5 713.16 693.044 912.5 447 912.5C200.956 912.5 1.5 713.16 1.5 467.263Z" stroke="#26C7BC" stroke-width="3"/>
<path opacity="0.5" d="M90.9001 467.263C90.9001 270.712 250.331 111.374 447 111.374C643.67 111.374 803.1 270.712 803.1 467.263C803.1 663.815 643.67 823.153 447 823.153C250.331 823.153 90.9001 663.815 90.9001 467.263Z" stroke="#26C7BC" stroke-width="3"/>
<path opacity="0.25" d="M46.1998 467.263C46.1998 246.039 225.643 66.7 447 66.7C668.356 66.7 847.8 246.039 847.8 467.263C847.8 688.488 668.356 867.827 447 867.827C225.643 867.827 46.1998 688.488 46.1998 467.263Z" stroke="#26C7BC" stroke-width="3"/>
<path d="M126.073 711.904C126.616 712.529 127.564 712.595 128.189 712.052C128.814 711.508 128.88 710.561 128.337 709.936L126.073 711.904ZM92.4343 656.295L92.1077 673.612L107.268 665.236L92.4343 656.295ZM128.337 709.936C121.788 702.405 109.036 682.487 100.259 667.357L97.6643 668.862C106.434 683.979 119.313 704.131 126.073 711.904L128.337 709.936Z" fill="url(#paint0_linear_294_3939)"/>
<path d="M21.3968 326.311C21.1376 327.098 21.5653 327.946 22.3521 328.205C23.139 328.464 23.9869 328.036 24.2461 327.25L21.3968 326.311ZM46.8174 268.775L32.656 278.748L48.3733 286.026L46.8174 268.775ZM24.2461 327.25C30.672 307.742 35.9556 295.822 42.5057 281.657L39.7827 280.397C33.2085 294.615 27.8729 306.651 21.3968 326.311L24.2461 327.25Z" fill="url(#paint1_linear_294_3939)"/>
<path d="M410.63 21.1319C409.804 21.1992 409.189 21.9231 409.257 22.7486C409.325 23.5742 410.049 24.1889 410.875 24.1215L410.63 21.1319ZM473.602 21.8278L458.873 12.7074L458.34 30.0169L473.602 21.8278ZM410.875 24.1215C431.372 22.4499 444.453 22.474 460.066 22.908L460.149 19.9096C444.459 19.4735 431.265 19.4491 410.63 21.1319L410.875 24.1215Z" fill="url(#paint2_linear_294_3939)"/>
<path d="M790.98 256.358C790.542 255.655 789.617 255.439 788.913 255.877C788.21 256.314 787.994 257.239 788.431 257.942L790.98 256.358ZM809.556 293.988L810.514 276.699L795.054 284.516L809.556 293.988ZM788.431 257.942C792.914 265.148 797.542 273.72 802.127 282.632L804.796 281.261C800.2 272.326 795.527 263.669 790.98 256.358L788.431 257.942Z" fill="url(#paint3_linear_294_3939)"/>
<defs>
<linearGradient id="paint0_linear_294_3939" x1="127.205" y1="710.92" x2="96.3385" y2="662.772" gradientUnits="userSpaceOnUse">
<stop stop-color="white" stop-opacity="0"/>
<stop offset="1" stop-color="#26C7BC"/>
</linearGradient>
<linearGradient id="paint1_linear_294_3939" x1="22.8217" y1="326.78" x2="44.2315" y2="274.505" gradientUnits="userSpaceOnUse">
<stop stop-color="white" stop-opacity="0"/>
<stop offset="1" stop-color="#26C7BC"/>
</linearGradient>
<linearGradient id="paint2_linear_294_3939" x1="410.752" y1="22.6269" x2="467.268" y2="22.0313" gradientUnits="userSpaceOnUse">
<stop stop-color="white" stop-opacity="0"/>
<stop offset="1" stop-color="#26C7BC"/>
</linearGradient>
<linearGradient id="paint3_linear_294_3939" x1="790.747" y1="260.177" x2="806.34" y2="288.53" gradientUnits="userSpaceOnUse">
<stop stop-color="white" stop-opacity="0"/>
<stop offset="1" stop-color="#26C7BC"/>
</linearGradient>
</defs>
</svg>
