<svg width="663" height="320" viewBox="0 0 663 320" fill="none" xmlns="http://www.w3.org/2000/svg">
<g clip-path="url(#clip0_294_2625)">
<path opacity="0.1" d="M-109.623 -84.3813C-109.623 128.502 62.8996 301.078 275.717 301.078C488.534 301.078 661.057 128.502 661.057 -84.3813C661.057 -297.265 488.534 -469.84 275.717 -469.84C62.8996 -469.84 -109.623 -297.265 -109.623 -84.3813Z" stroke="#26C7BC" stroke-width="2.31965"/>
<path opacity="0.5" d="M-32.3231 -84.3815C-32.3231 85.7971 105.591 223.754 275.717 223.754C445.843 223.754 583.757 85.7971 583.757 -84.3815C583.757 -254.56 445.843 -392.517 275.717 -392.517C105.591 -392.517 -32.3231 -254.56 -32.3231 -84.3815Z" stroke="#26C7BC" stroke-width="2.31965"/>
<path opacity="0.25" d="M-70.9733 -84.3813C-70.9733 107.15 84.2455 262.416 275.717 262.416C467.188 262.416 622.407 107.15 622.407 -84.3813C622.407 -275.912 467.188 -431.178 275.717 -431.178C84.2455 -431.178 -70.9733 -275.912 -70.9733 -84.3813Z" stroke="#26C7BC" stroke-width="2.31965"/>
<path d="M244.164 301.575C243.525 301.523 243.05 300.963 243.102 300.325C243.154 299.686 243.714 299.211 244.353 299.263L244.164 301.575ZM298.616 301.111L287.234 308.167L286.814 294.781L298.616 301.111ZM244.353 299.263C262.624 300.754 274.085 300.687 288.148 300.279L288.215 302.597C274.097 303.007 262.546 303.075 244.164 301.575L244.353 299.263Z" fill="url(#paint0_linear_294_2625)"/>
<path d="M572.998 98.0691C572.66 98.6131 571.945 98.7799 571.401 98.4417C570.857 98.1035 570.69 97.3884 571.028 96.8444L572.998 98.0691ZM589.181 65.5761L589.931 78.9478L577.976 72.9112L589.181 65.5761ZM571.028 96.8444C575.093 90.3056 579.295 82.4713 583.444 74.3645L585.509 75.4214C581.352 83.5434 577.115 91.4466 572.998 98.0691L571.028 96.8444Z" fill="url(#paint1_linear_294_2625)"/>
</g>
<defs>
<linearGradient id="paint0_linear_294_2625" x1="244.258" y1="300.419" x2="293.138" y2="300.933" gradientUnits="userSpaceOnUse">
<stop stop-color="white" stop-opacity="0"/>
<stop offset="1" stop-color="#26C7BC"/>
</linearGradient>
<linearGradient id="paint1_linear_294_2625" x1="572.914" y1="94.8374" x2="586.412" y2="70.3069" gradientUnits="userSpaceOnUse">
<stop stop-color="white" stop-opacity="0"/>
<stop offset="1" stop-color="#26C7BC"/>
</linearGradient>
<clipPath id="clip0_294_2625">
<rect width="773" height="791.001" fill="white" transform="matrix(-1 0 0 1 662.217 -471)"/>
</clipPath>
</defs>
</svg>
