<svg width="57" height="37" viewBox="0 0 57 37" fill="none" xmlns="http://www.w3.org/2000/svg">
<path fill-rule="evenodd" clip-rule="evenodd" d="M48.4922 3.21115C47.2472 2.59755 46.0023 2.18849 44.5498 1.77942C43.5123 1.57489 42.0598 1.57489 40.8148 1.37036H40.1923H19.0273L24.4223 8.73354H28.7798H38.1173C41.0223 8.73354 44.3423 8.73354 46.6248 10.7789C47.2473 11.3925 47.8698 12.2106 48.0773 13.0287C48.4923 13.8469 48.6998 14.665 48.6998 15.6877C48.6998 16.7103 48.4923 17.5285 48.0773 18.3466C47.6623 19.1647 47.2473 19.9829 46.6248 20.5965C45.7948 21.4146 44.7573 22.0282 43.5123 22.2327C42.0598 22.6418 40.3998 22.8463 38.9473 22.8463L35.0048 30.005C37.7023 30.2095 40.6073 30.2095 43.7198 29.5959C46.8322 28.9823 49.7372 27.9597 52.0197 25.7098C53.2647 24.4826 54.5097 22.8463 55.1322 21.0055C55.7547 19.3693 56.1697 17.5285 56.1697 15.4831C56.1697 13.6423 55.7547 11.8015 55.1322 9.96075C54.3022 8.11995 53.2647 6.68821 52.0197 5.25648C50.7747 4.64288 49.7372 3.82475 48.4922 3.21115Z" fill="#26C7BC"/>
<path fill-rule="evenodd" clip-rule="evenodd" d="M10.5201 1.37036L25.6675 22.8463L21.3101 29.8005L1.39014 1.37036H10.5201Z" fill="#0E141E"/>
<path fill-rule="evenodd" clip-rule="evenodd" d="M43.3049 11.188L28.7799 36.1411H20.0649L34.5899 11.188L43.0974 11.3925L43.3049 11.188Z" fill="#0E141E"/>
</svg>
